<svg width="300" height="186" viewBox="0 0 300 186" fill="none" xmlns="http://www.w3.org/2000/svg">
<rect width="300" height="185.635" fill="#EEF1F6"/>
<path d="M85.2109 80.0869H92.0695C93.007 80.0869 93.9445 80.1856 94.8326 80.383C95.7208 80.5803 96.5103 80.9257 97.2011 81.3698C97.8919 81.8139 98.4346 82.406 98.8787 83.1461C99.2734 83.8863 99.5201 84.7744 99.5201 85.8599C99.5201 87.0935 99.1748 88.179 98.484 89.1165C97.7932 90.0047 96.757 90.5968 95.4741 90.9422V90.9915C97.1024 91.1395 98.3853 91.6823 99.2734 92.7185C100.211 93.7053 100.655 95.0869 100.655 96.7645C100.655 97.1099 100.556 97.6527 100.359 98.3928C100.162 99.133 99.7669 99.8238 99.2241 100.515C98.632 101.205 97.7932 101.847 96.7077 102.34C95.6221 102.883 94.1419 103.13 92.2669 103.13H85.2109V80.0869ZM87.53 90.1527H92.2669C92.8096 90.1527 93.4017 90.1034 93.9445 89.9553C94.4873 89.8073 94.9807 89.5606 95.4248 89.2645C95.8688 88.9192 96.2142 88.5244 96.5103 88.031C96.8063 87.5376 96.9544 86.8961 96.9544 86.156C96.9544 85.9093 96.905 85.5639 96.8063 85.1692C96.7076 84.7251 96.5103 84.281 96.1649 83.8863C95.8195 83.4422 95.3261 83.0968 94.6846 82.7514C94.0432 82.4553 93.155 82.258 92.0695 82.258H87.5794V90.1527H87.53ZM87.53 100.959H92.0201C92.859 100.959 93.6484 100.86 94.3886 100.712C95.1287 100.515 95.7701 100.268 96.3129 99.9224C96.8557 99.577 97.2998 99.133 97.5958 98.5902C97.8919 98.0474 98.0892 97.406 98.0892 96.6165C98.0892 95.0869 97.5958 93.952 96.609 93.2119C95.6221 92.4718 94.1912 92.1264 92.3162 92.1264H87.53V100.959Z" fill="#1E2435"/>
<path d="M108.056 82.0604C108.056 82.5045 107.908 82.8992 107.563 83.1953C107.218 83.4913 106.872 83.6393 106.477 83.6393C106.083 83.6393 105.737 83.4913 105.392 83.1953C105.046 82.8992 104.898 82.5045 104.898 82.0604C104.898 81.6163 105.046 81.2216 105.392 80.9255C105.737 80.6295 106.083 80.4814 106.477 80.4814C106.872 80.4814 107.218 80.6295 107.563 80.9255C107.859 81.2216 108.056 81.567 108.056 82.0604ZM107.563 103.129H105.392V87.8828H107.563V103.129Z" fill="#1E2435"/>
<path d="M113.88 106.189C114.521 107.028 115.311 107.719 116.347 108.212C117.334 108.705 118.469 108.952 119.702 108.952C120.788 108.952 121.725 108.804 122.465 108.459C123.206 108.163 123.847 107.719 124.291 107.176C124.735 106.633 125.081 105.992 125.278 105.251C125.475 104.511 125.574 103.771 125.574 102.932V100.219H125.525C124.834 101.255 123.995 101.995 123.008 102.439C122.021 102.883 120.936 103.08 119.85 103.08C118.765 103.08 117.729 102.883 116.742 102.488C115.755 102.094 114.916 101.551 114.225 100.86C113.485 100.169 112.942 99.3798 112.548 98.3929C112.153 97.4554 111.906 96.4193 111.906 95.2844C111.906 94.1989 112.104 93.1627 112.498 92.1758C112.893 91.2383 113.436 90.3995 114.127 89.6594C114.817 88.9193 115.607 88.3765 116.544 87.9818C117.482 87.587 118.518 87.3896 119.653 87.3896C120.097 87.3896 120.59 87.439 121.084 87.5377C121.577 87.6364 122.12 87.7844 122.613 87.9818C123.107 88.1791 123.65 88.4752 124.143 88.8699C124.637 89.2646 125.13 89.7087 125.525 90.3008H125.574V87.7844H127.745V102.883C127.745 103.722 127.646 104.61 127.449 105.498C127.252 106.436 126.857 107.275 126.265 108.064C125.673 108.853 124.834 109.495 123.798 110.038C122.712 110.58 121.331 110.827 119.653 110.827C118.123 110.827 116.791 110.58 115.607 110.087C114.423 109.594 113.337 108.804 112.35 107.768L113.88 106.189ZM114.275 95.3337C114.275 96.1232 114.423 96.9127 114.719 97.6035C115.015 98.2943 115.41 98.9357 115.903 99.4785C116.396 100.021 116.988 100.416 117.679 100.761C118.37 101.057 119.11 101.255 119.9 101.255C120.689 101.255 121.429 101.107 122.12 100.811C122.811 100.515 123.452 100.12 123.995 99.6265C124.538 99.1331 124.933 98.4916 125.229 97.8008C125.525 97.0607 125.673 96.2712 125.623 95.3831C125.623 94.5936 125.475 93.8041 125.229 93.1133C124.982 92.4225 124.587 91.7811 124.094 91.2383C123.6 90.6956 123.008 90.3008 122.268 89.9554C121.528 89.6594 120.738 89.462 119.85 89.462C119.061 89.462 118.321 89.61 117.63 89.9554C116.939 90.2515 116.347 90.6956 115.854 91.2383C115.36 91.7811 114.965 92.3732 114.669 93.1133C114.423 93.7548 114.275 94.4949 114.275 95.3337Z" fill="#1E2435"/>
<path d="M140.819 91.8301C140.079 90.7446 139.043 90.2511 137.76 90.2511C137.218 90.2511 136.724 90.3992 136.231 90.6459C135.737 90.8926 135.491 91.3367 135.491 91.9288C135.491 92.4222 135.688 92.7676 136.132 92.9649C136.527 93.1623 137.069 93.3597 137.711 93.5077C138.352 93.6557 138.994 93.8038 139.734 94.0011C140.474 94.1492 141.116 94.3959 141.757 94.7413C142.398 95.0867 142.892 95.5307 143.336 96.1228C143.731 96.7149 143.977 97.5044 143.977 98.5406C143.977 99.4781 143.78 100.268 143.385 100.909C142.991 101.55 142.448 102.044 141.806 102.439C141.165 102.833 140.425 103.129 139.635 103.277C138.846 103.475 138.007 103.524 137.218 103.524C135.984 103.524 134.898 103.327 133.862 102.981C132.826 102.636 131.938 101.995 131.148 101.106L133.764 98.6886C134.257 99.2314 134.8 99.7248 135.392 100.07C135.984 100.416 136.675 100.613 137.514 100.613C137.81 100.613 138.106 100.564 138.402 100.514C138.698 100.465 138.994 100.317 139.241 100.169C139.487 100.021 139.734 99.8235 139.882 99.5768C140.03 99.3301 140.129 99.0834 140.129 98.7873C140.129 98.2446 139.931 97.8498 139.487 97.6031C139.093 97.3564 138.55 97.1097 137.908 96.9617C137.267 96.8136 136.625 96.6656 135.885 96.5176C135.145 96.3696 134.504 96.1722 133.862 95.8268C133.221 95.5307 132.727 95.0867 132.283 94.4946C131.889 93.9518 131.642 93.1623 131.642 92.1755C131.642 91.2873 131.839 90.5472 132.185 89.9057C132.53 89.2643 133.023 88.7215 133.616 88.3268C134.208 87.9321 134.849 87.5867 135.639 87.4386C136.379 87.2413 137.168 87.1426 137.958 87.1426C138.994 87.1426 140.03 87.3399 141.066 87.6853C142.102 88.0307 142.892 88.6722 143.533 89.511L140.819 91.8301Z" fill="#1E2435"/>
<path d="M161.147 103.13H157.446V100.613H157.397C157.051 101.403 156.459 102.094 155.719 102.636C154.979 103.228 153.943 103.475 152.61 103.475C151.574 103.475 150.686 103.327 149.946 102.982C149.206 102.636 148.614 102.192 148.17 101.6C147.726 101.008 147.38 100.367 147.183 99.6264C146.985 98.8863 146.887 98.0968 146.887 97.3074V87.4883H150.785V95.383C150.785 95.8271 150.785 96.3205 150.834 96.8139C150.883 97.3567 150.982 97.8501 151.179 98.2942C151.377 98.7383 151.624 99.133 152.018 99.4784C152.413 99.7745 152.956 99.9718 153.647 99.9718C154.288 99.9718 154.831 99.8731 155.275 99.6264C155.719 99.4291 156.064 99.133 156.36 98.7383C156.656 98.3929 156.854 97.9488 157.002 97.4554C157.15 96.962 157.199 96.4685 157.199 95.9751V87.4883H161.097V103.13H161.147Z" fill="#1E2435"/>
<path d="M165.588 87.4885H169.486V89.9556H169.536C169.98 89.0674 170.572 88.3273 171.411 87.8339C172.2 87.3405 173.138 87.0938 174.174 87.0938C174.421 87.0938 174.667 87.0937 174.865 87.1431C175.111 87.1924 175.309 87.2418 175.556 87.2911V91.0411C175.21 90.9424 174.914 90.8931 174.618 90.8437C174.322 90.7944 173.977 90.7451 173.681 90.7451C172.792 90.7451 172.052 90.8931 171.46 91.2385C170.917 91.5839 170.473 91.9786 170.177 92.3734C169.881 92.8174 169.684 93.2615 169.585 93.6562C169.486 94.1003 169.437 94.3964 169.437 94.6431V102.982H165.539V87.4885H165.588Z" fill="#1E2435"/>
<path d="M179.899 96.0733C179.948 96.8134 180.145 97.5536 180.441 98.2443C180.737 98.9351 181.132 99.4779 181.626 99.9713C182.119 100.465 182.711 100.859 183.353 101.106C183.994 101.402 184.685 101.55 185.474 101.55C186.609 101.55 187.596 101.304 188.435 100.761C189.274 100.218 189.915 99.6259 190.359 98.9351L192.037 100.317C191.149 101.452 190.112 102.29 189.027 102.784C187.941 103.277 186.757 103.524 185.474 103.524C184.339 103.524 183.303 103.327 182.316 102.932C181.33 102.537 180.54 101.994 179.849 101.254C179.159 100.514 178.616 99.6753 178.221 98.7378C177.826 97.7509 177.629 96.7147 177.629 95.5305C177.629 94.3957 177.826 93.3101 178.221 92.3233C178.616 91.3365 179.159 90.4976 179.849 89.8068C180.54 89.0667 181.379 88.524 182.267 88.1292C183.205 87.7345 184.191 87.5371 185.277 87.5371C186.412 87.5371 187.448 87.7345 188.385 88.1786C189.274 88.5733 190.063 89.1161 190.655 89.8068C191.297 90.4976 191.741 91.2871 192.086 92.2246C192.432 93.1621 192.58 94.149 192.58 95.1851V96.172H179.899V96.0733ZM190.211 94.3463C190.211 92.9154 189.767 91.7312 188.928 90.7937C188.04 89.9055 186.856 89.4615 185.277 89.4615C184.586 89.4615 183.895 89.6095 183.254 89.8562C182.612 90.1522 182.02 90.4976 181.527 90.9417C181.034 91.3858 180.639 91.9286 180.343 92.5207C180.047 93.1128 179.899 93.7049 179.899 94.3463H190.211Z" fill="#1E2435"/>
<path d="M198.5 87.8825C198.55 88.2772 198.55 88.7213 198.599 89.1161C198.599 89.5108 198.599 89.9055 198.599 90.3496H198.648C198.895 89.9549 199.191 89.5601 199.536 89.2147C199.882 88.8693 200.326 88.5733 200.77 88.3266C201.214 88.0799 201.707 87.8825 202.201 87.7345C202.694 87.5865 203.237 87.5371 203.73 87.5371C205.704 87.5371 207.135 88.0305 208.073 89.0667C209.01 90.1029 209.454 91.5832 209.454 93.4582V103.129H207.283V94.6917C207.283 93.0141 206.987 91.6818 206.395 90.7937C205.803 89.9055 204.717 89.4615 203.138 89.4615C203.04 89.4615 202.744 89.5108 202.25 89.6095C201.757 89.7082 201.214 89.9549 200.671 90.3496C200.128 90.7443 199.635 91.3365 199.191 92.1259C198.747 92.9154 198.55 94.0009 198.55 95.3825V103.179H196.378V91.2378C196.378 90.843 196.379 90.3003 196.329 89.6588C196.28 89.0174 196.28 88.4253 196.23 87.8825H198.5Z" fill="#1E2435"/>
<path d="M216.067 96.0733C216.116 96.8134 216.313 97.5536 216.609 98.2443C216.905 98.9351 217.3 99.4779 217.794 99.9713C218.287 100.465 218.879 100.859 219.521 101.106C220.162 101.402 220.853 101.55 221.642 101.55C222.777 101.55 223.764 101.304 224.603 100.761C225.442 100.218 226.083 99.6259 226.527 98.9351L228.205 100.317C227.317 101.452 226.28 102.29 225.195 102.784C224.109 103.277 222.925 103.524 221.642 103.524C220.507 103.524 219.471 103.327 218.484 102.932C217.498 102.537 216.708 101.994 216.017 101.254C215.326 100.514 214.784 99.6753 214.389 98.7378C213.994 97.7509 213.797 96.7147 213.797 95.5305C213.797 94.3957 213.994 93.3101 214.389 92.3233C214.784 91.3365 215.326 90.4976 216.017 89.8068C216.708 89.0667 217.547 88.524 218.435 88.1292C219.373 87.7345 220.359 87.5371 221.445 87.5371C222.58 87.5371 223.616 87.7345 224.553 88.1786C225.442 88.5733 226.231 89.1161 226.823 89.8068C227.465 90.4976 227.909 91.2871 228.254 92.2246C228.6 93.1621 228.748 94.149 228.748 95.1851V96.172H216.067V96.0733ZM226.379 94.3463C226.379 92.9154 225.935 91.7312 225.096 90.7937C224.208 89.9055 223.024 89.4615 221.445 89.4615C220.754 89.4615 220.063 89.6095 219.422 89.8562C218.78 90.1522 218.188 90.4976 217.695 90.9417C217.201 91.3858 216.807 91.9286 216.511 92.5207C216.215 93.1128 216.067 93.7049 216.067 94.3463H226.379Z" fill="#1E2435"/>
<path d="M232.89 92.6199C232.89 91.9291 232.89 91.2877 232.841 90.5475C232.792 89.8568 232.792 88.9686 232.742 87.8337H234.864V90.6462H234.913C235.061 90.2515 235.259 89.8568 235.555 89.462C235.851 89.0673 236.196 88.7219 236.591 88.4258C236.986 88.1298 237.479 87.8831 237.972 87.6857C238.515 87.4883 239.107 87.3896 239.798 87.3896C240.39 87.3896 240.933 87.439 241.377 87.587L240.933 89.7087C240.637 89.61 240.242 89.5607 239.699 89.5607C238.861 89.5607 238.17 89.7087 237.578 90.0541C236.986 90.3502 236.492 90.7943 236.097 91.2383C235.703 91.7318 235.407 92.2745 235.259 92.8173C235.061 93.36 234.963 93.9028 234.963 94.4456V103.031H232.792V92.6199H232.89Z" fill="#1E2435"/>
<path d="M244.044 106.189C244.685 107.028 245.475 107.719 246.511 108.212C247.498 108.705 248.633 108.952 249.866 108.952C250.952 108.952 251.889 108.804 252.63 108.459C253.37 108.163 254.011 107.719 254.455 107.176C254.899 106.633 255.245 105.992 255.442 105.251C255.639 104.511 255.738 103.771 255.738 102.932V100.219H255.689C254.998 101.255 254.159 101.995 253.172 102.439C252.185 102.883 251.1 103.08 250.014 103.08C248.929 103.08 247.893 102.883 246.906 102.488C245.919 102.094 245.08 101.551 244.389 100.86C243.649 100.169 243.107 99.3798 242.712 98.3929C242.317 97.4554 242.07 96.4193 242.07 95.2844C242.07 94.1989 242.268 93.1627 242.662 92.1758C243.057 91.2383 243.6 90.3995 244.291 89.6594C244.981 88.9193 245.771 88.3765 246.708 87.9818C247.646 87.587 248.682 87.3896 249.817 87.3896C250.261 87.3896 250.755 87.439 251.248 87.5377C251.741 87.6364 252.284 87.7844 252.778 87.9818C253.271 88.1791 253.814 88.4752 254.307 88.8699C254.801 89.2646 255.294 89.7087 255.689 90.3008H255.738V87.7844H257.909V102.883C257.909 103.722 257.81 104.61 257.613 105.498C257.416 106.436 257.021 107.275 256.429 108.064C255.837 108.853 254.998 109.495 253.962 110.038C252.876 110.58 251.495 110.827 249.817 110.827C248.287 110.827 246.955 110.58 245.771 110.087C244.587 109.594 243.501 108.804 242.514 107.768L244.044 106.189ZM244.439 95.3337C244.439 96.1232 244.587 96.9127 244.883 97.6035C245.179 98.2943 245.574 98.9357 246.067 99.4785C246.56 100.021 247.153 100.416 247.843 100.761C248.534 101.057 249.274 101.255 250.064 101.255C250.853 101.255 251.593 101.107 252.284 100.811C252.975 100.515 253.616 100.12 254.159 99.6265C254.702 99.1331 255.097 98.4916 255.393 97.8008C255.689 97.0607 255.837 96.2712 255.787 95.3831C255.787 94.5936 255.639 93.8041 255.393 93.1133C255.146 92.4225 254.751 91.7811 254.258 91.2383C253.764 90.6956 253.172 90.3008 252.432 89.9554C251.692 89.6594 250.903 89.462 250.014 89.462C249.225 89.462 248.485 89.61 247.794 89.9554C247.103 90.2515 246.511 90.6956 246.018 91.2383C245.524 91.7811 245.13 92.3732 244.833 93.1133C244.587 93.7548 244.439 94.4949 244.439 95.3337Z" fill="#1E2435"/>
<path d="M268.418 100.466L273.056 87.8833H275.671L268.073 107.077C267.628 108.262 267.036 109.199 266.346 109.89C265.655 110.581 264.619 110.926 263.286 110.926C262.941 110.926 262.645 110.926 262.3 110.877C261.954 110.877 261.609 110.778 261.313 110.679L261.559 108.607C262.003 108.854 262.546 108.952 263.188 108.952C263.928 108.952 264.52 108.706 264.964 108.212C265.408 107.719 265.753 107.077 266.099 106.189L267.184 103.278L260.918 87.834H263.632L268.418 100.466Z" fill="#1E2435"/>
<path d="M63.898 92.7186C68.6842 90.6956 72.0888 85.9094 72.0888 80.3831C72.0888 72.9818 66.0691 66.9621 58.6678 66.9621H39.0789C38.5855 65.6792 37.352 64.791 35.9211 64.791C34.0461 64.791 32.5164 66.3206 32.5164 68.1956C32.5164 70.0706 34.0461 71.6002 35.9211 71.6002C37.5 71.6002 38.7829 70.5147 39.1776 69.0838H58.6184C64.8849 69.0838 69.9178 74.166 69.9178 80.3831C69.9178 86.6002 64.8355 91.6825 58.6184 91.6825H52.7467H51.4638H38.2401H36.2664C33.4539 91.6825 31.1349 89.4127 31.1349 86.5509C31.1349 83.7384 33.4046 81.4193 36.2664 81.4193H54.375C54.8191 82.8009 56.102 83.7877 57.5822 83.7877C59.4572 83.7877 60.9868 82.2581 60.9868 80.3831C60.9868 78.5081 59.4572 76.9785 57.5822 76.9785C56.0526 76.9785 54.8191 77.9654 54.375 79.3469H36.2664C32.2697 79.3469 29.0132 82.6035 29.0132 86.6002C29.0132 90.1529 31.5789 93.1134 34.9342 93.7055V93.8042H36.2171H38.1908H51.4145C54.227 93.8042 56.5461 96.0739 56.5461 98.9357C56.5461 101.748 54.2763 104.067 51.4145 104.067H30.9868C30.5428 102.686 29.2599 101.699 27.7796 101.699C25.9046 101.699 24.375 103.229 24.375 105.104C24.375 106.979 25.9046 108.508 27.7796 108.508C29.3092 108.508 30.5428 107.521 30.9868 106.14H51.4638C55.4605 106.14 58.7171 102.883 58.7171 98.8864C58.7171 96.9127 57.9276 95.0871 56.5954 93.7548H58.6678C64.8849 93.8042 69.9178 98.8864 69.9178 105.104C69.9178 111.321 64.8355 116.403 58.6184 116.403H39.1283C38.6842 115.021 37.4013 114.034 35.9211 114.034C34.0461 114.034 32.5164 115.564 32.5164 117.439C32.5164 119.314 34.0461 120.844 35.9211 120.844C37.4507 120.844 38.6842 119.857 39.1283 118.475H58.6184C66.0197 118.475 72.0395 112.455 72.0395 105.054C72.0395 99.5279 68.6842 94.791 63.898 92.7186ZM35.9211 69.4785C35.2303 69.4785 34.6382 68.8864 34.6382 68.1956C34.6382 67.5048 35.2303 66.9127 35.9211 66.9127C36.6118 66.9127 37.2039 67.5048 37.2039 68.1956C37.2039 68.8864 36.6118 69.4785 35.9211 69.4785ZM57.6316 79.1002C58.3224 79.1002 58.9145 79.6923 58.9145 80.3831C58.9145 81.0739 58.3224 81.666 57.6316 81.666C56.9408 81.666 56.3487 81.0739 56.3487 80.3831C56.3487 79.6923 56.9408 79.1002 57.6316 79.1002ZM27.7796 106.386C27.0888 106.386 26.4967 105.794 26.4967 105.104C26.4967 104.413 27.0888 103.821 27.7796 103.821C28.4704 103.821 29.0625 104.413 29.0625 105.104C29.0625 105.794 28.4704 106.386 27.7796 106.386ZM35.9211 118.722C35.2303 118.722 34.6382 118.13 34.6382 117.439C34.6382 116.748 35.2303 116.156 35.9211 116.156C36.6118 116.156 37.2039 116.748 37.2039 117.439C37.2039 118.13 36.6118 118.722 35.9211 118.722Z" fill="#1E2435"/>
</svg>
