<svg width="300" height="186" viewBox="0 0 300 186" fill="none" xmlns="http://www.w3.org/2000/svg">
<rect width="300" height="185.635" fill="#EEF1F6"/>
<g clip-path="url(#clip0_1583_156)">
<path d="M129.317 78.5703L111.224 78.5995C107.421 78.5995 104.461 81.8625 104.422 85.6223V101.012C104.422 104.733 107.334 107.869 111.069 107.957L123.25 107.898L123.231 116.401C123.231 116.957 122.709 117.317 122.205 117.337H105.776V123.317H123.192C126.675 122.811 129.307 119.927 129.307 116.294V78.5703H129.317ZM123.366 100.885C123.366 101.401 122.97 101.762 122.467 101.879L111.33 101.85C110.914 101.85 110.508 101.314 110.508 100.905V85.5249C110.556 85.0476 110.904 84.5606 111.427 84.5606L123.386 84.5411V100.876L123.366 100.885Z" fill="#1E2435"/>
<path d="M57.1172 107.733V87.3662L63.0579 81.3467L63.0676 107.733H57.1172Z" fill="#1E2435"/>
<path d="M144.215 101.869C143.635 101.82 143.306 101.382 143.306 100.768V96.2586H155.41C159.212 96.132 162.134 93.0346 162.125 89.2164V78.5605L144.109 78.5898C140.239 78.5898 137.326 81.8917 137.336 85.7294L137.384 101.187C137.394 104.83 140.432 107.703 144.002 107.85H161.757L161.747 101.869H144.215ZM143.306 85.4274C143.422 84.9696 143.731 84.6287 144.206 84.5508H156.174V89.3041C156.048 89.7424 155.748 90.0735 155.236 90.1612H143.296V85.4274H143.306Z" fill="#1E2435"/>
<path d="M188.87 84.6677H177.201C176.572 84.658 176.088 84.9892 176.001 85.632V107.986H170.051V85.7294C170.032 81.8236 173.108 78.5801 177.017 78.5801H194.82V107.986H188.87V84.6677Z" fill="#1E2435"/>
<path d="M90.5569 84.5508H78.6077C78.0659 84.5606 77.7175 85.0768 77.6692 85.5736V107.85H71.7188V85.5346C71.7478 81.8138 74.6601 78.5995 78.4142 78.5995L96.4977 78.5703V107.859H90.5472V84.5508H90.5569Z" fill="#1E2435"/>
<path d="M203.477 107.733V87.4342L209.417 81.3076L209.427 107.733H203.477Z" fill="#1E2435"/>
<path d="M63.0192 78.3174L57.1172 84.3563V78.3174H63.0192Z" fill="#1E2435"/>
<path d="M209.398 78.3174L203.496 84.4148L203.506 78.3174H209.398Z" fill="#1E2435"/>
<path d="M236.887 101.879C236.965 101.879 237.023 101.811 236.984 101.674V78.619L242.78 78.6093V107.869L224.706 107.82C221.097 107.82 218.281 104.762 218.098 101.207V78.5801H224.048V100.973C224.164 101.499 224.551 101.879 225.093 101.879H236.887Z" fill="#1E2435"/>
</g>
<defs>
<clipPath id="clip0_1583_156">
<rect width="185.769" height="45" fill="white" transform="translate(57.1172 78.3174)"/>
</clipPath>
</defs>
</svg>
