<svg width="300" height="186" viewBox="0 0 300 186" fill="none" xmlns="http://www.w3.org/2000/svg">
<path d="M35.9209 64.791C37.3518 64.7911 38.5857 65.6791 39.0791 66.9619H58.668C66.069 66.9622 72.0887 72.9818 72.0889 80.3828C72.0889 85.9091 68.6836 90.6957 63.8975 92.7188C68.6836 94.7911 72.0391 99.5284 72.0391 105.055C72.0388 112.456 66.0193 118.476 58.6182 118.476H39.1279C38.6838 119.857 37.4503 120.844 35.9209 120.844C34.046 120.844 32.5168 119.314 32.5166 117.439C32.5166 115.564 34.0459 114.034 35.9209 114.034C37.4011 114.034 38.6839 115.022 39.1279 116.403H58.6182C64.8353 116.403 69.918 111.321 69.918 105.104C69.9179 98.8866 64.8848 93.8045 58.668 93.7549H56.5947C57.927 95.0871 58.7168 96.913 58.7168 98.8867C58.7167 102.883 55.4604 106.139 51.4639 106.14H30.9863C30.5422 107.521 29.3089 108.508 27.7793 108.508C25.9043 108.508 24.375 106.978 24.375 105.104C24.375 103.229 25.9043 101.699 27.7793 101.699C29.2595 101.699 30.5422 102.686 30.9863 104.067H51.4141C54.2759 104.067 56.5459 101.748 56.5459 98.9355C56.5458 96.0738 54.2265 93.8047 51.4141 93.8047H34.9336V93.7051C31.5786 93.1128 29.0128 90.1529 29.0127 86.6006C29.0127 82.6039 32.2699 79.3467 36.2666 79.3467H54.375C54.8192 77.9653 56.0526 76.9785 57.582 76.9785C59.4569 76.9785 60.9861 78.508 60.9863 80.3828C60.9863 82.2578 59.457 83.7881 57.582 83.7881C56.1018 83.7881 54.8191 82.8005 54.375 81.4189H36.2666C33.4048 81.4189 31.1348 83.7383 31.1348 86.5508C31.1348 89.4126 33.4541 91.6826 36.2666 91.6826H58.6182C64.8353 91.6826 69.918 86.5999 69.918 80.3828C69.9178 74.1659 64.8845 69.084 58.6182 69.084H39.1777C38.783 70.5148 37.4998 71.6005 35.9209 71.6006C34.0459 71.6006 32.5166 70.0703 32.5166 68.1953C32.5168 66.3205 34.046 64.791 35.9209 64.791ZM35.9209 116.156C35.2301 116.156 34.6377 116.749 34.6377 117.439C34.6379 118.13 35.2302 118.722 35.9209 118.722C36.6115 118.722 37.2039 118.13 37.2041 117.439C37.2041 116.749 36.6116 116.156 35.9209 116.156ZM268.421 100.466L273.059 87.8828H275.674L268.075 107.077C267.631 108.261 267.039 109.199 266.349 109.89C265.658 110.58 264.621 110.926 263.289 110.926C262.944 110.926 262.648 110.926 262.303 110.877C261.957 110.877 261.611 110.778 261.315 110.68L261.562 108.606C262.007 108.853 262.549 108.952 263.19 108.952C263.931 108.952 264.523 108.705 264.967 108.212C265.411 107.719 265.756 107.077 266.102 106.189L267.188 103.278L260.921 87.834H263.635L268.421 100.466ZM119.654 87.3896C120.098 87.3896 120.592 87.4394 121.085 87.5381C121.578 87.6368 122.122 87.7841 122.615 87.9814C123.109 88.1788 123.651 88.4754 124.145 88.8701C124.638 89.2648 125.132 89.7087 125.526 90.3008H125.575V87.7842H127.746V102.883C127.746 103.722 127.648 104.61 127.45 105.498C127.253 106.436 126.859 107.275 126.267 108.064C125.674 108.854 124.835 109.495 123.799 110.038C122.713 110.581 121.332 110.827 119.654 110.827C118.125 110.827 116.793 110.58 115.608 110.087C114.424 109.593 113.338 108.804 112.352 107.768L113.881 106.189C114.522 107.028 115.312 107.718 116.349 108.212C117.335 108.705 118.471 108.952 119.704 108.952C120.789 108.952 121.727 108.804 122.467 108.459C123.207 108.163 123.849 107.719 124.293 107.176C124.737 106.633 125.082 105.992 125.279 105.252C125.477 104.512 125.575 103.771 125.575 102.933V100.219H125.526C124.836 101.255 123.997 101.995 123.01 102.439C122.023 102.884 120.937 103.08 119.852 103.08C118.766 103.08 117.73 102.883 116.743 102.488C115.756 102.094 114.917 101.551 114.227 100.86C113.486 100.17 112.944 99.3794 112.549 98.3926C112.154 97.4552 111.907 96.4189 111.907 95.2842C111.907 94.1988 112.105 93.1625 112.5 92.1758C112.895 91.2384 113.437 90.3993 114.128 89.6592C114.819 88.9191 115.608 88.3762 116.546 87.9814C117.483 87.5868 118.52 87.3897 119.654 87.3896ZM249.818 87.3896C250.262 87.3896 250.757 87.4394 251.25 87.5381C251.743 87.6368 252.286 87.7842 252.779 87.9814C253.273 88.1788 253.815 88.4755 254.309 88.8701C254.802 89.2648 255.296 89.7088 255.69 90.3008H255.74V87.7842H257.911V102.883C257.911 103.722 257.813 104.61 257.615 105.498C257.418 106.436 257.023 107.275 256.431 108.064C255.839 108.854 255 109.495 253.964 110.038C252.878 110.581 251.496 110.827 249.818 110.827C248.289 110.827 246.957 110.58 245.772 110.087C244.588 109.593 243.503 108.804 242.517 107.768L244.046 106.189C244.687 107.028 245.477 107.719 246.513 108.212C247.5 108.705 248.635 108.952 249.868 108.952C250.953 108.952 251.891 108.804 252.631 108.459C253.371 108.163 254.013 107.719 254.457 107.176C254.901 106.633 255.246 105.992 255.443 105.252C255.641 104.512 255.74 103.771 255.74 102.933V100.219H255.69C255 101.255 254.161 101.995 253.174 102.439C252.187 102.883 251.102 103.08 250.017 103.08C248.931 103.08 247.894 102.883 246.907 102.488C245.921 102.094 245.082 101.551 244.392 100.86C243.651 100.17 243.109 99.3794 242.714 98.3926C242.319 97.4552 242.072 96.4189 242.072 95.2842C242.072 94.1988 242.269 93.1625 242.664 92.1758C243.059 91.2383 243.602 90.3993 244.293 89.6592C244.984 88.9193 245.773 88.3761 246.71 87.9814C247.647 87.5868 248.684 87.3897 249.818 87.3896ZM27.7793 103.82C27.0885 103.82 26.4961 104.413 26.4961 105.104C26.4961 105.794 27.0885 106.387 27.7793 106.387C28.4701 106.387 29.0625 105.794 29.0625 105.104C29.0625 104.413 28.4701 103.82 27.7793 103.82ZM137.96 87.1426C138.996 87.1426 140.032 87.3403 141.068 87.6855C142.105 88.0309 142.895 88.6729 143.536 89.5117L140.822 91.8301C140.082 90.7447 139.045 90.252 137.763 90.252C137.22 90.252 136.727 90.3998 136.233 90.6465C135.74 90.8932 135.493 91.3376 135.493 91.9297C135.493 92.4229 135.691 92.7685 136.135 92.9658C136.529 93.1631 137.073 93.3598 137.714 93.5078C138.355 93.6558 138.996 93.8046 139.736 94.002C140.476 94.15 141.118 94.3968 141.76 94.7422C142.401 95.0876 142.895 95.531 143.339 96.123C143.734 96.7151 143.98 97.5049 143.98 98.541C143.98 99.4785 143.782 100.268 143.388 100.909C142.993 101.551 142.45 102.045 141.809 102.439C141.167 102.834 140.427 103.13 139.638 103.278C138.848 103.476 138.009 103.524 137.22 103.524C135.986 103.524 134.901 103.327 133.865 102.981C132.829 102.636 131.941 101.995 131.151 101.106L133.767 98.6895C134.26 99.232 134.803 99.725 135.395 100.07C135.987 100.416 136.678 100.613 137.517 100.613C137.813 100.613 138.108 100.564 138.404 100.515C138.7 100.465 138.996 100.317 139.243 100.169C139.49 100.021 139.737 99.8238 139.885 99.5771C140.033 99.3306 140.131 99.0839 140.131 98.7881C140.131 98.2454 139.934 97.8502 139.49 97.6035C139.096 97.3568 138.553 97.1099 137.911 96.9619C137.27 96.8139 136.628 96.6656 135.888 96.5176C135.148 96.3696 134.507 96.1724 133.865 95.8271C133.224 95.5311 132.73 95.0871 132.286 94.4951C131.891 93.9524 131.645 93.1626 131.645 92.1758C131.645 91.2877 131.842 90.5477 132.188 89.9062C132.533 89.2648 133.026 88.7219 133.618 88.3271C134.21 87.9324 134.852 87.5875 135.642 87.4395C136.382 87.2422 137.171 87.1426 137.96 87.1426ZM185.279 87.5381C186.414 87.5381 187.45 87.7356 188.388 88.1797C189.276 88.5744 190.065 89.1169 190.657 89.8076C191.299 90.4984 191.743 91.2881 192.089 92.2256C192.434 93.1629 192.582 94.1496 192.582 95.1855V96.1729H179.91C179.97 96.8798 180.161 97.5852 180.443 98.2451C180.739 98.9358 181.135 99.4783 181.628 99.9717C182.121 100.465 182.714 100.86 183.355 101.106C183.997 101.402 184.687 101.551 185.477 101.551C186.611 101.551 187.599 101.304 188.438 100.762C189.276 100.219 189.917 99.6263 190.361 98.9355L192.039 100.317C191.151 101.452 190.115 102.291 189.029 102.784C187.944 103.278 186.759 103.524 185.477 103.524C184.342 103.524 183.305 103.327 182.318 102.933C181.332 102.538 180.542 101.995 179.852 101.255C179.161 100.515 178.618 99.6758 178.224 98.7383C177.829 97.7515 177.631 96.7154 177.631 95.5312C177.631 94.3964 177.829 93.311 178.224 92.3242C178.618 91.3374 179.161 90.4984 179.852 89.8076C180.542 89.0675 181.381 88.5246 182.27 88.1299C183.207 87.7352 184.194 87.5381 185.279 87.5381ZM221.447 87.5381C222.582 87.5381 223.618 87.7356 224.556 88.1797C225.444 88.5744 226.233 89.1169 226.825 89.8076C227.467 90.4984 227.91 91.2881 228.256 92.2256C228.601 93.163 228.75 94.1495 228.75 95.1855V96.1729H216.077C216.137 96.8799 216.328 97.5851 216.611 98.2451C216.907 98.9359 217.303 99.4783 217.796 99.9717C218.289 100.465 218.881 100.86 219.522 101.106C220.164 101.402 220.855 101.551 221.645 101.551C222.779 101.551 223.767 101.304 224.605 100.762C225.444 100.219 226.085 99.6263 226.529 98.9355L228.207 100.317C227.319 101.452 226.283 102.291 225.197 102.784C224.112 103.278 222.927 103.524 221.645 103.524C220.51 103.524 219.473 103.327 218.486 102.933C217.5 102.538 216.71 101.995 216.02 101.255C215.329 100.515 214.786 99.6758 214.392 98.7383C213.997 97.7515 213.799 96.7154 213.799 95.5312C213.799 94.3964 213.997 93.311 214.392 92.3242C214.786 91.3374 215.329 90.4984 216.02 89.8076C216.71 89.0675 217.549 88.5246 218.438 88.1299C219.375 87.7352 220.362 87.5381 221.447 87.5381ZM150.789 95.3828C150.789 95.8269 150.79 96.321 150.839 96.8145C150.888 97.3569 150.986 97.8501 151.184 98.2939C151.381 98.7379 151.628 99.1332 152.022 99.4785C152.417 99.7746 152.961 99.9717 153.651 99.9717C154.293 99.9716 154.835 99.8735 155.279 99.627C155.723 99.4296 156.069 99.133 156.365 98.7383C156.661 98.3929 156.858 97.9484 157.006 97.4551C157.154 96.9619 157.204 96.4688 157.204 95.9756V87.4883H161.102V103.13H157.45V100.613H157.401C157.056 101.403 156.464 102.094 155.724 102.637C154.984 103.229 153.947 103.476 152.615 103.476C151.579 103.476 150.69 103.327 149.95 102.981C149.21 102.636 148.618 102.193 148.174 101.601C147.73 101.009 147.385 100.367 147.188 99.627C146.99 98.8869 146.892 98.0971 146.892 97.3076V87.4883H150.789V95.3828ZM203.733 87.5381C205.707 87.5381 207.138 88.0313 208.075 89.0674C209.013 90.1036 209.457 91.584 209.457 93.459V103.13H207.286V94.6924C207.286 93.0148 206.99 91.6821 206.397 90.7939C205.805 89.9062 204.72 89.462 203.142 89.4619C203.043 89.4619 202.746 89.5117 202.253 89.6104C201.76 89.7091 201.217 89.9559 200.674 90.3506C200.131 90.7453 199.637 91.3376 199.193 92.127C198.75 92.9163 198.553 94.0017 198.553 95.3828V103.18H196.381V91.2383C196.381 90.8436 196.381 90.3005 196.332 89.6592C196.283 89.0178 196.283 88.4255 196.233 87.8828H198.503C198.552 88.2775 198.552 88.7225 198.602 89.1172V90.3506H198.651C198.898 89.956 199.194 89.5611 199.539 89.2158C199.884 88.8705 200.328 88.5738 200.772 88.3271C201.217 88.0804 201.711 87.8834 202.204 87.7354C202.697 87.5874 203.24 87.5381 203.733 87.5381ZM92.0723 80.0869C93.0096 80.0869 93.947 80.1855 94.835 80.3828C95.7231 80.5802 96.5133 80.926 97.2041 81.3701C97.8947 81.8142 98.4369 82.4065 98.8809 83.1465C99.2756 83.8866 99.5225 84.7748 99.5225 85.8604C99.5224 87.0938 99.1771 88.1797 98.4863 89.1172C97.7955 90.0051 96.7593 90.597 95.4766 90.9424V90.9922C97.1049 91.1402 98.3882 91.6826 99.2764 92.7188C100.214 93.7056 100.657 95.0872 100.657 96.7646C100.657 97.11 100.559 97.6526 100.361 98.3926C100.164 99.1327 99.7693 99.8239 99.2266 100.515C98.6345 101.205 97.7955 101.847 96.71 102.341C95.6245 102.883 94.1443 103.13 92.2695 103.13H85.2139V80.0869H92.0723ZM107.565 103.13H105.395V87.8828H107.565V103.13ZM239.803 87.3896C240.394 87.3897 240.937 87.439 241.381 87.5869L240.938 89.709C240.642 89.6103 240.247 89.5606 239.704 89.5605C238.865 89.5605 238.174 89.7093 237.582 90.0547C236.99 90.3507 236.496 90.7942 236.102 91.2383C235.707 91.7317 235.411 92.2746 235.263 92.8174C235.065 93.36 234.967 93.9027 234.967 94.4453V103.031H232.796V92.6201H232.895C232.895 91.9294 232.894 91.2879 232.845 90.5479C232.795 89.8571 232.795 88.9688 232.746 87.834H234.868V90.6465H234.918C235.066 90.2518 235.263 89.8566 235.559 89.4619C235.855 89.0672 236.2 88.7218 236.595 88.4258C236.989 88.1297 237.483 87.8829 237.977 87.6855C238.519 87.4882 239.112 87.3896 239.803 87.3896ZM174.178 87.0938C174.424 87.0938 174.671 87.0933 174.868 87.1426C175.115 87.1919 175.312 87.2417 175.559 87.291V91.041C175.213 90.9424 174.917 90.8931 174.621 90.8438C174.325 90.7944 173.98 90.7451 173.684 90.7451C172.796 90.7452 172.056 90.8931 171.464 91.2383C170.921 91.5836 170.477 91.9784 170.181 92.373C169.885 92.8171 169.688 93.2615 169.589 93.6562C169.49 94.1001 169.44 94.396 169.44 94.6426V102.981H165.543V87.4883H169.49V89.9551H169.539C169.983 89.0671 170.575 88.3273 171.414 87.834C172.204 87.3406 173.142 87.0938 174.178 87.0938ZM119.852 89.4619C119.062 89.4619 118.322 89.6097 117.631 89.9551C116.94 90.2511 116.349 90.6957 115.855 91.2383C115.362 91.781 114.967 92.3732 114.671 93.1133C114.424 93.7547 114.276 94.4952 114.276 95.334C114.276 96.1233 114.424 96.9128 114.72 97.6035C115.016 98.2943 115.411 98.9358 115.904 99.4785C116.398 100.021 116.99 100.416 117.681 100.762C118.371 101.058 119.112 101.255 119.901 101.255C120.691 101.255 121.43 101.106 122.121 100.811C122.812 100.515 123.453 100.12 123.996 99.627C124.539 99.1335 124.934 98.4916 125.23 97.8008C125.526 97.0607 125.674 96.2709 125.625 95.3828C125.625 94.5935 125.477 93.804 125.23 93.1133C124.984 92.4225 124.588 91.781 124.095 91.2383C123.601 90.6957 123.01 90.3004 122.27 89.9551C121.529 89.6591 120.74 89.4619 119.852 89.4619ZM250.017 89.4619C249.227 89.4619 248.487 89.6098 247.796 89.9551C247.105 90.2511 246.513 90.6956 246.02 91.2383C245.526 91.781 245.131 92.3732 244.835 93.1133C244.588 93.7547 244.44 94.4952 244.44 95.334C244.44 96.1234 244.589 96.9128 244.885 97.6035C245.181 98.2942 245.575 98.9358 246.068 99.4785C246.562 100.021 247.154 100.416 247.845 100.762C248.535 101.058 249.276 101.255 250.065 101.255C250.855 101.255 251.595 101.107 252.286 100.811C252.977 100.515 253.618 100.12 254.161 99.627C254.704 99.1335 255.098 98.4916 255.395 97.8008C255.691 97.0607 255.838 96.2709 255.789 95.3828C255.789 94.5935 255.641 93.804 255.395 93.1133C255.148 92.4225 254.753 91.781 254.26 91.2383C253.766 90.6955 253.174 90.3005 252.434 89.9551C251.694 89.6592 250.904 89.462 250.017 89.4619ZM87.5322 100.959H92.0225C92.8613 100.959 93.6515 100.86 94.3916 100.712C95.1315 100.515 95.7728 100.268 96.3154 99.9229C96.8581 99.5775 97.3026 99.1335 97.5986 98.5908C97.8946 98.0482 98.0917 97.4064 98.0918 96.6172C98.0918 95.0876 97.5982 93.952 96.6113 93.2119C95.6245 92.4719 94.1932 92.127 92.3184 92.127H87.5322V100.959ZM185.279 89.4619C184.589 89.4619 183.897 89.6097 183.256 89.8564C182.615 90.1525 182.023 90.4984 181.529 90.9424C181.036 91.3865 180.641 91.9294 180.345 92.5215C180.049 93.1134 179.901 93.7055 179.901 94.3467H190.214C190.214 92.9159 189.769 91.7314 188.931 90.7939C188.043 89.9059 186.858 89.4619 185.279 89.4619ZM221.447 89.4619C220.756 89.4619 220.065 89.6097 219.424 89.8564C218.782 90.1525 218.191 90.4984 217.697 90.9424C217.204 91.3865 216.809 91.9294 216.513 92.5215C216.217 93.1134 216.068 93.7054 216.068 94.3467H226.381C226.381 92.9159 225.937 91.7314 225.099 90.7939C224.211 89.9059 223.026 89.4619 221.447 89.4619ZM87.582 90.1533H92.2695C92.8123 90.1533 93.4045 90.1031 93.9473 89.9551C94.4899 89.807 94.9837 89.5607 95.4277 89.2646C95.8716 88.9193 96.2167 88.5245 96.5127 88.0312C96.8087 87.5378 96.957 86.8964 96.957 86.1562C96.957 85.9095 96.9073 85.5637 96.8086 85.1689C96.7099 84.7252 96.513 84.2812 96.168 83.8867C95.8226 83.4427 95.3288 83.0973 94.6875 82.752C94.0461 82.4559 93.1577 82.2578 92.0723 82.2578H87.582V90.1533ZM106.48 80.4814C106.875 80.4816 107.22 80.6299 107.565 80.9258C107.861 81.2218 108.059 81.5673 108.059 82.0605C108.059 82.5046 107.911 82.8993 107.565 83.1953C107.22 83.4913 106.875 83.6395 106.48 83.6396C106.086 83.6396 105.74 83.4914 105.395 83.1953C105.049 82.8993 104.901 82.5046 104.901 82.0605C104.901 81.6166 105.049 81.2218 105.395 80.9258C105.74 80.6298 106.086 80.4814 106.48 80.4814ZM57.6309 79.1006C56.9404 79.1009 56.3488 79.6923 56.3486 80.3828C56.3486 81.0734 56.9403 81.6658 57.6309 81.666C58.3216 81.666 58.9141 81.0736 58.9141 80.3828C58.9139 79.6922 58.3215 79.1006 57.6309 79.1006ZM35.9209 66.9131C35.2302 66.9131 34.6379 67.5047 34.6377 68.1953C34.6377 68.8861 35.2301 69.4785 35.9209 69.4785C36.6116 69.4785 37.2041 68.8861 37.2041 68.1953C37.2039 67.5047 36.6115 66.9131 35.9209 66.9131Z" fill="#1E2435"/>
</svg>
