<svg width="300" height="186" viewBox="0 0 300 186" fill="none" xmlns="http://www.w3.org/2000/svg">
<rect width="300" height="185.635" fill="#EEF1F6"/>
<path d="M164.694 100.018C164.596 98.023 164.548 95.5906 164.548 93.1582H164.45C163.915 95.2987 163.234 97.6338 162.553 99.5798L160.51 106.05H157.494L155.694 99.6284C155.159 97.6825 154.575 95.2987 154.137 93.1582H154.088C153.991 95.396 153.894 97.9744 153.796 100.066L153.504 106.391H149.953L151.023 89.7527H156.132L157.786 95.2987C158.321 97.2446 158.856 99.2879 159.245 101.234H159.342C159.829 99.2879 160.413 97.0987 160.948 95.25L162.748 89.7041H167.759L168.683 106.342H164.937L164.694 100.018Z" fill="#1E2435"/>
<path d="M175.541 102.109L174.325 106.39H170.336L175.541 89.752H180.601L185.855 106.39H181.72L180.406 102.109H175.541ZM179.871 99.2871L178.801 95.7357C178.509 94.7628 178.217 93.4979 177.925 92.5249H177.876C177.633 93.4979 177.39 94.7628 177.098 95.7357L176.076 99.2871H179.871Z" fill="#1E2435"/>
<path d="M188.141 89.947C189.357 89.7524 191.205 89.6064 193.249 89.6064C195.778 89.6064 197.53 89.9956 198.746 90.92C199.768 91.6983 200.303 92.8659 200.303 94.4227C200.303 96.5632 198.746 98.0227 197.287 98.5091V98.6064C198.454 99.0929 199.135 100.163 199.573 101.72C200.108 103.617 200.643 105.758 200.984 106.39H197.043C196.751 105.904 196.362 104.542 195.876 102.498C195.438 100.406 194.708 99.8713 193.151 99.8227H191.984V106.342H188.189V89.947H188.141ZM191.935 97.0983H193.443C195.341 97.0983 196.508 96.174 196.508 94.7146C196.508 93.2064 195.438 92.4281 193.687 92.3794C192.762 92.3794 192.227 92.4767 191.935 92.5254V97.0983Z" fill="#1E2435"/>
<path d="M203.078 89.7527H206.873V97.0987H206.97C207.359 96.4663 207.748 95.8825 208.138 95.25L211.981 89.7041H216.7L211.057 96.8068L216.992 106.342H212.516L208.332 99.1419L206.873 100.893V106.342H203.078V89.7527Z" fill="#1E2435"/>
<path d="M228.666 99.3357H222.39V103.276H229.396V106.341H218.547V89.752H229.055V92.8168H222.439V96.2709H228.714V99.3357H228.666Z" fill="#1E2435"/>
<path d="M235.428 92.9141H230.855V89.752H243.893V92.9141H239.272V106.39H235.428V92.9141Z" fill="#1E2435"/>
<path d="M129.325 99.9198C128.692 99.9198 128.157 100.26 127.622 100.601C127.427 100.698 127.233 100.795 127.038 100.893C126.454 101.136 125.725 101.428 125.384 100.941C125.043 100.406 125.725 99.9198 126.162 99.5306C128.157 97.7306 129.568 95.5414 130.346 92.963C130.443 92.5738 130.589 92.1847 130.395 91.7955C130.103 91.163 129.762 90.7252 128.984 91.163C128.157 91.6009 127.281 91.7955 126.406 91.7955C125.238 91.7955 124.8 91.163 125.287 90.1414C125.822 89.0225 126.406 87.9522 127.038 86.882C127.427 86.1522 127.233 85.7144 126.552 85.4225C125.725 85.082 124.897 84.7414 124.07 84.3036C123.292 83.9144 122.514 83.3792 121.638 82.8441C121.784 85.3252 121.735 87.6603 121.638 89.9468C121.443 95.2009 120.86 100.455 120.957 105.758C120.957 106.439 121.006 107.12 121.054 107.801C121.103 108.531 121.541 108.871 122.222 108.628C123.827 108.044 125.335 108.19 126.892 108.774C128.157 109.212 129.13 108.677 129.86 107.266C131.27 104.395 132.389 101.379 133.119 98.2171C134.287 93.3036 134.238 88.3901 133.07 83.4765C132.925 82.7955 132.633 82.163 132.389 81.5306C131.854 80.0225 132.341 78.9036 133.995 77.882C135.454 77.0063 136.427 77.1036 137.546 78.3198C139.395 80.363 139.979 82.8928 140.173 85.5198C140.611 90.7252 141 95.882 141.049 101.087C141.097 104.59 139.979 105.952 136.622 106.731C136.233 106.828 135.843 106.877 135.454 106.974C134.676 107.168 134.238 107.558 134.433 108.433C134.627 109.358 134.481 110.282 133.946 111.012C133.022 112.228 133.07 113.541 133.411 114.904C133.849 116.655 134.238 118.455 133.946 120.255C133.849 120.79 133.752 121.325 133.557 121.812C133.168 122.736 132.973 123.66 133.362 124.633C133.703 125.558 133.265 126.336 132.779 127.066C131.854 128.525 132.292 129.352 133.995 129.45C135.114 129.498 136.233 129.498 137.303 129.887C137.546 129.985 137.935 129.985 137.887 130.374C137.838 130.714 137.546 130.812 137.303 130.909C133.314 131.979 129.325 132.855 125.287 133.633C123.146 134.022 120.957 134.022 118.962 132.952C118.622 132.758 118.281 132.66 117.892 132.758C114.097 133.439 110.303 133.147 106.508 133.147C105.292 133.147 104.368 133.439 103.541 134.363C102.325 135.774 100.622 136.114 98.8705 136.017C95.3678 135.774 91.9137 136.26 88.4596 136.163C85.7353 136.066 83.4002 135.287 81.9407 132.806C81.6488 132.368 81.3083 132.077 80.7732 132.368C77.5137 134.266 73.9137 134.217 70.3137 134.168C67.0542 134.168 63.8434 133.925 60.6326 134.995C59.1732 135.482 57.7137 134.752 56.2542 134.509C55.6705 134.412 55.6705 132.806 56.2542 132.271C58.0056 130.568 59.8542 129.012 61.7515 127.504C65.4488 124.536 69.2434 121.714 72.8434 118.601C74.4975 117.141 75.9569 115.633 76.5894 113.444C77.0272 111.887 78.2434 110.914 79.8488 110.574C80.8218 110.331 81.5515 109.893 82.2326 109.212C86.2705 105.028 90.3569 100.893 94.4434 96.709C94.6867 96.4657 94.8813 96.2225 95.1245 95.9306C92.4002 94.8117 89.7245 93.6928 86.8056 93.4495C84.7137 93.3036 82.5245 90.2874 83.0597 88.3414C83.4488 86.9793 84.2759 86.0549 85.6867 85.8117C87.3894 85.5198 88.5569 84.5955 89.384 83.0874C91.1353 79.9252 93.4705 77.2009 96.3894 75.0603C96.6326 74.8657 96.9245 74.7198 96.9732 74.3306C97.1191 72.2387 98.3353 70.6333 99.6002 69.1252C100.622 67.909 101.643 66.6928 102.276 65.2333C102.616 64.4063 102.519 63.8711 101.692 63.336C99.2596 61.7792 98.4813 59.2009 97.7515 56.5738C97.2651 54.8225 97.7515 53.363 98.8705 52.0495C99.9407 50.736 101.4 50.0063 103.006 49.5684C105.049 48.9847 106.8 49.2765 108.357 50.8819C109.865 52.4387 111.276 54.0928 112.297 56.0387C112.735 56.8657 113.319 57.2063 114.292 57.1576C116.092 57.0117 117.016 57.5955 117.6 59.2982C117.843 60.0279 118.427 60.2225 118.914 60.709C117.406 61.1468 116.627 62.3144 115.946 63.5792C115.022 65.3792 114.584 67.3738 114.049 69.3198C113.708 70.536 111.86 71.7522 110.254 71.8495C109.038 71.8982 108.211 71.2171 107.627 69.6603C107.384 69.0279 107.238 68.3468 107.141 67.6657C106.946 66.5468 106.314 65.9144 105.049 65.6225C104.027 65.3792 103.395 65.8657 102.86 66.6928C101.595 68.736 101.206 70.9738 101.643 73.3576C101.741 73.7955 101.935 74.2333 102.179 74.6711C102.422 75.109 102.762 75.6441 103.297 75.5468C103.881 75.4495 103.784 74.8171 103.833 74.3792C104.027 72.5792 105.243 71.3144 106.265 69.9522C106.703 70.2928 106.752 70.8279 106.946 71.2657C107.579 72.7738 107.968 73.1144 109.622 72.9684C110.303 72.9198 110.984 72.7738 111.665 72.6765C114.097 72.2387 115.557 70.8279 115.946 68.2982C116.141 66.936 116.53 65.6225 116.968 64.309C117.941 61.4874 120.422 60.563 123.049 61.9252C124.606 62.7522 125.822 64.0171 126.843 65.4279C127.962 66.8874 129.033 68.3955 130.103 69.9036C130.735 70.8279 131.562 71.509 132.535 71.9955C135.065 73.2117 135.308 75.1576 133.119 76.9576C132.487 77.4928 131.757 77.9306 131.125 78.4171C130.395 78.9522 129.762 79.536 129.47 80.363C129.13 81.336 128.497 81.3847 127.67 81.0928C126.065 80.5576 124.8 79.4387 123.584 78.3198C123.341 78.0765 123.097 77.4928 122.708 77.8333C122.27 78.2225 122.076 78.8063 122.514 79.3901C122.611 79.4874 122.66 79.6333 122.806 79.7306C123.973 80.5576 125.092 81.482 126.406 82.1144C127.768 82.7468 128.984 82.5522 130.103 81.5793C130.346 81.336 130.638 81.1414 130.979 80.8009C131.854 82.9414 132.341 85.082 132.584 87.2711C133.265 94.1306 132.146 100.65 129.033 106.828C128.935 107.022 128.838 107.217 128.692 107.412C128.4 107.85 128.06 108.093 127.525 107.801C126.989 107.509 127.184 107.12 127.33 106.682C128.206 104.639 129.13 102.547 129.519 100.358C129.519 100.26 129.519 100.163 129.519 100.017C129.519 99.9198 129.519 99.8225 129.519 99.7738C129.422 99.8711 129.373 99.8711 129.325 99.9198ZM121.881 74.4279C125.384 72.5306 125.87 67.2279 122.708 64.7955C120.811 63.336 119.108 63.8711 118.184 66.0603C116.919 69.0279 116.481 72.336 115.022 75.2549C114.925 75.4495 114.779 75.5955 115.119 75.7901C115.654 76.0819 116.822 75.8387 117.065 75.2549C117.552 73.8928 118.573 72.9684 119.595 72.0441C120.568 71.1684 121.443 70.2441 121.735 68.8819C122.854 69.8549 123.292 71.0225 122.854 72.2387C122.611 72.9684 122.173 73.6009 121.784 74.2333C121.687 74.3306 121.589 74.4279 121.541 74.5252C121.589 74.6711 121.735 74.5738 121.881 74.4279ZM78.438 113.104C78.6813 113.298 78.8759 113.201 79.1191 113.152C80.2867 112.86 80.8218 113.395 80.4326 114.563C79.5569 117.044 79.8488 119.525 80.238 122.055C80.7732 125.363 81.9407 128.428 82.8651 131.639C83.2542 132.904 84.0813 133.779 85.2975 134.266C87.7299 135.239 90.211 135.287 92.7407 134.801C93.9083 134.606 94.2488 133.974 94.1029 132.758C94.0542 132.222 94.0056 131.687 94.1029 131.152C94.2975 129.401 94.4434 127.65 94.7353 125.898C94.9786 124.439 94.8326 122.979 94.9786 121.52C96.2921 122.639 96.4867 124.05 96.1461 125.46C95.6597 127.844 95.8056 130.228 95.8056 132.563C95.8056 133.925 96.584 134.606 97.9461 134.606C101.4 134.704 102.908 133.195 102.957 129.79C103.006 125.801 102.568 121.86 102.714 117.871C102.762 117.044 102.86 116.314 103.833 115.731C103.833 116.898 103.735 117.92 103.833 118.893C104.173 122.687 104.903 126.482 104.027 130.277C103.881 130.958 104.222 131.395 104.903 131.541C107.384 132.077 108.26 131.444 108.6 128.914C108.6 128.768 108.697 128.622 108.697 128.477C108.941 126.531 109.281 124.585 109.427 122.59C109.573 120.158 109.573 117.677 108.649 115.341C108.454 114.904 108.6 114.514 109.087 114.417C109.573 114.32 109.719 114.709 109.816 115.05C109.962 115.828 110.108 116.606 110.157 117.385C110.4 120.255 110.4 123.174 110.157 126.044C110.06 127.163 110.4 127.747 111.568 127.844C114.097 128.039 115.752 126.968 116.579 124.487C117.503 121.666 118.087 118.747 118.087 115.828C118.135 109.99 118.135 104.104 118.379 98.2657C118.476 96.1738 118.622 94.1306 118.914 92.0387C119.108 90.6765 119.595 89.3144 119.4 87.8549C119.352 87.6117 119.449 87.2711 119.157 87.1738C118.816 87.0279 118.768 87.4171 118.622 87.563C118.135 88.1955 117.649 88.8279 117.162 89.4603C115.654 91.4549 114.146 93.4495 111.957 94.7144C109.719 96.0279 107.968 97.682 107.481 100.358C107.335 101.233 106.752 101.768 105.973 101.866C104.076 102.158 102.227 102.012 100.719 100.601C99.8921 99.8711 99.3083 98.9468 98.5786 98.1198C97.5569 96.9522 96.584 96.8549 95.3678 97.7792C94.7353 98.2657 94.2488 98.8982 93.6651 99.4333C91.1353 102.06 88.5569 104.639 86.0759 107.314C84.4705 109.066 82.7678 110.72 80.6759 111.985C80.0434 112.422 79.1191 112.422 78.438 113.104ZM78.2434 115.828C74.011 119.72 69.6326 123.222 65.1569 126.725C62.8705 128.525 60.584 130.422 58.3461 132.271C58.0542 132.514 57.7137 132.806 57.9083 133.293C58.1515 133.779 58.5894 133.682 59.0272 133.536C59.9029 133.244 60.6813 132.952 61.3624 132.222C62.1407 131.395 63.1137 130.812 64.0867 130.277C67.5407 128.379 71.4813 127.504 74.838 125.314C74.2542 126.482 73.3299 127.212 72.2596 127.795C70.6056 128.72 68.8542 129.498 67.1515 130.422C66.0326 131.006 64.9624 131.687 64.1353 132.709C65.4488 133.293 66.7137 133.39 68.0272 133.147C69.4867 132.904 70.9948 132.368 72.4056 132.709C75.0813 133.293 77.4651 132.612 79.8002 131.395C80.3353 131.104 80.9191 130.958 80.6759 130.179C80.4326 129.45 79.8488 129.644 79.3137 129.693C76.638 129.985 74.0596 130.763 71.4813 131.444C70.3624 131.736 69.2434 131.931 68.0759 131.25C69.3894 130.374 70.8488 130.131 72.2596 129.839C73.9137 129.498 75.2272 128.768 76.1029 127.309C76.8326 126.044 77.5624 124.828 78.2921 123.563C78.9245 122.444 78.9245 121.374 78.0488 120.304C74.4975 123.077 71.6759 126.968 66.811 127.65C67.0056 127.406 67.2488 127.212 67.5407 127.066C71.238 124.682 74.5461 121.86 77.4164 118.504C78.1461 117.677 78.7299 116.995 78.2434 115.828ZM115.508 80.5576C114.049 80.6549 112.93 81.1414 112.152 82.3576C111.47 83.3792 111.081 84.5468 110.741 85.7144C110.254 87.4171 109.914 89.1198 109.233 90.7738C108.406 92.963 106.946 94.5198 104.514 94.6657C102.811 94.763 101.984 95.6387 101.595 97.1468C101.449 97.682 101.254 98.1684 101.06 98.6549C100.865 99.0928 101.011 99.4333 101.4 99.6765C102.616 100.455 103.979 100.747 105.389 100.698C106.119 100.698 106.752 100.212 106.752 99.4333C106.752 97.1955 108.065 95.9306 109.67 94.6657C113.611 91.5522 116.287 87.563 117.697 82.7468C118.038 81.5793 117.697 80.9468 116.53 80.6549C116.141 80.6063 115.8 80.6063 115.508 80.5576ZM127.525 115.536C126.503 115.731 125.579 115.877 124.703 116.12C124.168 116.266 123.535 116.46 123.827 117.19C124.46 118.698 124.022 120.109 123.535 121.52C123.146 122.687 122.757 123.855 122.854 125.12C122.952 126.677 123.73 127.747 125.238 128.087C126.843 128.477 128.4 128.282 129.908 127.698C130.297 127.552 130.541 127.309 130.443 126.871C130.346 126.385 129.957 126.385 129.568 126.433C128.692 126.482 127.816 126.385 126.989 126.19C126.454 126.093 125.87 125.85 125.968 125.168C126.065 124.439 126.697 124.487 127.233 124.536C128.108 124.633 128.935 124.828 129.811 124.925C130.152 124.974 130.443 124.828 130.589 124.487C130.735 124.147 130.541 123.952 130.346 123.758C129.519 123.077 129.276 122.152 129.13 121.179C128.741 118.893 129.13 116.752 130.492 114.758C130.152 114.563 129.811 114.368 129.47 114.174C128.352 113.493 128.303 113.104 129.276 112.228C130.006 111.595 130.784 111.109 131.611 110.671C132.341 110.282 132.243 109.795 131.66 109.309C131.076 108.871 130.492 109.066 130.152 109.601C129.373 110.768 128.352 110.768 127.184 110.477C126.26 110.233 125.287 110.087 124.314 109.99C122.416 109.844 121.784 110.671 122.416 112.471C122.757 113.493 123.535 113.833 124.508 113.833C125.773 113.931 126.795 114.368 127.525 115.536ZM109.865 82.9414C109.135 80.9468 109.135 80.9468 110.595 79.2928C111.47 78.3198 111.373 77.5414 110.303 76.763C109.914 76.4711 109.427 76.2279 109.087 75.8874C108.746 75.5955 108.406 75.1576 107.87 75.4495C107.335 75.6928 107.043 76.1306 106.995 76.7144C106.995 77.1036 106.995 77.4928 107.043 77.882C107.238 80.8495 106.168 81.7252 103.297 80.9468C103.103 80.8982 102.86 80.8009 102.665 80.8009C101.984 80.7036 101.352 80.8495 100.914 81.4333C98.8218 84.2549 95.9515 85.9576 93.0813 87.709C92.5461 88.0495 92.0597 88.3414 91.8164 89.1198C94.1029 89.4603 96.1461 90.4333 98.0434 91.6982C98.9191 92.282 99.5515 91.7468 99.7948 90.9198C100.038 90.0441 100.573 89.6063 101.449 89.4603C102.422 89.2657 103.054 88.6819 103.443 87.8063C103.687 87.2711 103.979 86.6874 104.222 86.1522C105.341 83.8657 107.043 82.5036 109.865 82.9414ZM106.946 63.6279C106.995 63.5792 107.627 62.9468 107.725 62.9955C107.773 63.0441 106.946 63.7252 106.946 63.7738C107.141 64.5522 108.454 65.9144 109.135 65.9144C109.281 65.9144 109.476 65.8171 109.622 65.7198C110.741 64.8928 111.325 62.4117 110.643 61.1468C110.303 60.563 110.108 60.1738 110.887 59.7847C111.325 59.5414 111.422 59.0549 111.227 58.5684C111.081 58.2279 110.984 57.8387 110.838 57.4495C110.643 56.8657 110.4 56.3306 109.622 56.5252C108.941 56.6711 108.795 57.2063 108.795 57.8387C108.795 58.3252 109.233 59.1036 108.503 59.2495C107.822 59.3955 107.822 58.5198 107.579 58.0333C107.384 57.6928 107.287 57.3036 107.043 56.963C106.216 55.8928 104.514 55.9414 103.833 57.109C103.589 57.5468 103.443 58.0333 103.346 58.5198C103.2 59.2982 102.762 59.7847 101.984 59.9792C101.643 60.0279 101.108 59.9306 101.06 60.2711C100.962 60.6603 101.4 61.0495 101.692 61.3414C102.033 61.6819 102.47 61.7306 102.908 61.6819C103.687 61.5847 104.173 61.9738 104.514 62.7036C105.195 64.6495 105.292 64.6495 106.946 63.6279ZM97.3624 76.2765C97.1678 76.4225 96.9245 76.5684 96.7299 76.7144C94.2975 78.563 92.3515 80.8009 90.8921 83.4765C89.8218 85.4711 88.3137 86.9306 85.9299 87.2225C85.0542 87.3198 84.4218 87.9036 84.6164 88.8765C84.811 89.8495 85.2002 90.8225 86.0272 91.5036C86.8056 92.1847 87.0488 92.0874 87.2434 91.1144C87.3894 90.3847 87.3407 89.4603 88.1678 89.1684C89.5786 88.6333 90.3083 87.5144 90.9894 86.3468C92.2542 84.1576 93.811 82.2117 95.9515 80.8009C97.2164 79.9738 97.7029 78.6117 98.0921 77.2495C98.1894 76.7144 97.9948 76.3738 97.3624 76.2765ZM103.93 93.4982C105.633 93.5468 106.314 93.1576 107.092 91.6009C108.114 89.6549 108.649 87.5144 109.379 85.4225C109.476 85.1793 109.427 84.936 109.427 84.6928C109.379 84.2063 108.941 84.109 108.6 83.963C108.162 83.8171 107.725 83.963 107.433 84.3036C107.092 84.6928 107.384 84.9847 107.627 85.2279C108.065 85.763 107.968 85.9576 107.238 86.0549C104.806 86.4928 103.93 87.8063 104.757 89.7522C104.903 90.0928 105.292 90.4333 104.903 90.8225C104.514 91.2117 104.173 90.8225 103.833 90.7252C102.13 90.1414 100.476 91.0171 100.135 92.6711C100.038 93.1576 100.233 93.4982 100.573 93.8387C100.914 94.1792 101.206 94.0333 101.546 93.8387C102.276 93.5955 103.103 93.4009 103.93 93.4982ZM89.7245 90.1901C88.9461 90.1414 88.8975 90.1901 88.6056 90.6279C88.0218 91.6495 88.2651 92.136 89.4813 92.4765C92.9353 93.4495 96.3407 94.4711 99.1624 96.8063C99.5515 97.1468 99.8921 97.0009 100.135 96.6117C100.622 95.8333 100.281 95.2495 99.7461 94.7144C96.9245 91.9414 93.3732 90.8225 89.7245 90.1901ZM99.0651 55.6982C99.1624 56.9144 99.5515 57.936 100.67 58.6171C101.108 58.8603 101.643 59.0549 101.887 58.5198C102.616 56.9144 103.735 55.5036 104.66 53.9955C105.146 53.2657 104.757 52.536 104.319 51.9036C103.881 51.2711 103.249 51.2225 102.568 51.3684C100.768 51.7576 99.0164 53.8982 99.0651 55.6982ZM111.86 79.7306C112.006 79.7792 112.054 79.7792 112.152 79.7792C112.346 79.7792 112.492 79.7306 112.687 79.6819C115.168 79.1955 117.697 78.709 120.033 80.3144C120.422 80.5576 120.616 80.3144 120.762 79.9738C120.957 79.3901 120.665 79.0009 120.276 78.6603C118.816 77.2982 117.016 77.0549 115.119 77.1522C113.416 77.2495 112.443 78.0279 111.86 79.7306ZM99.7461 71.509C98.4813 72.2874 98.1407 72.9684 98.4813 74.0387C99.3083 76.5684 100.962 78.5144 103.297 79.7792C103.833 80.0711 104.368 80.2171 104.952 80.0225C105.633 79.8279 105.876 79.2928 105.925 78.709C105.925 78.0765 105.292 78.3684 105 78.3684C103.152 78.1738 101.838 77.2495 101.011 75.5955C100.379 74.3306 100.038 73.0171 99.7461 71.509ZM125.189 130.374C124.46 130.082 123.73 129.936 123.341 129.547C121.93 128.136 121.103 128.622 119.595 129.79C119.254 130.033 118.962 130.325 119.157 130.763C119.303 131.201 119.643 131.347 120.081 131.395C121.784 131.444 123.438 131.104 125.189 130.374ZM79.0218 124.828C78.5353 125.655 78.1461 126.239 77.8056 126.92C77.4651 127.552 76.5894 128.428 76.9299 128.817C77.4651 129.352 78.4867 128.72 79.2651 128.525C79.8488 128.379 80.5299 128.136 79.5569 127.504C79.1191 127.212 79.0705 126.725 79.1191 126.239C79.1678 125.85 79.2651 125.46 79.0218 124.828ZM115.508 61.5847C116.53 59.8333 116.335 58.9576 114.876 58.8117C115.654 59.5901 115.703 60.5144 115.508 61.5847Z" fill="#1E2435"/>
<path d="M121.883 74.428C121.786 74.5739 121.64 74.6712 121.445 74.5253C121.543 74.428 121.64 74.3307 121.689 74.2334C121.737 74.282 121.786 74.3793 121.883 74.428Z" fill="#1E2435"/>
<path d="M129.324 99.9196C129.373 99.8709 129.422 99.8709 129.519 99.8223C129.519 99.9196 129.519 100.017 129.519 100.066C129.47 100.017 129.373 99.9682 129.324 99.9196Z" fill="#1E2435"/>
<path d="M107.237 59.7845C107.529 60.9521 106.848 60.9034 106.216 60.9034C105.875 60.9034 105.243 60.9034 105.389 60.5629C105.632 59.9304 106.362 59.4439 106.994 59.2494C107.432 59.1034 107.189 59.7358 107.237 59.7845Z" fill="#1E2435"/>
<path d="M165.569 85.1791C164.742 85.5683 162.942 86.0061 160.558 86.0061C153.845 86.0061 150.391 81.8224 150.391 76.2764C150.391 69.6602 155.11 65.9629 160.996 65.9629C163.283 65.9629 164.985 66.4007 165.764 66.8386L164.888 70.3413C164.012 69.9521 162.747 69.6115 161.191 69.6115C157.688 69.6115 155.012 71.7034 155.012 76.0332C155.012 79.9251 157.299 82.3575 161.239 82.3575C162.553 82.3575 164.061 82.0656 164.888 81.7251L165.569 85.1791Z" fill="#1E2435"/>
<path d="M172.865 66.2549V77.4441C172.865 80.8008 174.129 82.5035 176.367 82.5035C178.654 82.5035 179.967 80.8981 179.967 77.4441V66.2549H184.346V77.1522C184.346 83.136 181.329 86.0062 176.221 86.0062C171.308 86.0062 168.438 83.2819 168.438 77.1035V66.2549H172.865Z" fill="#1E2435"/>
<path d="M199.719 77.4927H192.568V82.1143H200.546V85.7143H188.141V66.2549H200.157V69.8549H192.568V73.8927H199.719V77.4927Z" fill="#1E2435"/>
<path d="M203.564 66.5464C204.975 66.3032 207.067 66.1572 209.402 66.1572C212.272 66.1572 214.316 66.5951 215.678 67.6653C216.845 68.5897 217.478 69.9518 217.478 71.7518C217.478 74.2329 215.726 75.9356 214.024 76.5194V76.6167C215.386 77.1518 216.116 78.4653 216.602 80.2653C217.186 82.4545 217.818 84.9843 218.208 85.7626H213.732C213.391 85.2275 212.953 83.6221 212.37 81.2383C211.835 78.8059 211.008 78.1734 209.208 78.1248H207.894V85.7626H203.516V66.5464H203.564ZM207.894 74.914H209.645C211.835 74.914 213.148 73.7951 213.148 72.0924C213.148 70.2924 211.932 69.4167 209.937 69.368C208.867 69.368 208.283 69.4653 207.943 69.514V74.914H207.894Z" fill="#1E2435"/>
<path d="M238.349 75.7899C238.349 82.1629 234.506 86.0061 228.814 86.0061C223.025 86.0061 219.668 81.6278 219.668 76.1305C219.668 70.2926 223.365 65.9629 229.106 65.9629C235.09 65.9629 238.349 70.4386 238.349 75.7899ZM224.29 76.0332C224.29 79.8278 226.09 82.5034 229.009 82.5034C231.976 82.5034 233.679 79.6818 233.679 75.8872C233.679 72.3845 232.025 69.4169 228.96 69.4169C226.041 69.4656 224.29 72.2872 224.29 76.0332Z" fill="#1E2435"/>
<path d="M244.088 133.001C213.537 133.001 182.985 133.001 152.434 133.049C150.877 133.049 150.391 132.66 150.391 131.055C150.488 124.39 150.439 117.725 150.391 111.06C150.391 109.747 150.585 109.065 152.191 109.065C182.791 109.114 213.439 109.163 244.039 109.163C244.088 117.141 244.088 125.071 244.088 133.001ZM178.412 125.168C178.315 128.038 180.018 129.157 182.45 127.99C183.423 127.503 184.055 127.503 185.272 127.941C187.266 128.671 189.699 128.33 191.937 128.282C192.618 128.233 192.569 127.211 192.715 126.579C193.153 124.682 193.591 122.784 194.077 120.936C194.272 120.255 194.71 119.574 195.488 119.719C196.364 119.914 196.218 120.741 196.12 121.374C195.974 122.492 195.731 123.563 195.488 124.682C195.196 125.995 195.05 127.26 196.364 128.087C197.58 128.865 198.845 128.525 199.915 127.649C200.547 127.163 200.888 127.017 201.569 127.601C203.418 129.109 205.412 128.622 207.212 127.406C208.234 126.676 208.818 125.995 209.791 127.552C210.52 128.768 212.028 128.719 213.245 127.99C214.218 127.406 214.947 126.628 215.92 128.038C216.407 128.719 217.477 128.622 218.158 127.941C218.742 127.357 219.277 126.774 218.11 126.044C217.526 125.703 217.915 124.779 218.061 124.147C218.401 122.444 218.791 120.79 219.131 119.087C219.228 118.649 219.569 118.114 218.839 117.725C217.185 116.898 211.883 117.968 210.764 119.428C209.742 120.692 209.207 122.103 208.964 123.709C208.672 125.703 207.212 126.384 205.461 126.628C204.634 126.725 204.001 126.336 203.855 125.411C203.71 124.584 203.855 124.049 204.877 123.806C206.483 123.417 207.747 122.541 208.428 120.984C209.353 118.795 208.137 117.238 205.753 117.53C203.758 117.774 202.542 119.038 201.666 120.692C200.985 121.957 200.742 123.368 200.499 124.779C200.353 125.703 199.964 126.482 198.942 126.238C197.872 126.044 198.212 125.119 198.358 124.39C198.65 122.979 199.039 121.617 199.137 120.206C199.283 118.309 198.212 117.384 196.364 117.725C195.439 117.919 194.564 117.968 193.639 117.725C192.034 117.336 191.207 118.017 190.964 119.719C190.72 121.422 190.283 123.076 189.796 124.73C189.553 125.655 188.92 126.482 187.899 126.238C186.731 125.947 187.315 124.876 187.412 124.147C187.655 122.687 188.093 121.228 188.288 119.768C188.385 119.087 189.455 117.919 187.753 117.725C186.634 117.579 185.564 117.433 185.32 119.136C185.028 121.13 184.493 123.076 183.91 125.022C183.666 125.849 182.985 126.53 182.012 126.19C180.942 125.849 181.477 124.974 181.574 124.292C182.207 121.276 182.888 118.309 183.52 115.292C183.618 114.709 184.25 113.638 182.888 113.638C182.012 113.638 180.845 113.249 180.553 114.709C179.872 118.357 179.093 121.957 178.412 125.168ZM163.428 126.676C163.38 127.844 163.574 128.525 164.888 128.428C165.91 128.33 166.542 128.233 166.688 127.017C166.98 125.168 167.466 123.368 167.904 121.568C168.099 120.692 168.488 119.574 169.51 119.768C170.774 120.011 170.239 121.228 170.093 122.006C169.85 123.465 169.266 124.876 169.364 126.384C169.412 127.357 169.899 128.136 170.872 128.379C171.796 128.622 172.672 128.379 173.304 127.601C173.547 127.309 173.985 126.676 173.45 126.482C171.407 125.801 172.574 124.487 172.72 123.368C172.866 122.249 173.207 121.179 173.255 120.06C173.353 118.698 172.672 117.822 171.164 117.676C165.569 117.238 165.569 117.238 164.45 122.59C164.353 122.979 164.353 123.368 164.255 123.709C163.623 125.509 162.261 126.433 160.412 126.628C159.585 126.725 158.953 126.336 158.855 125.411C158.758 124.584 158.855 124.049 159.877 123.806C161.434 123.417 162.747 122.541 163.428 120.984C164.353 118.747 163.234 117.238 160.801 117.53C158.71 117.774 157.493 119.087 156.569 120.838C155.207 123.514 155.207 126.384 156.472 127.601C157.931 128.963 160.266 128.671 163.428 126.676ZM190.526 112.568C187.947 111.741 188.045 114.028 187.266 115.195C187.072 115.536 186.683 116.022 187.315 116.265C187.704 116.46 188.239 116.411 188.531 115.974C189.164 114.903 190.137 113.93 190.526 112.568Z" fill="#1E2435"/>
<path d="M215.725 120.547C215.433 121.957 215.141 123.417 214.752 124.828C214.508 125.752 213.876 126.53 212.806 126.239C211.833 125.995 212.027 125.071 212.076 124.341C212.125 122.59 212.66 120.984 213.779 119.574C214.168 119.087 214.752 118.795 215.384 119.087C215.968 119.379 215.773 119.963 215.725 120.547Z" fill="#1E2435"/>
<path d="M204.148 122.833C204.294 121.325 204.83 120.158 205.705 119.136C205.948 118.844 206.24 118.601 206.678 118.796C207.067 118.99 207.165 119.379 207.116 119.768C206.775 121.325 206.094 122.541 204.148 122.833Z" fill="#1E2435"/>
<path d="M159.098 122.979C159.244 121.471 159.779 120.352 160.508 119.33C160.752 118.99 161.092 118.601 161.579 118.795C162.211 119.038 162.163 119.622 162.017 120.109C161.627 121.52 160.898 122.638 159.098 122.979Z" fill="#1E2435"/>
</svg>
