<svg width="232" height="50" viewBox="0 0 232 50" fill="none" xmlns="http://www.w3.org/2000/svg">
<path d="M67.4824 35.7983H68.2867V38.976H72.504V35.7983H73.3082V42.7814H72.504V39.6626H68.2867V42.7814H67.4824V35.7983Z" fill="#26233B"/>
<path d="M77.3492 39.9372C77.3492 40.6433 77.5454 41.173 77.9181 41.5653C78.2908 41.9576 78.8204 42.1537 79.4677 42.1537C80.115 42.1537 80.6447 41.9576 81.0173 41.5653C81.39 41.173 81.5862 40.6433 81.5862 39.9372V35.7983H82.3708V39.9372C82.3708 40.5453 82.2531 41.0553 82.0177 41.5064C81.7824 41.9576 81.4489 42.2714 81.0173 42.5068C80.5858 42.7422 80.0562 42.8599 79.4481 42.8599C78.84 42.8599 78.3104 42.7422 77.8789 42.5068C77.4473 42.2714 77.0942 41.938 76.8785 41.5064C76.6431 41.0749 76.5254 40.5453 76.5254 39.9372V35.7983H77.3296V39.9372H77.3492Z" fill="#26233B"/>
<path d="M85.6465 35.7983H86.6077L89.2754 40.9572L91.9038 35.7983H92.8846V42.7814H92.1392V36.8772L89.4911 42.036H89.04L86.3919 36.8772V42.7814H85.6465V35.7983Z" fill="#26233B"/>
<path d="M98.4158 35.7983H99.2397L102.359 42.7814H101.495L98.7885 36.6025L96.1208 42.7814H95.2773L98.3962 35.7983H98.4158ZM96.6701 40.2706H100.907V40.9572H96.6701V40.2706Z" fill="#26233B"/>
<path d="M104.772 35.7983H105.595L110.009 41.8399L109.793 41.9184V35.7983H110.578V42.7814H109.754L105.34 36.7399L105.556 36.6614V42.7814H104.752V35.7983H104.772Z" fill="#26233B"/>
<path d="M122.798 37.2891C122.523 37.0145 122.209 36.7987 121.856 36.6418C121.484 36.4849 121.111 36.4064 120.738 36.4064C120.366 36.4064 119.973 36.4849 119.62 36.6222C119.267 36.7595 118.973 36.9753 118.718 37.2303C118.463 37.4853 118.247 37.7991 118.11 38.1522C117.972 38.5053 117.894 38.878 117.894 39.2703C117.894 39.6626 117.972 40.0353 118.11 40.3688C118.247 40.7218 118.463 41.0161 118.718 41.2711C118.973 41.5261 119.287 41.7418 119.62 41.8791C119.973 42.0361 120.326 42.0949 120.738 42.0949C121.15 42.0949 121.503 42.0165 121.856 41.8791C122.209 41.7222 122.523 41.5261 122.817 41.2515L123.308 41.7418C123.072 41.9576 122.817 42.1341 122.543 42.3107C122.268 42.4676 121.974 42.5853 121.66 42.6834C121.346 42.7815 121.032 42.8207 120.719 42.8207C120.209 42.8207 119.738 42.7226 119.306 42.5461C118.875 42.3695 118.482 42.1145 118.149 41.7811C117.816 41.4476 117.561 41.0749 117.384 40.6434C117.207 40.2118 117.109 39.7411 117.109 39.2507C117.109 38.7603 117.207 38.2895 117.384 37.8776C117.58 37.446 117.835 37.0733 118.169 36.7399C118.502 36.4064 118.894 36.1514 119.326 35.9749C119.757 35.7983 120.248 35.7003 120.758 35.7003C121.268 35.7003 121.386 35.7395 121.699 35.818C122.013 35.8964 122.288 36.0141 122.562 36.171C122.837 36.328 123.092 36.5045 123.308 36.7203L122.837 37.2499L122.798 37.2891Z" fill="#26233B"/>
<path d="M126.016 35.7983H130.763V36.5045H126.82V38.8976H130.351V39.5841H126.82V42.0949H130.9V42.7814H126.035V35.7983H126.016Z" fill="#26233B"/>
<path d="M133.822 35.7983H134.646L139.06 41.8399L138.844 41.9184V35.7983H139.629V42.7814H138.805L134.391 36.7399L134.607 36.6614V42.7814H133.803V35.7983H133.822Z" fill="#26233B"/>
<path d="M142.1 35.7983H147.455V36.5045H145.16V42.8011H144.355V36.5045H142.08V35.7983H142.1Z" fill="#26233B"/>
<path d="M149.926 35.7983H154.673V36.5045H150.73V38.8976H154.261V39.5841H150.73V42.0949H154.81V42.7814H149.945V35.7983H149.926Z" fill="#26233B"/>
<path d="M160.383 35.7983C161.265 35.7983 161.932 35.9945 162.423 36.4064C162.893 36.8183 163.148 37.3872 163.148 38.1326C163.148 38.8779 162.913 39.486 162.423 39.9176C161.952 40.3491 161.265 40.5453 160.383 40.5453H158.519V42.7814H157.715V35.7983H160.363H160.383ZM160.383 39.8587C161.01 39.8587 161.501 39.7214 161.854 39.4272C162.207 39.133 162.383 38.721 162.383 38.1522C162.383 37.5833 162.207 37.191 161.854 36.9164C161.501 36.6418 161.01 36.5045 160.383 36.5045H158.519V39.8783H160.383V39.8587ZM160.618 40.2118H161.422L163.207 42.7814H162.305L160.638 40.2118H160.618Z" fill="#26233B"/>
<path d="M166.246 35.7983H170.993V36.5045H167.05V38.8976H170.581V39.5841H167.05V42.0949H171.13V42.7814H166.266V35.7983H166.246Z" fill="#26233B"/>
<path d="M176.858 35.7983C177.368 35.7983 177.839 35.8964 178.29 36.0533C178.721 36.2298 179.114 36.4849 179.427 36.7987C179.741 37.1126 179.996 37.4852 180.192 37.9168C180.369 38.3483 180.467 38.7995 180.467 39.2899C180.467 39.7803 180.369 40.251 180.192 40.663C180.016 41.0749 179.761 41.4476 179.427 41.781C179.094 42.0949 178.721 42.3499 178.27 42.5264C177.839 42.703 177.348 42.7814 176.838 42.7814H174.033V35.7983H176.858ZM176.877 42.0949C177.27 42.0949 177.642 42.0164 177.976 41.8791C178.309 41.7418 178.604 41.5457 178.859 41.2907C179.114 41.0357 179.31 40.7414 179.447 40.3883C179.584 40.0549 179.663 39.6822 179.663 39.2899C179.663 38.8976 179.584 38.5249 179.447 38.1914C179.31 37.8579 179.094 37.5441 178.839 37.2891C178.584 37.0341 178.29 36.8379 177.956 36.7006C177.623 36.5633 177.25 36.4849 176.858 36.4849H174.857V42.0949H176.897H176.877Z" fill="#26233B"/>
<path d="M189.903 35.7983C190.433 35.7983 190.923 35.8768 191.374 36.0533C191.825 36.2298 192.198 36.4652 192.531 36.7791C192.845 37.0929 193.1 37.4656 193.277 37.8972C193.453 38.3287 193.551 38.7995 193.551 39.3095C193.551 39.8195 193.453 40.2903 193.277 40.7022C193.1 41.1141 192.845 41.5064 192.512 41.8007C192.178 42.1145 191.806 42.3499 191.355 42.5264C190.903 42.703 190.413 42.7814 189.883 42.7814H187.02V35.7983H189.923H189.903ZM189.942 41.6634C190.256 41.6634 190.55 41.6045 190.825 41.4868C191.1 41.3691 191.335 41.2122 191.531 40.9964C191.727 40.7807 191.904 40.5453 192.002 40.251C192.12 39.9568 192.178 39.643 192.178 39.2899C192.178 38.9368 192.12 38.6229 192.002 38.3287C191.884 38.0345 191.727 37.7795 191.511 37.5637C191.315 37.3479 191.06 37.191 190.786 37.0733C190.511 36.9556 190.197 36.8968 189.864 36.8968H188.334V41.6437H189.923L189.942 41.6634Z" fill="#FB0040"/>
<path d="M196.021 35.7983H201.141V36.9164H197.355V38.721H200.749V39.8391H197.355V41.683H201.259V42.8011H196.021V35.8179V35.7983Z" fill="#FB0040"/>
<path d="M208.323 37.5245C208.068 37.3676 207.832 37.2499 207.577 37.1518C207.322 37.0537 207.087 36.9753 206.851 36.936C206.616 36.8968 206.42 36.8772 206.224 36.8772C205.91 36.8772 205.655 36.936 205.478 37.0537C205.282 37.1714 205.184 37.348 205.184 37.5834C205.184 37.8187 205.243 37.9757 205.38 38.0934C205.518 38.2307 205.694 38.3287 205.929 38.4268C206.145 38.5053 206.4 38.6034 206.655 38.6818C206.93 38.7603 207.185 38.8584 207.459 38.9368C207.734 39.0349 207.969 39.1526 208.185 39.3095C208.401 39.4664 208.578 39.6626 208.715 39.898C208.852 40.1334 208.911 40.4276 208.911 40.8003C208.911 41.173 208.793 41.6045 208.558 41.9184C208.323 42.2322 208.009 42.4676 207.597 42.6245C207.204 42.7815 206.734 42.8796 206.224 42.8796C205.714 42.8796 205.478 42.8403 205.125 42.7422C204.772 42.6442 204.439 42.5069 204.125 42.3499C203.811 42.193 203.517 41.9968 203.262 41.7615L203.831 40.6826C204.066 40.8984 204.321 41.0945 204.615 41.2515C204.89 41.4084 205.184 41.5261 205.459 41.6045C205.733 41.683 206.008 41.7222 206.243 41.7222C206.616 41.7222 206.91 41.6438 207.126 41.5065C207.342 41.3692 207.44 41.1534 207.44 40.8788C207.44 40.6041 207.361 40.4864 207.244 40.3491C207.106 40.2118 206.93 40.1138 206.714 40.0157C206.498 39.9176 206.243 39.8391 205.988 39.7803C205.714 39.7018 205.459 39.6234 205.184 39.5253C204.909 39.4272 204.674 39.3095 204.458 39.1526C204.242 38.9957 204.066 38.8191 203.929 38.5837C203.791 38.3484 203.732 38.0541 203.732 37.701C203.732 37.348 203.85 36.936 204.066 36.6418C204.282 36.3476 204.596 36.1122 204.988 35.9553C205.38 35.7983 205.831 35.7199 206.361 35.7199C206.891 35.7199 207.283 35.7787 207.734 35.916C208.185 36.0533 208.558 36.2299 208.891 36.4457L208.362 37.5441L208.323 37.5245Z" fill="#FB0040"/>
<path d="M211.5 35.7983H212.834V42.7814H211.5V35.7983Z" fill="#FB0040"/>
<path d="M221.052 37.6422C220.797 37.3872 220.483 37.2107 220.13 37.0537C219.777 36.9164 219.424 36.838 219.071 36.838C218.718 36.838 218.424 36.8968 218.129 37.0341C217.835 37.1518 217.58 37.3283 217.364 37.5637C217.149 37.7795 216.972 38.0541 216.854 38.3287C216.737 38.623 216.678 38.9368 216.678 39.2899C216.678 39.643 216.737 39.9568 216.854 40.2511C216.972 40.5453 217.149 40.8003 217.364 41.0357C217.58 41.2711 217.835 41.4476 218.129 41.5653C218.424 41.683 218.737 41.7615 219.071 41.7615C219.404 41.7615 219.718 41.7026 220.052 41.5653C220.405 41.428 220.699 41.2514 220.974 41.0357L221.739 41.9576C221.503 42.1342 221.229 42.2911 220.915 42.4284C220.601 42.5657 220.287 42.6834 219.954 42.7618C219.62 42.8403 219.287 42.8795 218.973 42.8795C218.443 42.8795 217.953 42.7815 217.521 42.6049C217.09 42.4284 216.697 42.1734 216.344 41.8399C216.011 41.5065 215.736 41.1338 215.56 40.7022C215.383 40.2707 215.285 39.7999 215.285 39.2899C215.285 38.7799 215.383 38.3091 215.579 37.8776C215.776 37.446 216.031 37.0733 216.384 36.7399C216.737 36.4064 217.129 36.1514 217.58 35.9749C218.031 35.7983 218.541 35.7003 219.071 35.7003C219.601 35.7003 219.738 35.7395 220.071 35.818C220.405 35.8964 220.719 36.0141 221.013 36.171C221.307 36.328 221.582 36.5045 221.798 36.7006L221.032 37.6226L221.052 37.6422ZM220.581 39.3291H221.758V41.9576H220.581V39.3291Z" fill="#FB0040"/>
<path d="M224.602 35.7983H225.877L229.839 41.173L229.486 41.2907V35.7983H230.78V42.7814H229.505L225.563 37.4264L225.916 37.3087V42.7814H224.602V35.7983Z" fill="#FB0040"/>
<path d="M51.9268 50H37.9998C38.4313 32.5422 11.7738 32.5422 11.8131 50H0.00450613C-0.289727 35.2295 13.8727 22.9109 28.5647 25.3825C26.3482 19.6155 21.1304 5.94351 18.8747 0.0392305V0H30.9382C30.9382 0 51.9072 49.9804 51.9268 50Z" fill="#FB0040"/>
<path d="M109.458 9.12125C107.948 7.80701 105.83 7.14008 103.103 7.14008H93.6875V28.5602H99.2779V22.5971H103.103C105.83 22.5971 107.948 21.891 109.458 20.4983C110.969 19.1056 111.714 17.144 111.714 14.6528C111.714 12.1617 110.949 10.4159 109.458 9.10163V9.12125ZM105.476 17.3598C104.849 17.9286 103.966 18.2229 102.828 18.2229H99.2779V11.5536H102.828C103.966 11.5536 104.849 11.8282 105.476 12.3774C106.104 12.9267 106.398 13.7505 106.398 14.8294C106.398 15.9082 106.085 16.7909 105.476 17.3598Z" fill="#26233B"/>
<path d="M122.973 7.14008L113.773 28.5602H119.521L121.031 24.7156H130.29L131.761 28.5602H137.724L128.74 7.14008H122.993H122.973ZM122.659 20.4983L125.68 12.7305L128.642 20.4983H122.64H122.659Z" fill="#26233B"/>
<path d="M75.5044 7.14008L66.3047 28.5602H72.052L73.5624 24.7156H82.821L84.2921 28.5602H90.2553L81.2713 7.14008H75.524H75.5044ZM75.1905 20.4983L78.2113 12.7305L81.1733 20.4983H75.1709H75.1905Z" fill="#26233B"/>
<path d="M157.38 20.5179C158.93 19.1252 159.695 17.1636 159.695 14.6724C159.695 12.1813 158.93 10.4355 157.38 9.12125C155.831 7.80701 153.634 7.14008 150.77 7.14008H141.139V28.5602H146.729V22.5971H150.77C150.809 22.5971 150.829 22.5971 150.868 22.5971L154.006 28.5602H160.323L155.85 21.5379C156.4 21.2436 156.91 20.9102 157.361 20.5179H157.38ZM146.749 11.5536H150.79C151.927 11.5536 152.81 11.8282 153.457 12.3774C154.085 12.9267 154.399 13.7505 154.399 14.8294C154.399 15.9082 154.085 16.7909 153.457 17.3598C152.83 17.9286 151.947 18.2229 150.79 18.2229H146.749V11.5536Z" fill="#26233B"/>
<path d="M170.403 7.14008H164.812V28.5602H170.403V7.14008Z" fill="#26233B"/>
<path d="M189.038 23.3621C188.097 23.8133 187.175 24.0487 186.272 24.0487C185.37 24.0487 184.684 23.8917 183.977 23.5779C183.271 23.264 182.644 22.8129 182.114 22.244C181.584 21.6752 181.172 21.0083 180.898 20.2433C180.623 19.4782 180.466 18.6544 180.466 17.7521C180.466 16.8498 180.603 16.0259 180.898 15.2609C181.192 14.4959 181.584 13.829 182.114 13.2797C182.644 12.7109 183.271 12.2793 183.977 11.9655C184.684 11.6517 185.449 11.4947 186.272 11.4947C187.096 11.4947 188.155 11.7497 189.117 12.2597C190.078 12.7697 190.902 13.4563 191.588 14.339L194.825 10.4943C194.119 9.74894 193.295 9.08202 192.353 8.53278C191.412 7.98355 190.411 7.552 189.352 7.25777C188.293 6.96354 187.234 6.80661 186.174 6.80661C184.546 6.80661 183.036 7.08123 181.623 7.63046C180.231 8.1797 179.015 8.96432 177.975 9.9451C176.935 10.9455 176.131 12.1028 175.562 13.4367C174.993 14.7705 174.699 16.2221 174.699 17.7913C174.699 19.3606 174.993 20.8513 175.562 22.2048C176.131 23.5583 176.916 24.7352 177.936 25.7552C178.936 26.7556 180.133 27.5402 181.486 28.1091C182.859 28.6779 184.33 28.9526 185.939 28.9526C187.547 28.9526 188.057 28.7956 189.136 28.4622C190.215 28.1287 191.235 27.6775 192.216 27.0695C193.197 26.4614 194.079 25.7552 194.844 24.951L191.569 21.4987C190.804 22.2637 189.96 22.8914 189.019 23.3425L189.038 23.3621Z" fill="#26233B"/>
<path d="M204.358 7.14008H198.768V28.5602H204.358V7.14008Z" fill="#26233B"/>
<path d="M230.957 13.4563C230.388 12.1224 229.565 10.9455 228.505 9.96472C227.446 8.96433 226.23 8.19932 224.837 7.65009C223.444 7.10085 221.914 6.82623 220.228 6.82623C218.541 6.82623 217.05 7.10085 215.638 7.65009C214.225 8.19932 213.009 8.96433 211.95 9.96472C210.891 10.9455 210.086 12.1224 209.498 13.4563C208.909 14.8098 208.635 16.2613 208.635 17.8306C208.635 19.3998 208.929 20.8906 209.498 22.244C210.067 23.5975 210.891 24.7745 211.95 25.7945C212.989 26.7949 214.225 27.5795 215.638 28.1483C217.05 28.7172 218.56 28.9918 220.228 28.9918C221.895 28.9918 223.425 28.7172 224.837 28.1483C226.23 27.5795 227.446 26.8145 228.505 25.7945C229.565 24.7941 230.369 23.5975 230.957 22.244C231.546 20.8906 231.82 19.4194 231.82 17.8306C231.82 16.2417 231.526 14.8098 230.957 13.4759V13.4563ZM225.641 20.361C225.347 21.1456 224.935 21.8321 224.406 22.401C223.876 22.9894 223.268 23.4406 222.562 23.7544C221.856 24.0879 221.11 24.2448 220.306 24.2448C219.502 24.2448 218.756 24.0879 218.05 23.7544C217.344 23.421 216.697 22.9698 216.148 22.401C215.598 21.8125 215.167 21.1456 214.873 20.361C214.559 19.5763 214.421 18.7329 214.421 17.8306C214.421 16.9282 214.578 16.0652 214.873 15.3001C215.186 14.5351 215.598 13.8682 216.148 13.2797C216.697 12.6913 217.324 12.2597 218.05 11.9459C218.776 11.632 219.541 11.4751 220.326 11.4751C221.11 11.4751 221.875 11.632 222.581 11.9459C223.288 12.2597 223.896 12.7109 224.425 13.2797C224.955 13.8682 225.367 14.5351 225.661 15.3001C225.955 16.0652 226.112 16.9086 226.112 17.8306C226.112 18.7525 225.955 19.5763 225.661 20.361H225.641Z" fill="#26233B"/>
</svg>
