<svg width="300" height="186" viewBox="0 0 300 186" fill="none" xmlns="http://www.w3.org/2000/svg">
<rect width="300" height="185.635" fill="#EEF1F6"/>
<path d="M138.822 83.561C138.298 83.8232 137.948 84.0854 137.773 84.2602C137.861 84.5224 138.21 85.2215 138.822 86.008C139.521 86.882 140.832 88.1055 143.017 88.7172C143.804 88.892 144.59 89.0668 145.377 89.0668C147.387 89.0668 148.785 88.3676 149.484 87.8433C148.261 87.7559 145.639 87.2315 143.541 84.5224C143.104 83.9106 142.755 83.3862 142.493 82.7745C142.405 82.7745 142.318 82.7745 142.23 82.7745C140.657 82.7745 139.521 83.2115 138.822 83.561ZM157.612 82.7745C157.349 83.2989 157 83.9106 156.563 84.5224C154.465 87.3189 151.844 87.7559 150.62 87.8433C151.319 88.2802 152.718 88.9794 154.728 88.9794C155.514 88.9794 156.301 88.892 157.087 88.6298C159.272 88.0181 160.583 86.7946 161.282 85.9206C161.894 85.1341 162.156 84.435 162.331 84.1728C162.156 83.998 161.806 83.7358 161.282 83.4736C160.583 83.1241 159.447 82.6871 157.961 82.6871C157.786 82.7745 157.699 82.7745 157.612 82.7745ZM142.318 77.5309C142.23 77.7931 142.056 78.5797 142.056 79.541C142.056 80.6771 142.405 82.5123 143.804 84.2602C145.814 86.882 148.348 87.4063 149.397 87.4937C149.134 87.2315 148.698 86.7946 148.261 86.2702C147.561 85.2215 146.687 83.561 146.687 81.114C146.687 80.4149 146.775 79.7158 146.862 79.104C145.114 77.6183 143.279 77.4435 142.493 77.4435C142.405 77.5309 142.318 77.5309 142.318 77.5309ZM153.155 79.104C153.242 79.7158 153.329 80.4149 153.329 81.114C153.329 83.561 152.455 85.3089 151.756 86.2702C151.407 86.7946 150.97 87.1441 150.708 87.4063C151.844 87.3189 154.291 86.7946 156.301 84.1728C157.699 82.3375 157.961 80.5897 158.049 79.4536C158.049 78.4923 157.874 77.7057 157.786 77.4435C157.699 77.4435 157.612 77.4435 157.524 77.4435C156.65 77.5309 154.902 77.7057 153.155 79.104ZM148.61 76.3074C147.911 77.2688 147.124 78.8418 147.124 81.114C147.124 83.3862 147.911 84.9593 148.61 85.9206C149.222 86.7072 149.746 87.1441 150.008 87.3189C150.271 87.1441 150.795 86.7072 151.407 85.9206C152.106 84.9593 152.892 83.3862 152.892 81.0266C152.892 78.667 152.106 77.094 151.407 76.1327C150.795 75.3461 150.271 74.9092 150.008 74.7344C149.746 75.0839 149.222 75.5209 148.61 76.3074Z" fill="#1E2435"/>
<mask id="mask0_1583_154" style="mask-type:luminance" maskUnits="userSpaceOnUse" x="137" y="74" width="26" height="16">
<path d="M138.822 83.561C138.298 83.8232 137.948 84.0854 137.773 84.2602C137.861 84.5224 138.21 85.2215 138.822 86.008C139.521 86.882 140.832 88.1055 143.017 88.7172C143.804 88.892 144.59 89.0668 145.377 89.0668C147.387 89.0668 148.785 88.3676 149.484 87.8433C148.261 87.7559 145.639 87.2315 143.541 84.5224C143.104 83.9106 142.755 83.3862 142.493 82.7745C142.405 82.7745 142.318 82.7745 142.23 82.7745C140.657 82.7745 139.521 83.2115 138.822 83.561ZM157.612 82.7745C157.349 83.2989 157 83.9106 156.563 84.5224C154.465 87.3189 151.844 87.7559 150.62 87.8433C151.319 88.2802 152.718 88.9794 154.728 88.9794C155.514 88.9794 156.301 88.892 157.087 88.6298C159.272 88.0181 160.583 86.7946 161.282 85.9206C161.894 85.1341 162.156 84.435 162.331 84.1728C162.156 83.998 161.806 83.7358 161.282 83.4736C160.583 83.1241 159.447 82.6871 157.961 82.6871C157.786 82.7745 157.699 82.7745 157.612 82.7745ZM142.318 77.5309C142.23 77.7931 142.056 78.5797 142.056 79.541C142.056 80.6771 142.405 82.5123 143.804 84.2602C145.814 86.882 148.348 87.4063 149.397 87.4937C149.134 87.2315 148.698 86.7946 148.261 86.2702C147.561 85.2215 146.687 83.561 146.687 81.114C146.687 80.4149 146.775 79.7158 146.862 79.104C145.114 77.6183 143.279 77.4435 142.493 77.4435C142.405 77.5309 142.318 77.5309 142.318 77.5309ZM153.155 79.104C153.242 79.7158 153.329 80.4149 153.329 81.114C153.329 83.561 152.455 85.3089 151.756 86.2702C151.407 86.7946 150.97 87.1441 150.708 87.4063C151.844 87.3189 154.291 86.7946 156.301 84.1728C157.699 82.3375 157.961 80.5897 158.049 79.4536C158.049 78.4923 157.874 77.7057 157.786 77.4435C157.699 77.4435 157.612 77.4435 157.524 77.4435C156.65 77.5309 154.902 77.7057 153.155 79.104ZM148.61 76.3074C147.911 77.2688 147.124 78.8418 147.124 81.114C147.124 83.3862 147.911 84.9593 148.61 85.9206C149.222 86.7072 149.746 87.1441 150.008 87.3189C150.271 87.1441 150.795 86.7072 151.407 85.9206C152.106 84.9593 152.892 83.3862 152.892 81.0266C152.892 78.667 152.106 77.094 151.407 76.1327C150.795 75.3461 150.271 74.9092 150.008 74.7344C149.746 75.0839 149.222 75.5209 148.61 76.3074Z" fill="white"/>
</mask>
<g mask="url(#mask0_1583_154)">
<mask id="mask1_1583_154" style="mask-type:luminance" maskUnits="userSpaceOnUse" x="111" y="30" width="245" height="317">
<path d="M355.033 30.8633H111.207V346.351H355.033V30.8633Z" fill="white"/>
</mask>
<g mask="url(#mask1_1583_154)">
<path d="M162.331 74.9082H137.773V89.0658H162.331V74.9082Z" fill="#1E2435"/>
</g>
</g>
<path d="M140.484 82.949C140.572 83.9104 140.746 85.0465 141.271 86.27C140.484 86.27 139.698 86.27 139.086 86.4447C139.872 87.3187 141.096 88.28 143.019 88.8043C143.805 88.9791 144.592 89.1539 145.378 89.1539C147.388 89.1539 148.787 88.4548 149.486 87.9304C148.262 87.843 145.64 87.3187 143.543 84.6095C143.106 83.9978 142.756 83.4734 142.494 82.8616C142.407 82.8616 142.319 82.8616 142.232 82.8616C141.533 82.7743 140.921 82.8616 140.484 82.949ZM157.613 82.7743C157.351 83.2986 157.001 83.9104 156.564 84.5221C154.467 87.3187 151.845 87.7556 150.622 87.843C151.321 88.28 152.719 88.9791 154.729 88.9791C155.516 88.9791 156.302 88.8917 157.089 88.6296C159.011 88.1052 160.235 87.1439 161.021 86.27C160.41 86.1826 159.623 86.0952 158.837 86.0952C159.361 84.8717 159.536 83.7356 159.623 82.7743C159.099 82.6869 158.575 82.5995 157.963 82.5995C157.788 82.7743 157.701 82.7743 157.613 82.7743ZM153.418 82.1625C153.418 82.0751 153.331 81.9003 153.331 81.8129C153.156 83.9104 152.457 85.396 151.758 86.27C151.408 86.7943 150.971 87.1439 150.709 87.4061C151.845 87.3187 154.292 86.7943 156.302 84.1725C157.438 82.6869 157.875 81.1138 157.963 80.0651C156.827 80.2399 155.079 80.6768 153.418 82.1625ZM143.805 84.2599C145.815 86.8817 148.35 87.4061 149.398 87.4935C149.136 87.2313 148.699 86.7943 148.262 86.27C147.563 85.396 146.864 83.9104 146.689 81.9003C146.689 81.9877 146.602 82.0751 146.602 82.1625C144.854 80.7642 143.193 80.2399 142.057 80.1525C142.232 81.2012 142.582 82.6869 143.805 84.2599ZM147.126 80.6768C147.126 80.8516 147.126 81.0264 147.126 81.2012C147.126 83.4734 147.913 85.0465 148.612 86.0078C149.223 86.7943 149.748 87.2313 150.01 87.4061C150.272 87.2313 150.797 86.7943 151.408 86.0078C152.107 85.0465 152.894 83.4734 152.894 81.1138C152.894 80.939 152.894 80.7642 152.894 80.502C151.845 77.9677 150.01 76.9189 150.01 76.9189C150.01 76.9189 148.175 78.1424 147.126 80.6768Z" fill="#1E2435"/>
<mask id="mask2_1583_154" style="mask-type:luminance" maskUnits="userSpaceOnUse" x="139" y="76" width="23" height="14">
<path d="M140.484 82.949C140.572 83.9104 140.746 85.0465 141.271 86.27C140.484 86.27 139.698 86.27 139.086 86.4447C139.872 87.3187 141.096 88.28 143.019 88.8043C143.805 88.9791 144.592 89.1539 145.378 89.1539C147.388 89.1539 148.787 88.4548 149.486 87.9304C148.262 87.843 145.64 87.3187 143.543 84.6095C143.106 83.9978 142.756 83.4734 142.494 82.8616C142.407 82.8616 142.319 82.8616 142.232 82.8616C141.533 82.7743 140.921 82.8616 140.484 82.949ZM157.613 82.7743C157.351 83.2986 157.001 83.9104 156.564 84.5221C154.467 87.3187 151.845 87.7556 150.622 87.843C151.321 88.28 152.719 88.9791 154.729 88.9791C155.516 88.9791 156.302 88.8917 157.089 88.6296C159.011 88.1052 160.235 87.1439 161.021 86.27C160.41 86.1826 159.623 86.0952 158.837 86.0952C159.361 84.8717 159.536 83.7356 159.623 82.7743C159.099 82.6869 158.575 82.5995 157.963 82.5995C157.788 82.7743 157.701 82.7743 157.613 82.7743ZM143.805 84.2599C145.815 86.8817 148.35 87.4061 149.398 87.4935C149.136 87.2313 148.699 86.7943 148.262 86.27C147.563 85.396 146.864 83.9104 146.689 81.9003C146.689 81.9877 146.602 82.0751 146.602 82.1625C144.854 80.7642 143.193 80.2399 142.057 80.1525C142.232 81.2012 142.582 82.6869 143.805 84.2599ZM153.418 82.1625C153.418 82.0751 153.331 81.9003 153.331 81.8129C153.156 83.9104 152.457 85.396 151.758 86.27C151.408 86.7943 150.971 87.1439 150.709 87.4061C151.845 87.3187 154.292 86.7943 156.302 84.1725C157.438 82.6869 157.875 81.1138 157.963 80.0651C156.827 80.2399 155.079 80.6768 153.418 82.1625ZM147.126 80.6768C147.126 80.8516 147.126 81.0264 147.126 81.2012C147.126 83.4734 147.913 85.0465 148.612 86.0078C149.223 86.7943 149.748 87.2313 150.01 87.4061C150.272 87.2313 150.797 86.7943 151.408 86.0078C152.107 85.0465 152.894 83.4734 152.894 81.1138C152.894 80.939 152.894 80.7642 152.894 80.502C151.845 77.9677 150.01 76.9189 150.01 76.9189C150.01 76.9189 148.175 78.1424 147.126 80.6768Z" fill="white"/>
</mask>
<g mask="url(#mask2_1583_154)">
<mask id="mask3_1583_154" style="mask-type:luminance" maskUnits="userSpaceOnUse" x="111" y="30" width="245" height="317">
<path d="M355.033 30.8633H111.207V346.351H355.033V30.8633Z" fill="white"/>
</mask>
<g mask="url(#mask3_1583_154)">
<path d="M160.934 77.0068H139.086V89.067H160.934V77.0068Z" fill="#1E2435"/>
</g>
<mask id="mask4_1583_154" style="mask-type:luminance" maskUnits="userSpaceOnUse" x="111" y="30" width="245" height="317">
<path d="M355.033 30.8633H111.207V346.351H355.033V30.8633Z" fill="white"/>
</mask>
<g mask="url(#mask4_1583_154)">
<path d="M160.934 77.0068H139.086V89.067H160.934V77.0068Z" stroke="#1E2435" stroke-miterlimit="10"/>
</g>
</g>
<path d="M156.561 84.5221C154.463 87.3187 151.842 87.7557 150.618 87.8431C151.317 88.28 152.716 88.9792 154.726 88.9792C155.512 88.9792 156.299 88.8918 157.085 88.6296C157.435 88.5422 157.784 88.3674 158.134 88.28C157.61 88.1926 156.998 88.1052 156.299 88.1052C156.998 86.4448 156.91 84.9591 156.736 84.26C156.648 84.3473 156.648 84.4347 156.561 84.5221ZM143.714 88.1926C143.015 88.1926 142.403 88.1926 141.879 88.3674C142.228 88.5422 142.578 88.6296 142.928 88.717C143.714 88.8918 144.501 89.0666 145.287 89.0666C147.297 89.0666 148.696 88.3674 149.395 87.8431C148.171 87.7557 145.549 87.2313 143.452 84.5221C143.452 84.4347 143.365 84.4347 143.365 84.3473C143.19 85.0465 143.015 86.5322 143.714 88.1926ZM152.453 85.3087C152.453 85.2213 152.453 85.2213 152.453 85.3087C152.191 85.6582 152.016 86.0078 151.754 86.3574C151.405 86.8817 150.968 87.2313 150.706 87.4935C151.842 87.4061 154.289 86.8817 156.299 84.26C156.386 84.0852 156.473 83.9978 156.648 83.823C156.648 83.823 156.473 83.823 156.299 83.823C155.6 83.823 154.026 83.9104 152.453 85.3087ZM143.452 83.823C143.539 83.9978 143.627 84.0852 143.802 84.26C145.812 86.8817 148.346 87.4061 149.395 87.4935C149.132 87.2313 148.696 86.7943 148.259 86.27C148.084 86.0078 147.822 85.6582 147.559 85.2213V85.3087C145.986 83.9978 144.413 83.823 143.714 83.823C143.539 83.823 143.452 83.823 143.452 83.823ZM147.822 84.6095C148.084 85.1339 148.346 85.6582 148.608 86.0078C149.22 86.7943 149.744 87.2313 150.006 87.4061C150.269 87.2313 150.793 86.7943 151.405 86.0078C151.667 85.6582 152.016 85.1339 152.191 84.6095C151.492 82.4247 149.919 81.5508 149.919 81.5508C149.919 81.5508 148.521 82.5121 147.822 84.6095Z" fill="#1E2435"/>
<mask id="mask5_1583_154" style="mask-type:luminance" maskUnits="userSpaceOnUse" x="141" y="81" width="18" height="9">
<path d="M143.714 88.1926C143.015 88.1926 142.403 88.1926 141.879 88.3674C142.228 88.5422 142.578 88.6296 142.928 88.717C143.714 88.8918 144.501 89.0666 145.287 89.0666C147.297 89.0666 148.696 88.3674 149.395 87.8431C148.171 87.7557 145.549 87.2313 143.452 84.5221C143.452 84.4347 143.365 84.4347 143.365 84.3473C143.19 85.0465 143.015 86.5322 143.714 88.1926ZM156.561 84.5221C154.463 87.3187 151.842 87.7557 150.618 87.8431C151.317 88.28 152.716 88.9792 154.726 88.9792C155.512 88.9792 156.299 88.8918 157.085 88.6296C157.435 88.5422 157.784 88.3674 158.134 88.28C157.61 88.1926 156.998 88.1052 156.299 88.1052C156.998 86.4448 156.91 84.9591 156.736 84.26C156.648 84.3473 156.648 84.4347 156.561 84.5221ZM143.452 83.823C143.539 83.9978 143.627 84.0852 143.802 84.26C145.812 86.8817 148.346 87.4061 149.395 87.4935C149.132 87.2313 148.696 86.7943 148.259 86.27C148.084 86.0078 147.822 85.6582 147.559 85.2213V85.3087C145.986 83.9978 144.413 83.823 143.714 83.823C143.539 83.823 143.452 83.823 143.452 83.823ZM152.453 85.3087C152.453 85.2213 152.453 85.2213 152.453 85.3087C152.191 85.6582 152.016 86.0078 151.754 86.3574C151.405 86.8817 150.968 87.2313 150.706 87.4935C151.842 87.4061 154.289 86.8817 156.299 84.26C156.386 84.0852 156.473 83.9978 156.648 83.823C156.648 83.823 156.561 83.823 156.299 83.823C155.6 83.823 154.026 83.9104 152.453 85.3087ZM147.822 84.6095C148.084 85.1339 148.346 85.6582 148.608 86.0078C149.22 86.7943 149.744 87.2313 150.006 87.4061C150.269 87.2313 150.793 86.7943 151.405 86.0078C151.667 85.6582 152.016 85.1339 152.191 84.6095C151.492 82.4247 149.919 81.5508 149.919 81.5508C149.919 81.5508 148.521 82.5121 147.822 84.6095Z" fill="white"/>
</mask>
<g mask="url(#mask5_1583_154)">
<mask id="mask6_1583_154" style="mask-type:luminance" maskUnits="userSpaceOnUse" x="111" y="30" width="245" height="317">
<path d="M355.033 30.8633H111.207V346.351H355.033V30.8633Z" fill="white"/>
</mask>
<g mask="url(#mask6_1583_154)">
<path d="M158.047 81.5508H141.879V88.9792H158.047V81.5508Z" fill="#1E2435"/>
</g>
</g>
<path fill-rule="evenodd" clip-rule="evenodd" d="M149.835 53.4102C150.622 53.8471 150.097 55.158 150.272 55.8572C150.534 56.7311 152.107 57.6924 152.806 58.3915C153.768 59.3529 154.816 60.6637 155.166 62.1494C156.127 66.4317 153.505 69.9274 152.632 74.6466C152.457 75.6953 153.331 76.3944 152.282 76.8314C151.932 75.5205 150.622 74.8214 150.01 73.7726C149.311 74.734 148 75.6953 147.825 76.9188C147.126 76.9188 147.388 76.5692 147.301 76.0449C147.388 70.6265 144.154 68.2669 144.591 63.1107C144.766 60.5764 146.252 58.9159 147.738 57.605C148.262 57.168 149.398 56.5563 149.66 55.7698C149.835 55.0706 149.485 54.1093 149.835 53.4102ZM149.748 57.3428C147.912 58.042 146.514 59.615 146.252 61.9746C145.99 64.3342 147.126 66.7812 148.611 67.8299C147.475 66.1695 147.825 63.0233 150.097 62.7612C152.195 63.1107 152.457 66.0821 151.408 67.8299C154.642 65.7325 154.379 57.6924 149.748 57.3428Z" fill="#1E2435"/>
<path d="M138.822 83.5609C138.298 83.8231 137.948 84.0853 137.773 84.2601C137.861 84.5223 138.21 85.2214 138.735 86.0079C139.434 86.8819 140.745 88.1054 142.93 88.7171C143.716 88.8919 144.503 89.0667 145.202 89.0667C147.124 89.0667 148.61 88.3675 149.309 87.8432C148.086 87.7558 145.464 87.2314 143.367 84.5223C142.93 83.9105 142.58 83.3862 142.318 82.7744C142.23 82.7744 142.143 82.7744 142.056 82.7744C140.657 82.7744 139.521 83.2114 138.822 83.5609ZM157.699 82.7744C157.437 83.2988 157 83.9979 156.475 84.6097C154.378 87.4062 151.756 87.8432 150.533 87.9306C151.232 88.3675 152.63 89.0667 154.553 89.0667C155.339 89.0667 156.126 88.9793 156.825 88.7171C159.01 88.1054 160.321 86.8819 161.02 86.0079C161.632 85.2214 161.894 84.5223 161.981 84.2601C161.806 84.0853 161.457 83.8231 160.932 83.5609C160.233 83.2114 159.097 82.7744 157.612 82.7744C157.524 82.7744 157.437 82.7744 157.349 82.7744" fill="#1E2435"/>
<path d="M157.699 82.7744C157.437 83.2988 157 83.9979 156.475 84.6097C154.378 87.4062 151.756 87.8432 150.533 87.9306C151.232 88.3675 152.63 89.0667 154.553 89.0667C155.339 89.0667 156.126 88.9793 156.825 88.7171C159.01 88.1054 160.321 86.8819 161.02 86.0079C161.632 85.2214 161.894 84.5223 161.981 84.2601C161.806 84.0853 161.457 83.8231 160.932 83.5609C160.233 83.2114 159.097 82.7744 157.612 82.7744C157.524 82.7744 157.437 82.7744 157.349 82.7744M138.822 83.5609C138.298 83.8231 137.948 84.0853 137.773 84.2601C137.861 84.5223 138.21 85.2214 138.735 86.0079C139.434 86.8819 140.745 88.1054 142.93 88.7171C143.716 88.8919 144.503 89.0667 145.202 89.0667C147.124 89.0667 148.61 88.3675 149.309 87.8432C148.086 87.7558 145.464 87.2314 143.367 84.5223C142.93 83.9105 142.58 83.3862 142.318 82.7744C142.23 82.7744 142.143 82.7744 142.056 82.7744C140.657 82.7744 139.521 83.2114 138.822 83.5609Z" stroke="#1E2435" stroke-miterlimit="10"/>
<path fill-rule="evenodd" clip-rule="evenodd" d="M150.01 47.8174C150.36 47.8174 150.622 48.0796 150.622 48.4291C150.622 48.7787 150.36 49.0409 150.01 49.0409C149.661 49.0409 149.398 48.7787 149.398 48.4291C149.398 48.0796 149.661 47.8174 150.01 47.8174Z" fill="#1E2435"/>
<path fill-rule="evenodd" clip-rule="evenodd" d="M139.874 53.498C139.787 53.498 139.699 53.5854 139.699 53.6728C139.699 53.7602 139.787 53.8476 139.874 53.8476C139.961 53.8476 140.049 53.7602 140.049 53.6728C140.136 53.5854 139.961 53.498 139.874 53.498Z" fill="#1E2435"/>
<path fill-rule="evenodd" clip-rule="evenodd" d="M152.369 48.3418C152.544 48.3418 152.719 48.5166 152.719 48.6914C152.719 48.8662 152.544 49.0409 152.369 49.0409C152.194 49.0409 152.02 48.8662 152.02 48.6914C152.02 48.4292 152.194 48.3418 152.369 48.3418Z" fill="#1E2435"/>
<path fill-rule="evenodd" clip-rule="evenodd" d="M147.65 48.3418C147.476 48.3418 147.301 48.5166 147.301 48.6914C147.301 48.8662 147.476 49.0409 147.65 49.0409C147.825 49.0409 148 48.8662 148 48.6914C148 48.4292 147.913 48.3418 147.65 48.3418Z" fill="#1E2435"/>
<path fill-rule="evenodd" clip-rule="evenodd" d="M153.942 48.7783C154.117 48.7783 154.204 48.8657 154.204 49.0405C154.204 49.2153 154.117 49.3027 153.942 49.3027C153.767 49.3027 153.68 49.2153 153.68 49.0405C153.68 48.8657 153.767 48.7783 153.942 48.7783Z" fill="#1E2435"/>
<path fill-rule="evenodd" clip-rule="evenodd" d="M146.079 48.7783C145.904 48.7783 145.816 48.8657 145.816 49.0405C145.816 49.2153 145.904 49.3027 146.079 49.3027C146.253 49.3027 146.341 49.2153 146.341 49.0405C146.341 48.8657 146.253 48.7783 146.079 48.7783Z" fill="#1E2435"/>
<path fill-rule="evenodd" clip-rule="evenodd" d="M155.254 49.3037C155.342 49.3037 155.517 49.3911 155.517 49.5659C155.517 49.7407 155.342 49.8281 155.254 49.8281C155.167 49.8281 154.992 49.7407 154.992 49.5659C154.992 49.3911 155.167 49.3037 155.254 49.3037Z" fill="#1E2435"/>
<path fill-rule="evenodd" clip-rule="evenodd" d="M144.77 49.3037C144.683 49.3037 144.508 49.3911 144.508 49.5659C144.508 49.7407 144.683 49.8281 144.77 49.8281C144.857 49.8281 145.032 49.7407 145.032 49.5659C145.032 49.3911 144.945 49.3037 144.77 49.3037Z" fill="#1E2435"/>
<path fill-rule="evenodd" clip-rule="evenodd" d="M156.39 49.9141C156.477 49.9141 156.564 50.0015 156.564 50.0888C156.564 50.1762 156.477 50.2636 156.39 50.2636C156.302 50.2636 156.215 50.1762 156.215 50.0888C156.215 50.0888 156.302 49.9141 156.39 49.9141Z" fill="#1E2435"/>
<path fill-rule="evenodd" clip-rule="evenodd" d="M143.628 49.9141C143.541 49.9141 143.453 50.0015 143.453 50.0888C143.453 50.1762 143.541 50.2636 143.628 50.2636C143.715 50.2636 143.803 50.1762 143.803 50.0888C143.89 50.0888 143.803 49.9141 143.628 49.9141Z" fill="#1E2435"/>
<path fill-rule="evenodd" clip-rule="evenodd" d="M157.351 50.6143C157.438 50.6143 157.525 50.7017 157.525 50.789C157.525 50.8764 157.438 50.9638 157.351 50.9638C157.263 50.9638 157.176 50.8764 157.176 50.789C157.176 50.7017 157.263 50.6143 157.351 50.6143Z" fill="#1E2435"/>
<path fill-rule="evenodd" clip-rule="evenodd" d="M142.667 50.6143C142.58 50.6143 142.492 50.7017 142.492 50.789C142.492 50.8764 142.58 50.9638 142.667 50.9638C142.754 50.9638 142.842 50.8764 142.842 50.789C142.842 50.7017 142.754 50.6143 142.667 50.6143Z" fill="#1E2435"/>
<path fill-rule="evenodd" clip-rule="evenodd" d="M162.068 57.3432C162.068 57.2558 162.068 57.1684 161.981 57.0811C161.894 57.0811 161.806 57.0811 161.719 57.1684C161.719 57.2558 161.719 57.3432 161.806 57.4306C161.894 57.4306 161.981 57.4306 162.068 57.3432Z" fill="#1E2435"/>
<path fill-rule="evenodd" clip-rule="evenodd" d="M138.035 57.3432C138.035 57.2558 138.035 57.1684 138.123 57.0811C138.21 57.0811 138.297 57.0811 138.385 57.1684C138.385 57.2558 138.385 57.3432 138.297 57.4306C138.123 57.4306 138.035 57.4306 138.035 57.3432Z" fill="#1E2435"/>
<path fill-rule="evenodd" clip-rule="evenodd" d="M158.14 51.3125C158.227 51.3125 158.314 51.3999 158.314 51.4873C158.314 51.5747 158.227 51.6621 158.14 51.6621C158.052 51.6621 157.965 51.5747 157.965 51.4873C157.965 51.3999 158.052 51.3125 158.14 51.3125Z" fill="#1E2435"/>
<path fill-rule="evenodd" clip-rule="evenodd" d="M141.882 51.3125C141.794 51.3125 141.707 51.3999 141.707 51.4873C141.707 51.5747 141.794 51.6621 141.882 51.6621C141.969 51.6621 142.057 51.5747 142.057 51.4873C142.057 51.3999 141.969 51.3125 141.882 51.3125Z" fill="#1E2435"/>
<path fill-rule="evenodd" clip-rule="evenodd" d="M161.719 56.2949C161.719 56.2075 161.719 56.1201 161.632 56.1201C161.544 56.1201 161.457 56.1201 161.457 56.2075C161.457 56.2949 161.457 56.3823 161.544 56.3823C161.632 56.4697 161.719 56.3823 161.719 56.2949Z" fill="#1E2435"/>
<path fill-rule="evenodd" clip-rule="evenodd" d="M138.301 56.2949C138.301 56.2075 138.301 56.1201 138.388 56.1201C138.476 56.1201 138.563 56.1201 138.563 56.2075C138.563 56.2949 138.563 56.3823 138.476 56.3823C138.388 56.4697 138.301 56.3823 138.301 56.2949Z" fill="#1E2435"/>
<path fill-rule="evenodd" clip-rule="evenodd" d="M158.837 52.0127C158.925 52.0127 158.925 52.1001 158.925 52.1001C158.925 52.1001 158.925 52.1875 158.837 52.1875C158.75 52.1875 158.75 52.1001 158.75 52.1001L158.837 52.0127Z" fill="#1E2435"/>
<path fill-rule="evenodd" clip-rule="evenodd" d="M141.181 52.0127C141.094 52.0127 141.094 52.1001 141.094 52.1001L141.181 52.1875C141.269 52.1875 141.269 52.1001 141.269 52.1001C141.269 52.1001 141.269 52.0127 141.181 52.0127Z" fill="#1E2435"/>
<path fill-rule="evenodd" clip-rule="evenodd" d="M161.372 55.4209C161.372 55.3335 161.372 55.3335 161.284 55.2461C161.197 55.2461 161.197 55.2461 161.109 55.3335C161.109 55.4209 161.109 55.4209 161.197 55.5083C161.284 55.5083 161.372 55.4209 161.372 55.4209Z" fill="#1E2435"/>
<path fill-rule="evenodd" clip-rule="evenodd" d="M138.648 55.4209C138.648 55.3335 138.648 55.3335 138.736 55.2461C138.823 55.2461 138.823 55.2461 138.911 55.3335C138.911 55.4209 138.911 55.4209 138.823 55.5083C138.736 55.5083 138.736 55.4209 138.648 55.4209Z" fill="#1E2435"/>
<path fill-rule="evenodd" clip-rule="evenodd" d="M159.538 52.7109C159.626 52.7109 159.626 52.7109 159.626 52.7983C159.626 52.8857 159.626 52.8857 159.538 52.8857C159.451 52.8857 159.451 52.8857 159.538 52.7109C159.451 52.7983 159.451 52.7109 159.538 52.7109Z" fill="#1E2435"/>
<path fill-rule="evenodd" clip-rule="evenodd" d="M140.484 52.7109C140.396 52.8857 140.396 52.8857 140.484 52.8857C140.571 52.8857 140.571 52.8857 140.571 52.7983C140.571 52.7109 140.571 52.7109 140.484 52.7109Z" fill="#1E2435"/>
<path fill-rule="evenodd" clip-rule="evenodd" d="M160.933 54.4595C160.933 54.3721 160.933 54.3721 160.845 54.3721C160.758 54.3721 160.758 54.3721 160.758 54.4595C160.758 54.5469 160.758 54.5469 160.845 54.5469C160.845 54.5469 160.933 54.5469 160.933 54.4595Z" fill="#1E2435"/>
<path fill-rule="evenodd" clip-rule="evenodd" d="M139.086 54.4595C139.086 54.3721 139.086 54.3721 139.173 54.3721C139.261 54.3721 139.261 54.3721 139.261 54.4595C139.261 54.5469 139.261 54.5469 139.173 54.5469C139.173 54.5469 139.086 54.5469 139.086 54.4595Z" fill="#1E2435"/>
<path fill-rule="evenodd" clip-rule="evenodd" d="M170.283 59.5284C170.458 59.7906 170.37 60.1402 170.108 60.3149C169.846 60.4897 169.496 60.4023 169.321 60.1402C169.147 59.878 169.234 59.5284 169.496 59.3536C169.758 59.1788 170.108 59.2662 170.283 59.5284Z" fill="#1E2435"/>
<path fill-rule="evenodd" clip-rule="evenodd" d="M160.319 53.5855C160.232 53.4981 160.145 53.4107 160.057 53.4981C159.97 53.5855 159.882 53.6729 159.97 53.7603C160.057 53.8477 160.145 53.9351 160.232 53.8477C160.407 53.7603 160.407 53.6729 160.319 53.5855Z" fill="#1E2435"/>
<path fill-rule="evenodd" clip-rule="evenodd" d="M171.068 61.8008C171.156 61.9756 171.068 62.1504 170.981 62.2378C170.806 62.3252 170.631 62.2378 170.544 62.1504C170.457 61.9756 170.544 61.8008 170.631 61.7134C170.719 61.5387 170.981 61.626 171.068 61.8008Z" fill="#1E2435"/>
<path fill-rule="evenodd" clip-rule="evenodd" d="M168.711 57.7805C168.623 57.6058 168.448 57.6058 168.274 57.6931C168.099 57.7805 168.099 57.9553 168.186 58.1301C168.274 58.3049 168.448 58.3049 168.623 58.2175C168.711 58.1301 168.798 57.9553 168.711 57.7805Z" fill="#1E2435"/>
<path fill-rule="evenodd" clip-rule="evenodd" d="M171.422 63.3726C171.51 63.46 171.422 63.6348 171.335 63.7222C171.248 63.8096 171.073 63.7222 170.985 63.6348C170.898 63.5474 170.985 63.3726 171.073 63.2852C171.16 63.1978 171.335 63.2852 171.422 63.3726Z" fill="#1E2435"/>
<path fill-rule="evenodd" clip-rule="evenodd" d="M167.489 56.6441C167.401 56.5567 167.227 56.4693 167.139 56.5567C167.052 56.6441 166.964 56.8189 167.052 56.9063C167.139 56.9937 167.314 57.0811 167.401 56.9937C167.576 56.9063 167.576 56.7315 167.489 56.6441Z" fill="#1E2435"/>
<path fill-rule="evenodd" clip-rule="evenodd" d="M171.594 64.8596C171.682 64.947 171.594 65.1218 171.507 65.2092C171.419 65.2966 171.245 65.2092 171.157 65.1218C171.07 65.0344 171.157 64.8596 171.245 64.7722C171.419 64.6849 171.507 64.6849 171.594 64.8596Z" fill="#1E2435"/>
<path fill-rule="evenodd" clip-rule="evenodd" d="M166.349 55.7701C166.261 55.6827 166.174 55.5953 165.999 55.6827C165.912 55.7701 165.912 55.8575 165.999 55.9449C166.087 56.0323 166.174 56.1196 166.349 56.0323C166.349 56.0323 166.436 55.8575 166.349 55.7701Z" fill="#1E2435"/>
<path fill-rule="evenodd" clip-rule="evenodd" d="M171.597 66.0825C171.684 66.1699 171.597 66.3447 171.509 66.3447C171.422 66.4321 171.247 66.3447 171.247 66.2573C171.16 66.1699 171.247 65.9951 171.335 65.9951C171.422 65.9951 171.597 65.9951 171.597 66.0825Z" fill="#1E2435"/>
<path fill-rule="evenodd" clip-rule="evenodd" d="M165.304 55.0709C165.216 54.9835 165.129 54.8961 165.042 54.9835C164.954 55.0709 164.867 55.1583 164.954 55.2456C165.042 55.333 165.129 55.4204 165.216 55.333C165.304 55.333 165.304 55.1583 165.304 55.0709Z" fill="#1E2435"/>
<path fill-rule="evenodd" clip-rule="evenodd" d="M171.507 67.3062C171.594 67.3936 171.507 67.481 171.419 67.5684C171.332 67.6558 171.245 67.5684 171.157 67.481C171.07 67.3936 171.157 67.3062 171.245 67.2188C171.332 67.1314 171.507 67.2188 171.507 67.3062Z" fill="#1E2435"/>
<path fill-rule="evenodd" clip-rule="evenodd" d="M164.17 54.6333C164.082 54.5459 163.995 54.5459 163.908 54.5459C163.82 54.6333 163.82 54.7207 163.82 54.8081C163.908 54.8955 163.995 54.8955 164.082 54.8955C164.257 54.8081 164.257 54.6333 164.17 54.6333Z" fill="#1E2435"/>
<path fill-rule="evenodd" clip-rule="evenodd" d="M168.101 74.7353C168.188 74.7353 168.275 74.6479 168.275 74.5605C168.275 74.4731 168.188 74.3857 168.101 74.3857C168.013 74.3857 167.926 74.4731 167.926 74.5605C167.926 74.6479 168.013 74.7353 168.101 74.7353Z" fill="#1E2435"/>
<path fill-rule="evenodd" clip-rule="evenodd" d="M156.04 53.8478C156.127 53.7604 156.215 53.7604 156.302 53.8478C156.39 53.9352 156.39 54.0226 156.302 54.1099C156.302 54.1973 156.127 54.1973 156.127 54.1099C156.04 54.0226 155.953 53.9352 156.04 53.8478Z" fill="#1E2435"/>
<path fill-rule="evenodd" clip-rule="evenodd" d="M171.332 68.355C171.332 68.4424 171.332 68.5298 171.245 68.5298C171.158 68.5298 171.07 68.5298 171.07 68.4424C171.07 68.355 171.07 68.2676 171.158 68.2676C171.245 68.1803 171.332 68.2676 171.332 68.355Z" fill="#1E2435"/>
<path fill-rule="evenodd" clip-rule="evenodd" d="M163.207 54.1968C163.207 54.1094 163.12 54.1094 163.033 54.1094C162.945 54.1094 162.945 54.1968 162.945 54.2842C162.945 54.3716 163.033 54.3716 163.12 54.3716C163.207 54.3716 163.295 54.2842 163.207 54.1968Z" fill="#1E2435"/>
<path fill-rule="evenodd" clip-rule="evenodd" d="M168.801 73.9478C168.888 73.9478 168.976 73.8604 168.888 73.773C168.888 73.6856 168.801 73.5982 168.713 73.6856C168.626 73.6856 168.539 73.773 168.626 73.8604C168.626 73.8604 168.713 73.9478 168.801 73.9478Z" fill="#1E2435"/>
<path fill-rule="evenodd" clip-rule="evenodd" d="M157.089 53.673C157.176 53.5856 157.264 53.5856 157.264 53.673C157.351 53.7604 157.351 53.8478 157.264 53.8478C157.176 53.9351 157.089 53.9351 157.089 53.8478C157.002 53.7604 157.002 53.673 157.089 53.673Z" fill="#1E2435"/>
<path fill-rule="evenodd" clip-rule="evenodd" d="M171.073 69.3155C171.073 69.4029 171.073 69.4029 171.073 69.4903C170.986 69.4903 170.986 69.4903 170.898 69.4903C170.898 69.4029 170.898 69.4029 170.898 69.3155C170.986 69.2282 171.073 69.2282 171.073 69.3155Z" fill="#1E2435"/>
<path fill-rule="evenodd" clip-rule="evenodd" d="M162.244 53.9357C162.244 53.8483 162.157 53.8483 162.069 53.9357C161.982 53.9357 161.982 54.0231 162.069 54.1104C162.069 54.1978 162.157 54.1978 162.244 54.1104C162.244 54.1104 162.244 54.0231 162.244 53.9357Z" fill="#1E2435"/>
<path fill-rule="evenodd" clip-rule="evenodd" d="M169.412 73.1621C169.499 73.1621 169.499 73.0747 169.499 73.0747C169.499 72.9873 169.412 72.9873 169.412 72.9873C169.324 72.9873 169.324 73.0747 169.324 73.0747C169.324 73.0747 169.324 73.1621 169.412 73.1621Z" fill="#1E2435"/>
<path fill-rule="evenodd" clip-rule="evenodd" d="M158.047 53.4982C158.047 53.4108 158.134 53.4108 158.222 53.4982C158.309 53.4982 158.309 53.5856 158.222 53.6729C158.222 53.7603 158.134 53.7603 158.047 53.6729C158.047 53.5856 158.047 53.5856 158.047 53.4982Z" fill="#1E2435"/>
<path fill-rule="evenodd" clip-rule="evenodd" d="M170.806 70.1904V70.2778H170.719V70.1904C170.719 70.1904 170.719 70.1904 170.806 70.1904Z" fill="#1E2435"/>
<path fill-rule="evenodd" clip-rule="evenodd" d="M161.282 53.7605C161.282 53.7605 161.195 53.6731 161.195 53.7605C161.195 53.7605 161.108 53.8479 161.195 53.8479C161.195 53.8479 161.282 53.9353 161.282 53.8479C161.282 53.8479 161.282 53.8479 161.282 53.7605Z" fill="#1E2435"/>
<path fill-rule="evenodd" clip-rule="evenodd" d="M169.935 72.2871C170.022 72.2871 170.022 72.1997 170.022 72.1997C170.022 72.1123 169.935 72.1123 169.935 72.1123C169.848 72.1123 169.848 72.1997 169.848 72.1997C169.848 72.2871 169.935 72.2871 169.935 72.2871Z" fill="#1E2435"/>
<path fill-rule="evenodd" clip-rule="evenodd" d="M159.097 53.4099C159.097 53.4099 159.184 53.3225 159.184 53.4099C159.184 53.4099 159.272 53.4973 159.184 53.4973C159.184 53.4973 159.097 53.5847 159.097 53.4973C159.009 53.4973 159.009 53.4973 159.097 53.4099Z" fill="#1E2435"/>
<path fill-rule="evenodd" clip-rule="evenodd" d="M170.283 82.9488C170.108 83.2109 169.758 83.2983 169.496 83.1235C169.234 82.9488 169.147 82.5992 169.321 82.337C169.496 82.0748 169.846 81.9874 170.108 82.1622C170.37 82.337 170.458 82.6866 170.283 82.9488Z" fill="#1E2435"/>
<path fill-rule="evenodd" clip-rule="evenodd" d="M170.46 71.3267C170.547 71.2393 170.46 71.0645 170.373 71.0645C170.285 70.9771 170.11 71.0645 170.11 71.1519C170.023 71.2393 170.11 71.4141 170.198 71.4141C170.285 71.5015 170.46 71.4141 170.46 71.3267Z" fill="#1E2435"/>
<path fill-rule="evenodd" clip-rule="evenodd" d="M168.711 84.6965C168.623 84.8713 168.448 84.8713 168.274 84.7839C168.099 84.6965 168.099 84.5217 168.186 84.3469C168.274 84.1722 168.448 84.1722 168.623 84.2596C168.711 84.3469 168.798 84.5217 168.711 84.6965Z" fill="#1E2435"/>
<path fill-rule="evenodd" clip-rule="evenodd" d="M171.068 80.6773C171.156 80.5025 171.068 80.3277 170.981 80.2403C170.806 80.1529 170.631 80.2403 170.544 80.3277C170.457 80.5025 170.544 80.6773 170.631 80.7647C170.719 80.9394 170.981 80.852 171.068 80.6773Z" fill="#1E2435"/>
<path fill-rule="evenodd" clip-rule="evenodd" d="M167.489 85.833C167.401 85.9204 167.227 86.0078 167.139 85.9204C167.052 85.833 166.964 85.6583 167.052 85.5709C167.139 85.4835 167.314 85.3961 167.401 85.4835C167.576 85.5709 167.576 85.7456 167.489 85.833Z" fill="#1E2435"/>
<path fill-rule="evenodd" clip-rule="evenodd" d="M171.422 79.1045C171.51 79.0171 171.422 78.8423 171.335 78.7549C171.248 78.6676 171.073 78.755 170.985 78.8423C170.898 78.9297 170.985 79.1045 171.073 79.1919C171.16 79.2793 171.335 79.1919 171.422 79.1045Z" fill="#1E2435"/>
<path fill-rule="evenodd" clip-rule="evenodd" d="M166.349 86.7066C166.261 86.794 166.174 86.8814 165.999 86.794C165.912 86.7066 165.912 86.6192 165.999 86.5318C166.087 86.4444 166.174 86.357 166.349 86.4444C166.349 86.4444 166.436 86.6192 166.349 86.7066Z" fill="#1E2435"/>
<path fill-rule="evenodd" clip-rule="evenodd" d="M171.594 77.6182C171.682 77.5308 171.594 77.356 171.507 77.2686C171.419 77.1812 171.245 77.2686 171.157 77.356C171.07 77.4434 171.157 77.6182 171.245 77.7056C171.419 77.793 171.507 77.793 171.594 77.6182Z" fill="#1E2435"/>
<path fill-rule="evenodd" clip-rule="evenodd" d="M165.304 87.4068C165.216 87.4942 165.129 87.5816 165.042 87.4942C164.954 87.4068 164.867 87.3194 164.954 87.232C165.042 87.1446 165.129 87.0572 165.216 87.1446C165.304 87.1446 165.304 87.3194 165.304 87.4068Z" fill="#1E2435"/>
<path fill-rule="evenodd" clip-rule="evenodd" d="M171.597 76.3951C171.684 76.3077 171.597 76.1329 171.509 76.1329C171.422 76.0455 171.247 76.1329 171.247 76.2203C171.16 76.3077 171.247 76.4825 171.335 76.4825C171.422 76.4825 171.597 76.4825 171.597 76.3951Z" fill="#1E2435"/>
<path fill-rule="evenodd" clip-rule="evenodd" d="M164.17 87.8432C164.082 87.9306 163.995 87.9306 163.908 87.9306C163.82 87.8432 163.82 87.7558 163.82 87.6684C163.908 87.5811 163.995 87.5811 164.082 87.5811C164.257 87.6684 164.257 87.8432 164.17 87.8432Z" fill="#1E2435"/>
<path fill-rule="evenodd" clip-rule="evenodd" d="M171.507 75.1714C171.594 75.084 171.507 74.9966 171.419 74.9092C171.332 74.8219 171.245 74.9092 171.157 74.9966C171.07 75.084 171.157 75.1714 171.245 75.2588C171.332 75.3462 171.507 75.2588 171.507 75.1714Z" fill="#1E2435"/>
<path fill-rule="evenodd" clip-rule="evenodd" d="M156.043 88.6295C156.13 88.7169 156.218 88.7169 156.305 88.6295C156.392 88.5421 156.392 88.4547 156.305 88.3673C156.218 88.2799 156.13 88.2799 156.043 88.3673C156.043 88.4547 155.955 88.5421 156.043 88.6295Z" fill="#1E2435"/>
<path fill-rule="evenodd" clip-rule="evenodd" d="M168.101 67.7432C168.188 67.7432 168.275 67.8306 168.275 67.918C168.275 68.0053 168.188 68.0927 168.101 68.0927C168.013 68.0927 167.926 68.0053 167.926 67.918C167.926 67.8306 168.013 67.7432 168.101 67.7432Z" fill="#1E2435"/>
<path fill-rule="evenodd" clip-rule="evenodd" d="M163.207 88.2803C163.207 88.3676 163.12 88.3676 163.033 88.3676C162.945 88.3676 162.945 88.2803 162.945 88.1929C162.945 88.1055 163.033 88.1055 163.12 88.1055C163.207 88.1055 163.295 88.1929 163.207 88.2803Z" fill="#1E2435"/>
<path fill-rule="evenodd" clip-rule="evenodd" d="M171.332 74.122C171.332 74.0347 171.332 73.9473 171.245 73.9473C171.158 73.9473 171.07 73.9473 171.07 74.0347C171.07 74.1221 171.07 74.2094 171.158 74.2094C171.245 74.2968 171.332 74.2094 171.332 74.122Z" fill="#1E2435"/>
<path fill-rule="evenodd" clip-rule="evenodd" d="M157.089 88.8038C157.176 88.8912 157.264 88.8912 157.264 88.8038C157.351 88.7164 157.351 88.629 157.264 88.629C157.176 88.5416 157.089 88.5416 157.089 88.629C157.002 88.7164 157.002 88.8038 157.089 88.8038Z" fill="#1E2435"/>
<path fill-rule="evenodd" clip-rule="evenodd" d="M168.801 68.5293C168.888 68.5293 168.976 68.6167 168.888 68.7041C168.888 68.7915 168.801 68.8789 168.713 68.7915C168.626 68.7915 168.539 68.7041 168.626 68.6167C168.626 68.6167 168.713 68.5293 168.801 68.5293Z" fill="#1E2435"/>
<path fill-rule="evenodd" clip-rule="evenodd" d="M162.244 88.5421C162.244 88.6295 162.157 88.6295 162.069 88.5421C161.982 88.5421 161.982 88.4547 162.069 88.3673C162.069 88.2799 162.157 88.2799 162.244 88.3673C162.244 88.3673 162.244 88.4547 162.244 88.5421Z" fill="#1E2435"/>
<path fill-rule="evenodd" clip-rule="evenodd" d="M171.073 73.1621C171.073 73.0747 171.073 73.0747 171.073 72.9873C170.986 72.9873 170.986 72.9873 170.898 72.9873C170.898 73.0747 170.898 73.0747 170.898 73.1621C170.986 73.2495 171.073 73.2495 171.073 73.1621Z" fill="#1E2435"/>
<path fill-rule="evenodd" clip-rule="evenodd" d="M158.047 88.9796C158.047 89.067 158.134 89.067 158.222 88.9796C158.309 88.9796 158.309 88.8922 158.222 88.8048C158.222 88.7174 158.134 88.7174 158.047 88.8048C158.047 88.8922 158.047 88.8922 158.047 88.9796Z" fill="#1E2435"/>
<path fill-rule="evenodd" clip-rule="evenodd" d="M169.412 69.3154C169.499 69.3154 169.499 69.4028 169.499 69.4028C169.499 69.4902 169.412 69.4902 169.412 69.4902C169.324 69.4902 169.324 69.4028 169.324 69.4028C169.324 69.4028 169.324 69.3154 169.412 69.3154Z" fill="#1E2435"/>
<path fill-rule="evenodd" clip-rule="evenodd" d="M161.282 88.7171C161.282 88.7171 161.195 88.8044 161.195 88.7171C161.195 88.7171 161.108 88.6297 161.195 88.6297C161.195 88.6297 161.282 88.5423 161.282 88.6297C161.282 88.6297 161.282 88.6297 161.282 88.7171Z" fill="#1E2435"/>
<path fill-rule="evenodd" clip-rule="evenodd" d="M170.806 72.2876V72.2002H170.719V72.2876C170.719 72.2876 170.719 72.2876 170.806 72.2876Z" fill="#1E2435"/>
<path fill-rule="evenodd" clip-rule="evenodd" d="M159.097 89.0667C159.097 89.0667 159.184 89.1541 159.184 89.0667C159.184 89.0667 159.272 88.9793 159.184 88.9793C159.184 88.9793 159.097 88.8919 159.097 88.9793C159.009 88.9793 159.009 88.9793 159.097 89.0667Z" fill="#1E2435"/>
<path fill-rule="evenodd" clip-rule="evenodd" d="M169.935 70.1904C170.022 70.1904 170.022 70.2778 170.022 70.2778C170.022 70.3652 169.935 70.3652 169.935 70.3652C169.848 70.3652 169.848 70.2778 169.848 70.2778C169.848 70.1904 169.935 70.1904 169.935 70.1904Z" fill="#1E2435"/>
<path fill-rule="evenodd" clip-rule="evenodd" d="M150.01 94.66C149.661 94.66 149.398 94.3978 149.398 94.0483C149.398 93.6987 149.661 93.4365 150.01 93.4365C150.36 93.4365 150.622 93.6987 150.622 94.0483C150.622 94.3978 150.36 94.66 150.01 94.66Z" fill="#1E2435"/>
<path fill-rule="evenodd" clip-rule="evenodd" d="M160.147 88.9795C160.235 88.9795 160.322 88.8921 160.322 88.8047C160.322 88.7173 160.235 88.6299 160.147 88.6299C160.06 88.6299 159.973 88.7173 159.973 88.8047C159.973 88.8921 160.06 88.9795 160.147 88.9795Z" fill="#1E2435"/>
<path fill-rule="evenodd" clip-rule="evenodd" d="M147.65 94.1357C147.476 94.1357 147.301 93.9609 147.301 93.7861C147.301 93.6113 147.476 93.4365 147.65 93.4365C147.825 93.4365 148 93.6113 148 93.7861C148 94.0483 147.913 94.1357 147.65 94.1357Z" fill="#1E2435"/>
<path fill-rule="evenodd" clip-rule="evenodd" d="M152.369 94.1357C152.544 94.1357 152.719 93.9609 152.719 93.7861C152.719 93.6113 152.544 93.4365 152.369 93.4365C152.194 93.4365 152.02 93.6113 152.02 93.7861C152.02 94.0483 152.194 94.1357 152.369 94.1357Z" fill="#1E2435"/>
<path fill-rule="evenodd" clip-rule="evenodd" d="M146.079 93.6992C145.904 93.6992 145.816 93.6118 145.816 93.437C145.816 93.2622 145.904 93.1748 146.079 93.1748C146.253 93.1748 146.341 93.2622 146.341 93.437C146.341 93.6118 146.253 93.6992 146.079 93.6992Z" fill="#1E2435"/>
<path fill-rule="evenodd" clip-rule="evenodd" d="M153.942 93.6992C154.117 93.6992 154.204 93.6118 154.204 93.437C154.204 93.2622 154.117 93.1748 153.942 93.1748C153.767 93.1748 153.68 93.2622 153.68 93.437C153.68 93.6118 153.767 93.6992 153.942 93.6992Z" fill="#1E2435"/>
<path fill-rule="evenodd" clip-rule="evenodd" d="M144.77 93.1738C144.683 93.1738 144.508 93.0864 144.508 92.9116C144.508 92.8242 144.595 92.6494 144.77 92.6494C144.857 92.6494 145.032 92.7368 145.032 92.9116C145.032 92.999 144.945 93.1738 144.77 93.1738Z" fill="#1E2435"/>
<path fill-rule="evenodd" clip-rule="evenodd" d="M155.254 93.1738C155.342 93.1738 155.517 93.0864 155.517 92.9116C155.517 92.8242 155.429 92.6494 155.254 92.6494C155.167 92.6494 154.992 92.7368 154.992 92.9116C154.992 92.999 155.167 93.1738 155.254 93.1738Z" fill="#1E2435"/>
<path fill-rule="evenodd" clip-rule="evenodd" d="M143.628 92.5625C143.541 92.5625 143.453 92.4751 143.453 92.3877C143.453 92.3003 143.541 92.2129 143.628 92.2129C143.715 92.2129 143.803 92.3003 143.803 92.3877C143.89 92.3877 143.803 92.5625 143.628 92.5625Z" fill="#1E2435"/>
<path fill-rule="evenodd" clip-rule="evenodd" d="M156.39 92.5625C156.477 92.5625 156.564 92.4751 156.564 92.3877C156.564 92.3003 156.477 92.2129 156.39 92.2129C156.302 92.2129 156.215 92.3003 156.215 92.3877C156.215 92.3877 156.302 92.5625 156.39 92.5625Z" fill="#1E2435"/>
<path fill-rule="evenodd" clip-rule="evenodd" d="M142.667 91.8632C142.58 91.8632 142.492 91.7759 142.492 91.6885C142.492 91.6011 142.58 91.5137 142.667 91.5137C142.754 91.5137 142.842 91.6011 142.842 91.6885C142.842 91.7759 142.754 91.8632 142.667 91.8632Z" fill="#1E2435"/>
<path fill-rule="evenodd" clip-rule="evenodd" d="M157.351 91.8632C157.438 91.8632 157.525 91.7759 157.525 91.6885C157.525 91.6011 157.438 91.5137 157.351 91.5137C157.263 91.5137 157.176 91.6011 157.176 91.6885C157.176 91.7759 157.263 91.8632 157.351 91.8632Z" fill="#1E2435"/>
<path fill-rule="evenodd" clip-rule="evenodd" d="M138.035 85.1333C138.035 85.2207 138.035 85.3081 138.123 85.3955C138.21 85.3955 138.297 85.3955 138.385 85.3081C138.385 85.2207 138.385 85.1333 138.297 85.0459C138.123 85.0459 138.035 85.0459 138.035 85.1333Z" fill="#1E2435"/>
<path fill-rule="evenodd" clip-rule="evenodd" d="M162.068 85.1333C162.068 85.2207 162.068 85.3081 161.981 85.3955C161.894 85.4829 161.806 85.3955 161.719 85.3081C161.719 85.2207 161.719 85.1333 161.806 85.0459C161.894 85.0459 161.981 85.0459 162.068 85.1333Z" fill="#1E2435"/>
<path fill-rule="evenodd" clip-rule="evenodd" d="M141.882 91.164C141.794 91.164 141.707 91.0766 141.707 90.9892C141.707 90.9018 141.794 90.8145 141.882 90.8145C141.969 90.8145 142.057 90.9018 142.057 90.9892C142.057 91.0766 141.969 91.164 141.882 91.164Z" fill="#1E2435"/>
<path fill-rule="evenodd" clip-rule="evenodd" d="M158.14 91.164C158.227 91.164 158.314 91.0766 158.314 90.9892C158.314 90.9018 158.227 90.8145 158.14 90.8145C158.052 90.8145 157.965 90.9018 157.965 90.9892C157.965 91.0766 158.052 91.164 158.14 91.164Z" fill="#1E2435"/>
<path fill-rule="evenodd" clip-rule="evenodd" d="M138.301 86.1832C138.301 86.2706 138.301 86.3579 138.388 86.3579C138.476 86.3579 138.563 86.3579 138.563 86.2706C138.563 86.1832 138.563 86.0958 138.476 86.0958C138.388 86.0084 138.301 86.0958 138.301 86.1832Z" fill="#1E2435"/>
<path fill-rule="evenodd" clip-rule="evenodd" d="M161.719 86.1832C161.719 86.2706 161.719 86.3579 161.632 86.3579C161.544 86.3579 161.457 86.3579 161.457 86.2706C161.457 86.1832 161.457 86.0958 161.544 86.0958C161.632 86.0084 161.719 86.0958 161.719 86.1832Z" fill="#1E2435"/>
<path fill-rule="evenodd" clip-rule="evenodd" d="M141.181 90.4648C141.094 90.4648 141.094 90.3774 141.094 90.3774C141.094 90.29 141.181 90.29 141.181 90.29C141.269 90.29 141.269 90.3774 141.269 90.3774C141.269 90.3774 141.269 90.4648 141.181 90.4648Z" fill="#1E2435"/>
<path fill-rule="evenodd" clip-rule="evenodd" d="M158.837 90.4648C158.925 90.4648 158.925 90.3774 158.925 90.3774C158.925 90.29 158.837 90.29 158.837 90.29C158.75 90.29 158.75 90.3774 158.75 90.3774L158.837 90.4648Z" fill="#1E2435"/>
<path fill-rule="evenodd" clip-rule="evenodd" d="M138.648 87.0561C138.648 87.1435 138.648 87.1435 138.736 87.2309C138.823 87.2309 138.823 87.2309 138.911 87.1435C138.911 87.0561 138.911 87.0561 138.823 86.9688C138.736 86.9688 138.736 87.0561 138.648 87.0561Z" fill="#1E2435"/>
<path fill-rule="evenodd" clip-rule="evenodd" d="M161.372 87.0561C161.372 87.1435 161.372 87.1435 161.284 87.2309C161.197 87.2309 161.197 87.2309 161.109 87.1435C161.109 87.0561 161.109 87.0561 161.197 86.9688C161.284 86.9688 161.372 87.0561 161.372 87.0561Z" fill="#1E2435"/>
<path fill-rule="evenodd" clip-rule="evenodd" d="M140.484 89.7666C140.396 89.5918 140.396 89.5918 140.484 89.5918C140.571 89.5918 140.571 89.5918 140.571 89.6792C140.571 89.6792 140.571 89.7666 140.484 89.7666Z" fill="#1E2435"/>
<path fill-rule="evenodd" clip-rule="evenodd" d="M159.538 89.7666C159.626 89.7666 159.626 89.7666 159.626 89.6792C159.626 89.5918 159.626 89.5918 159.538 89.5918C159.451 89.5918 159.451 89.5918 159.538 89.7666C159.451 89.7666 159.451 89.6792 159.538 89.7666Z" fill="#1E2435"/>
<path fill-rule="evenodd" clip-rule="evenodd" d="M139.086 88.0181C139.086 88.1055 139.086 88.1055 139.173 88.1055C139.261 88.1055 139.261 88.1055 139.261 88.0181C139.261 87.9307 139.261 87.9307 139.173 87.9307C139.173 87.9307 139.086 87.9307 139.086 88.0181Z" fill="#1E2435"/>
<path fill-rule="evenodd" clip-rule="evenodd" d="M160.933 88.0181C160.933 88.1055 160.933 88.1055 160.845 88.1055C160.758 88.1055 160.758 88.1055 160.758 88.0181C160.758 87.9307 160.758 87.9307 160.845 87.9307C160.845 87.9307 160.933 87.9307 160.933 88.0181Z" fill="#1E2435"/>
<path fill-rule="evenodd" clip-rule="evenodd" d="M129.735 82.9488C129.561 82.6866 129.648 82.337 129.91 82.1622C130.172 81.9874 130.522 82.0748 130.697 82.337C130.959 82.5992 130.784 83.0361 130.522 83.1235C130.26 83.2983 129.91 83.2109 129.735 82.9488Z" fill="#1E2435"/>
<path fill-rule="evenodd" clip-rule="evenodd" d="M139.696 88.8912C139.784 88.9785 139.871 89.0659 139.959 88.9785C140.046 88.8911 140.133 88.8038 140.046 88.7164C139.959 88.629 139.871 88.5416 139.784 88.629C139.696 88.629 139.609 88.8038 139.696 88.8912Z" fill="#1E2435"/>
<path fill-rule="evenodd" clip-rule="evenodd" d="M128.95 80.6773C128.863 80.5025 128.95 80.3277 129.038 80.2403C129.212 80.1529 129.387 80.2403 129.475 80.3277C129.562 80.5025 129.475 80.6773 129.387 80.7647C129.3 80.9394 129.125 80.852 128.95 80.6773Z" fill="#1E2435"/>
<path fill-rule="evenodd" clip-rule="evenodd" d="M131.31 84.697C131.397 84.8718 131.572 84.8718 131.747 84.7844C131.921 84.7844 131.921 84.5222 131.834 84.4348C131.747 84.26 131.572 84.2601 131.397 84.3474C131.31 84.3474 131.222 84.5222 131.31 84.697Z" fill="#1E2435"/>
<path fill-rule="evenodd" clip-rule="evenodd" d="M128.599 79.1045C128.511 79.0171 128.599 78.8423 128.686 78.7549C128.773 78.6676 128.948 78.755 129.036 78.8423C129.123 78.9297 129.036 79.1045 128.948 79.1919C128.861 79.2793 128.686 79.1919 128.599 79.1045Z" fill="#1E2435"/>
<path fill-rule="evenodd" clip-rule="evenodd" d="M132.53 85.833C132.617 85.9204 132.792 86.0078 132.88 85.9204C132.967 85.833 133.054 85.6583 132.967 85.5709C132.88 85.4835 132.705 85.3961 132.617 85.4835C132.443 85.5709 132.443 85.7456 132.53 85.833Z" fill="#1E2435"/>
<path fill-rule="evenodd" clip-rule="evenodd" d="M128.427 77.6182C128.339 77.5308 128.427 77.356 128.514 77.2686C128.602 77.1812 128.776 77.2686 128.864 77.356C128.951 77.4434 128.864 77.6182 128.776 77.7056C128.602 77.793 128.514 77.793 128.427 77.6182Z" fill="#1E2435"/>
<path fill-rule="evenodd" clip-rule="evenodd" d="M133.669 86.708C133.756 86.7954 133.844 86.8828 134.019 86.7954C134.106 86.708 134.193 86.6206 134.106 86.4459C134.019 86.3585 133.931 86.2711 133.756 86.3585C133.669 86.4459 133.582 86.6206 133.669 86.708Z" fill="#1E2435"/>
<path fill-rule="evenodd" clip-rule="evenodd" d="M128.425 76.3946C128.337 76.3072 128.337 76.1324 128.512 76.045C128.599 75.9576 128.774 76.045 128.774 76.1324C128.862 76.2198 128.774 76.3946 128.687 76.3946C128.599 76.482 128.425 76.482 128.425 76.3946Z" fill="#1E2435"/>
<path fill-rule="evenodd" clip-rule="evenodd" d="M134.803 87.4068C134.891 87.4942 134.978 87.5816 135.066 87.4942C135.153 87.4068 135.24 87.3194 135.153 87.232C135.066 87.1446 134.978 87.0572 134.891 87.1446C134.716 87.1446 134.716 87.3194 134.803 87.4068Z" fill="#1E2435"/>
<path fill-rule="evenodd" clip-rule="evenodd" d="M128.509 75.1714C128.421 75.084 128.509 74.9966 128.596 74.9092C128.684 74.8219 128.771 74.9092 128.858 74.9966C128.946 75.084 128.858 75.1714 128.771 75.2588C128.684 75.3462 128.509 75.2588 128.509 75.1714Z" fill="#1E2435"/>
<path fill-rule="evenodd" clip-rule="evenodd" d="M135.849 87.8432C135.936 87.9306 136.023 87.9306 136.111 87.9306C136.198 87.8432 136.198 87.7558 136.198 87.6684C136.111 87.5811 136.023 87.5811 135.936 87.5811C135.849 87.6684 135.761 87.8432 135.849 87.8432Z" fill="#1E2435"/>
<path fill-rule="evenodd" clip-rule="evenodd" d="M131.916 67.7432C131.828 67.8306 131.828 67.9179 131.828 68.0053C131.828 68.0927 131.916 68.1801 132.003 68.1801C132.09 68.1801 132.178 68.0927 132.178 68.0053C132.178 67.8306 132.09 67.7432 131.916 67.7432Z" fill="#1E2435"/>
<path fill-rule="evenodd" clip-rule="evenodd" d="M143.976 88.6295C143.889 88.7169 143.801 88.7169 143.714 88.6295C143.627 88.5421 143.627 88.4547 143.714 88.3673C143.801 88.2799 143.889 88.2799 143.976 88.3673C143.976 88.4547 144.064 88.5421 143.976 88.6295Z" fill="#1E2435"/>
<path fill-rule="evenodd" clip-rule="evenodd" d="M128.684 74.122C128.684 74.0347 128.684 73.9473 128.771 73.9473C128.858 73.9473 128.946 73.9473 128.946 74.0347C128.946 74.1221 128.946 74.2094 128.858 74.2094C128.771 74.2968 128.684 74.2094 128.684 74.122Z" fill="#1E2435"/>
<path fill-rule="evenodd" clip-rule="evenodd" d="M136.816 88.2803C136.816 88.3676 136.904 88.3676 136.991 88.3676C137.079 88.3676 137.079 88.2803 137.079 88.1929C137.079 88.1055 136.991 88.1055 136.904 88.1055C136.816 88.1055 136.816 88.1929 136.816 88.2803Z" fill="#1E2435"/>
<path fill-rule="evenodd" clip-rule="evenodd" d="M131.217 68.5293C131.13 68.5293 131.043 68.6167 131.13 68.7041C131.13 68.7915 131.217 68.8789 131.305 68.7915C131.392 68.7915 131.48 68.7041 131.392 68.6167C131.392 68.6167 131.305 68.5293 131.217 68.5293Z" fill="#1E2435"/>
<path fill-rule="evenodd" clip-rule="evenodd" d="M142.932 88.8038C142.844 88.8912 142.757 88.8912 142.757 88.8038C142.67 88.7164 142.67 88.629 142.757 88.629C142.844 88.5416 142.932 88.5416 142.932 88.629C143.019 88.7164 143.019 88.8038 142.932 88.8038Z" fill="#1E2435"/>
<path fill-rule="evenodd" clip-rule="evenodd" d="M128.945 73.1621C128.945 73.0747 128.945 73.0747 128.945 72.9873C129.033 72.9873 129.033 72.9873 129.12 72.9873C129.12 73.0747 129.12 73.0747 129.12 73.1621C129.033 73.2495 128.945 73.2495 128.945 73.1621Z" fill="#1E2435"/>
<path fill-rule="evenodd" clip-rule="evenodd" d="M137.773 88.5421C137.773 88.6295 137.861 88.6295 137.948 88.5421C138.036 88.5421 138.036 88.4547 137.948 88.3673C137.948 88.2799 137.861 88.2799 137.773 88.3673C137.773 88.3673 137.773 88.4547 137.773 88.5421Z" fill="#1E2435"/>
<path fill-rule="evenodd" clip-rule="evenodd" d="M130.607 69.3154C130.52 69.3154 130.52 69.4028 130.52 69.4028C130.52 69.4902 130.607 69.4902 130.607 69.4902C130.694 69.4902 130.694 69.4028 130.694 69.4028C130.782 69.4028 130.694 69.3154 130.607 69.3154Z" fill="#1E2435"/>
<path fill-rule="evenodd" clip-rule="evenodd" d="M141.971 88.9796C141.971 89.067 141.883 89.067 141.796 88.9796C141.709 88.9796 141.709 88.8922 141.796 88.8048C141.796 88.7174 141.883 88.7174 141.971 88.8048C141.971 88.8922 141.971 88.8922 141.971 88.9796Z" fill="#1E2435"/>
<path fill-rule="evenodd" clip-rule="evenodd" d="M129.297 72.2876V72.2002H129.384V72.2876C129.297 72.2876 129.297 72.2876 129.297 72.2876Z" fill="#1E2435"/>
<path fill-rule="evenodd" clip-rule="evenodd" d="M138.734 88.7171C138.734 88.7171 138.822 88.8044 138.822 88.7171C138.822 88.7171 138.909 88.6297 138.822 88.6297C138.822 88.6297 138.734 88.5423 138.734 88.6297C138.734 88.6297 138.734 88.6297 138.734 88.7171Z" fill="#1E2435"/>
<path fill-rule="evenodd" clip-rule="evenodd" d="M130.083 70.1904C129.996 70.1904 129.996 70.2778 129.996 70.2778L130.083 70.3652C130.171 70.3652 130.171 70.2778 130.171 70.2778C130.171 70.1904 130.083 70.1904 130.083 70.1904Z" fill="#1E2435"/>
<path fill-rule="evenodd" clip-rule="evenodd" d="M141.009 89.0667C141.009 89.0667 140.922 89.1541 140.922 89.0667C140.922 89.0667 140.834 88.9793 140.922 88.9793C140.922 88.9793 141.009 88.8919 141.009 88.9793C141.009 88.9793 141.009 88.9793 141.009 89.0667Z" fill="#1E2435"/>
<path fill-rule="evenodd" clip-rule="evenodd" d="M129.735 59.5284C129.91 59.2662 130.26 59.1788 130.522 59.3536C130.784 59.441 130.959 59.878 130.784 60.1402C130.609 60.4023 130.26 60.4897 129.91 60.3149C129.648 60.1402 129.561 59.7906 129.735 59.5284Z" fill="#1E2435"/>
<path fill-rule="evenodd" clip-rule="evenodd" d="M129.56 71.1519C129.472 71.2393 129.56 71.4141 129.647 71.4141C129.734 71.5015 129.909 71.4141 129.909 71.3267C129.997 71.2393 129.909 71.0645 129.822 71.0645C129.734 70.9771 129.647 71.0645 129.56 71.1519Z" fill="#1E2435"/>
<path fill-rule="evenodd" clip-rule="evenodd" d="M131.31 57.7805C131.397 57.6058 131.572 57.6058 131.747 57.6931C131.921 57.6931 131.921 57.9553 131.834 58.0427C131.747 58.2175 131.572 58.2175 131.397 58.1301C131.31 58.1301 131.222 57.9553 131.31 57.7805Z" fill="#1E2435"/>
<path fill-rule="evenodd" clip-rule="evenodd" d="M128.95 61.8008C128.863 61.9756 128.95 62.1504 129.038 62.2378C129.212 62.3252 129.387 62.2378 129.475 62.1504C129.562 61.9756 129.475 61.8008 129.387 61.7134C129.3 61.5387 129.125 61.626 128.95 61.8008Z" fill="#1E2435"/>
<path fill-rule="evenodd" clip-rule="evenodd" d="M132.53 56.6441C132.617 56.5567 132.792 56.4693 132.88 56.5567C132.967 56.6441 133.054 56.8189 132.967 56.9063C132.88 56.9937 132.705 57.0811 132.617 56.9937C132.443 56.9063 132.443 56.7315 132.53 56.6441Z" fill="#1E2435"/>
<path fill-rule="evenodd" clip-rule="evenodd" d="M128.599 63.3726C128.511 63.46 128.599 63.6348 128.686 63.7222C128.773 63.8096 128.948 63.7222 129.036 63.6348C129.123 63.5474 129.036 63.3726 128.948 63.2852C128.861 63.1978 128.686 63.2852 128.599 63.3726Z" fill="#1E2435"/>
<path fill-rule="evenodd" clip-rule="evenodd" d="M133.669 55.7701C133.756 55.6827 133.844 55.5953 134.019 55.6827C134.106 55.7701 134.106 55.8575 134.106 55.9449C134.019 56.0323 133.931 56.1196 133.756 56.0323C133.669 56.0323 133.582 55.8575 133.669 55.7701Z" fill="#1E2435"/>
<path fill-rule="evenodd" clip-rule="evenodd" d="M128.427 64.8596C128.339 64.947 128.427 65.1218 128.514 65.2092C128.602 65.2966 128.776 65.2092 128.864 65.1218C128.951 65.0344 128.864 64.8596 128.776 64.7722C128.602 64.6849 128.514 64.6849 128.427 64.8596Z" fill="#1E2435"/>
<path fill-rule="evenodd" clip-rule="evenodd" d="M134.804 55.0709C134.891 54.9835 134.979 54.8961 135.066 54.9835C135.153 55.0709 135.153 55.1583 135.153 55.333C135.066 55.4204 134.979 55.4204 134.804 55.333C134.716 55.333 134.716 55.1583 134.804 55.0709Z" fill="#1E2435"/>
<path fill-rule="evenodd" clip-rule="evenodd" d="M128.425 66.0821C128.337 66.1695 128.337 66.3443 128.512 66.4317C128.599 66.5191 128.774 66.4317 128.774 66.3443C128.862 66.2569 128.774 66.0821 128.687 66.0821C128.599 65.9948 128.425 65.9948 128.425 66.0821Z" fill="#1E2435"/>
<path fill-rule="evenodd" clip-rule="evenodd" d="M135.851 54.6333C135.939 54.5459 136.026 54.5459 136.114 54.5459C136.114 54.5459 136.201 54.7207 136.114 54.8081C136.114 54.8081 135.939 54.8955 135.851 54.8081C135.851 54.8081 135.764 54.6333 135.851 54.6333Z" fill="#1E2435"/>
<path fill-rule="evenodd" clip-rule="evenodd" d="M128.509 67.3062C128.421 67.3936 128.509 67.481 128.596 67.5684C128.684 67.6558 128.771 67.5684 128.858 67.481C128.946 67.3936 128.858 67.3062 128.771 67.2188C128.684 67.1314 128.509 67.2188 128.509 67.3062Z" fill="#1E2435"/>
<path fill-rule="evenodd" clip-rule="evenodd" d="M143.976 53.8478C143.889 53.7604 143.801 53.7604 143.714 53.8478C143.627 53.9352 143.627 54.0226 143.714 54.1099C143.801 54.1973 143.889 54.1973 143.976 54.1099C143.976 54.0226 144.064 53.9352 143.976 53.8478Z" fill="#1E2435"/>
<path fill-rule="evenodd" clip-rule="evenodd" d="M131.916 74.7348C131.828 74.6474 131.828 74.56 131.828 74.4726C131.828 74.3852 131.916 74.2979 132.003 74.2979C132.09 74.2979 132.178 74.3852 132.178 74.4726C132.178 74.6474 132.09 74.7348 131.916 74.7348Z" fill="#1E2435"/>
<path fill-rule="evenodd" clip-rule="evenodd" d="M136.816 54.1968C136.816 54.1094 136.904 54.1094 136.991 54.1094C137.079 54.1968 137.079 54.2842 137.079 54.3716C137.079 54.4589 136.991 54.4589 136.904 54.4589C136.816 54.3716 136.816 54.2842 136.816 54.1968Z" fill="#1E2435"/>
<path fill-rule="evenodd" clip-rule="evenodd" d="M128.684 68.355C128.684 68.4424 128.684 68.5298 128.771 68.5298C128.858 68.5298 128.946 68.5298 128.946 68.4424C128.946 68.355 128.946 68.2676 128.858 68.2676C128.771 68.1803 128.684 68.2676 128.684 68.355Z" fill="#1E2435"/>
<path fill-rule="evenodd" clip-rule="evenodd" d="M142.932 53.673C142.844 53.5856 142.757 53.5856 142.757 53.673C142.67 53.7604 142.67 53.8478 142.757 53.8478C142.844 53.9351 142.932 53.9351 142.932 53.8478C143.019 53.7604 143.019 53.673 142.932 53.673Z" fill="#1E2435"/>
<path fill-rule="evenodd" clip-rule="evenodd" d="M131.217 73.9478C131.13 73.9478 131.043 73.8604 131.13 73.773C131.13 73.6856 131.217 73.5982 131.305 73.6856C131.392 73.6856 131.48 73.773 131.392 73.8604C131.392 73.8604 131.305 73.9478 131.217 73.9478Z" fill="#1E2435"/>
<path fill-rule="evenodd" clip-rule="evenodd" d="M137.773 53.9357C137.773 53.8483 137.861 53.8483 137.948 53.9357C138.036 53.9357 138.036 54.0231 137.948 54.1104C137.948 54.1978 137.861 54.1978 137.773 54.1104C137.773 54.1104 137.773 54.0231 137.773 53.9357Z" fill="#1E2435"/>
<path fill-rule="evenodd" clip-rule="evenodd" d="M128.945 69.3155C128.945 69.4029 128.945 69.4029 128.945 69.4903C129.033 69.4903 129.033 69.4903 129.12 69.4903C129.12 69.4029 129.12 69.4029 129.12 69.3155C129.033 69.2282 128.945 69.2282 128.945 69.3155Z" fill="#1E2435"/>
<path fill-rule="evenodd" clip-rule="evenodd" d="M141.971 53.4982C141.971 53.4108 141.883 53.4108 141.796 53.4982C141.709 53.4982 141.709 53.5856 141.796 53.6729C141.796 53.7603 141.883 53.7603 141.971 53.6729C141.971 53.5856 141.971 53.5856 141.971 53.4982Z" fill="#1E2435"/>
<path fill-rule="evenodd" clip-rule="evenodd" d="M130.607 73.1621C130.52 73.1621 130.52 73.0747 130.52 73.0747C130.52 72.9873 130.607 72.9873 130.607 72.9873C130.694 72.9873 130.694 73.0747 130.694 73.0747C130.782 73.0747 130.694 73.1621 130.607 73.1621Z" fill="#1E2435"/>
<path fill-rule="evenodd" clip-rule="evenodd" d="M138.734 53.7605C138.734 53.7605 138.822 53.6731 138.822 53.7605C138.822 53.7605 138.909 53.8479 138.822 53.8479C138.822 53.8479 138.734 53.9353 138.734 53.8479C138.734 53.8479 138.734 53.8479 138.734 53.7605Z" fill="#1E2435"/>
<path fill-rule="evenodd" clip-rule="evenodd" d="M129.297 70.1904V70.2778H129.384V70.1904C129.297 70.1904 129.297 70.1904 129.297 70.1904Z" fill="#1E2435"/>
<path fill-rule="evenodd" clip-rule="evenodd" d="M141.009 53.4099C141.009 53.4099 140.922 53.3225 140.922 53.4099C140.922 53.4099 140.834 53.4973 140.922 53.4973C140.922 53.4973 141.009 53.5847 141.009 53.4973C141.009 53.4973 141.009 53.4973 141.009 53.4099Z" fill="#1E2435"/>
<path fill-rule="evenodd" clip-rule="evenodd" d="M130.083 72.2871C129.996 72.2871 129.996 72.1997 129.996 72.1997C129.996 72.1123 130.083 72.1123 130.083 72.1123C130.171 72.1123 130.171 72.1997 130.171 72.1997C130.171 72.2871 130.083 72.2871 130.083 72.2871Z" fill="#1E2435"/>
<path d="M48.668 130.546V111.057C48.668 110.621 48.7554 110.271 48.9301 110.096C49.1049 109.921 49.4545 109.834 49.8915 109.834H55.9216C61.0777 109.834 63.6121 111.757 63.6121 115.602C63.6121 116.738 63.2625 117.787 62.6508 118.573C61.9517 119.447 61.1651 120.059 60.029 120.496V120.671C60.466 120.845 60.8155 121.108 61.2525 121.719C61.6895 122.244 62.039 122.855 62.3012 123.555L65.0104 130.371C65.1852 130.633 65.1852 130.808 65.1852 130.983C65.1852 131.158 65.0104 131.333 64.7482 131.42C64.3986 131.595 63.9617 131.595 63.3499 131.595H62.039C60.9903 131.595 60.3786 131.42 60.2912 130.896L57.8442 124.866C57.4946 124.166 57.0577 123.729 56.7081 123.467C56.2711 123.205 55.6594 123.03 54.6981 123.03H53.4746V130.633C53.4746 131.333 52.8628 131.682 51.6393 131.682H50.5906C49.2797 131.595 48.668 131.245 48.668 130.546ZM56.3585 118.923C56.9703 118.923 57.582 118.661 58.019 118.136C58.4559 117.612 58.7181 117 58.7181 116.214C58.7181 115.427 58.5433 114.903 58.019 114.466C57.582 114.029 56.9703 113.854 56.0963 113.854H53.3872V118.835C53.3872 118.923 56.3585 118.923 56.3585 118.923Z" fill="#1E2435"/>
<path d="M67.2852 112.805V110.358C67.2852 109.659 68.0717 109.31 69.6448 109.31C71.1304 109.31 72.0044 109.659 72.0044 110.358V112.718C72.0044 113.417 71.2178 113.767 69.6448 113.767C67.9843 113.767 67.2852 113.417 67.2852 112.805ZM67.2852 130.546V116.301C67.2852 115.602 67.8969 115.252 69.1204 115.252H69.9943C71.2178 115.252 71.8296 115.602 71.8296 116.301V130.633C71.8296 131.333 71.2178 131.682 69.9943 131.682H69.1204C67.8969 131.595 67.2852 131.245 67.2852 130.546Z" fill="#1E2435"/>
<path d="M75.5879 130.546V120.758C75.5879 119.884 75.5879 119.097 75.5005 118.66C75.4131 118.223 75.3257 117.612 75.3257 117C75.2383 116.738 75.2383 116.563 75.2383 116.301C75.2383 115.951 75.6752 115.776 76.4618 115.514C77.2483 115.339 78.0348 115.252 78.6466 115.252C78.9962 115.252 79.2583 115.427 79.4331 115.689C79.6079 115.951 79.6953 116.301 79.7827 116.563C79.8701 116.912 79.9575 117.087 79.9575 117.262C80.3945 116.563 81.0936 116.038 81.9675 115.601C82.7541 115.165 83.7154 114.902 84.5893 114.902C86.1624 114.902 87.2111 115.339 87.9976 116.126C88.7841 116.912 89.0463 118.136 89.0463 119.971V130.458C89.0463 131.157 88.4346 131.507 87.2111 131.507H86.3372C85.1137 131.507 84.5019 131.157 84.5019 130.458V120.758C84.5019 120.146 84.3271 119.709 84.0649 119.359C83.8028 119.01 83.2784 118.922 82.6667 118.922C82.1423 118.922 81.6179 119.097 81.181 119.447C80.744 119.796 80.3944 120.233 80.1323 120.67V130.633C80.1323 131.332 79.5205 131.682 78.297 131.682H77.5105C76.1996 131.594 75.5879 131.245 75.5879 130.546Z" fill="#1E2435"/>
<path d="M94.0242 129.76C92.7133 128.362 92.1016 126.352 92.1016 123.555C92.1016 120.759 92.7133 118.661 94.0242 117.176C95.3351 115.777 97.2577 115.078 100.054 115.078C101.278 115.078 102.501 115.253 103.55 115.602C104.599 116.039 105.21 116.476 105.21 117.176C105.21 117.525 105.036 117.962 104.599 118.574C104.162 119.186 103.812 119.535 103.55 119.535C103.463 119.535 103.288 119.448 103.026 119.36C102.589 119.186 102.239 119.011 101.802 118.923C101.365 118.749 100.928 118.749 100.316 118.749C99.093 118.749 98.2191 119.186 97.6947 119.885C97.1703 120.584 96.9082 121.895 96.9082 123.468C96.9082 125.041 97.1703 126.264 97.6947 127.051C98.2191 127.837 99.093 128.187 100.229 128.187C100.753 128.187 101.278 128.1 101.627 128.012C102.064 127.837 102.414 127.837 102.676 127.663C102.938 127.488 103.113 127.488 103.2 127.488C103.55 127.313 103.725 127.313 103.725 127.313C103.9 127.313 104.162 127.488 104.424 127.75C104.686 128.012 104.861 128.362 105.123 128.799C105.298 129.236 105.385 129.498 105.385 129.673C105.385 130.197 105.036 130.634 104.337 130.984C103.637 131.333 102.851 131.508 101.977 131.683C101.103 131.858 100.404 131.858 99.9669 131.858C97.3451 131.77 95.3351 131.071 94.0242 129.76Z" fill="#1E2435"/>
<path d="M109.055 129.585C107.745 128.187 107.133 126.089 107.133 123.38C107.133 120.671 107.745 118.574 109.055 117.175C110.366 115.777 112.202 115.078 114.649 115.078C117.096 115.078 118.931 115.777 120.242 117.175C121.553 118.574 122.164 120.671 122.164 123.38C122.164 126.089 121.553 128.187 120.242 129.585C118.931 130.983 117.096 131.77 114.649 131.77C112.202 131.77 110.366 131.071 109.055 129.585ZM116.833 126.963C117.27 126.177 117.533 124.953 117.533 123.38C117.533 121.807 117.358 120.671 116.833 119.797C116.396 119.011 115.697 118.661 114.649 118.661C113.687 118.661 112.901 119.098 112.464 119.797C112.027 120.496 111.765 121.807 111.765 123.38C111.765 126.526 112.726 128.099 114.649 128.099C115.697 128.099 116.309 127.75 116.833 126.963ZM112.551 113.68C112.376 113.592 112.289 113.505 112.289 113.33C112.289 113.155 112.376 113.068 112.464 112.893C112.639 112.718 112.639 112.544 112.726 112.456L113.949 110.184C114.124 109.747 114.386 109.485 114.736 109.397C115.086 109.223 115.697 109.223 116.571 109.223C117.183 109.223 117.62 109.31 117.882 109.397C118.057 109.485 118.232 109.572 118.232 109.834C118.232 110.097 118.057 110.534 117.62 110.883L115.872 112.893C115.523 113.243 115.173 113.418 114.823 113.592C114.474 113.767 114.037 113.767 113.512 113.767C112.988 113.767 112.726 113.767 112.551 113.68Z" fill="#1E2435"/>
<path d="M125.314 130.546V120.758C125.314 119.884 125.314 119.097 125.227 118.66C125.14 118.223 125.052 117.612 125.052 117C124.965 116.738 124.965 116.563 124.965 116.301C124.965 115.951 125.402 115.776 126.188 115.514C126.975 115.339 127.761 115.252 128.373 115.252C128.723 115.252 128.985 115.427 129.16 115.689C129.334 115.951 129.422 116.301 129.509 116.563C129.597 116.912 129.684 117.087 129.684 117.262C130.121 116.563 130.82 116.038 131.694 115.601C132.481 115.165 133.442 114.902 134.316 114.902C135.889 114.902 136.938 115.339 137.724 116.126C138.511 116.912 138.773 118.136 138.773 119.971V130.458C138.773 131.157 138.161 131.507 136.938 131.507H136.064C134.84 131.507 134.228 131.157 134.228 130.458V120.758C134.228 120.146 134.054 119.709 133.792 119.359C133.529 119.01 133.005 118.922 132.393 118.922C131.869 118.922 131.345 119.097 130.908 119.447C130.471 119.796 130.121 120.233 129.859 120.67V130.633C129.859 131.332 129.247 131.682 128.024 131.682H127.15C125.926 131.594 125.314 131.245 125.314 130.546Z" fill="#1E2435"/>
<path d="M145.062 130.895V112.281H139.12C138.945 112.281 138.77 112.193 138.683 112.106C138.508 111.931 138.508 111.669 138.508 111.407V110.795C138.508 110.445 138.595 110.27 138.683 110.096C138.857 109.921 138.945 109.921 139.12 109.921H153.627C153.802 109.921 154.064 110.008 154.064 110.096C154.151 110.27 154.238 110.533 154.238 110.795V111.232C154.238 111.581 154.151 111.756 154.064 111.931C153.976 112.106 153.802 112.106 153.627 112.106H147.771V130.895C147.771 131.332 147.334 131.594 146.548 131.594H146.286C145.412 131.594 145.062 131.332 145.062 130.895Z" fill="#1E2435"/>
<path d="M156.245 129.672C155.022 128.274 154.41 126.264 154.41 123.555C154.41 120.846 155.022 118.748 156.245 117.262C157.469 115.864 159.217 115.165 161.664 115.165C163.761 115.165 165.334 115.864 166.47 117.175C167.519 118.573 168.131 120.583 168.131 123.205C168.131 123.38 167.956 123.642 167.781 123.992C167.519 124.341 167.344 124.429 167.082 124.429H157.294C157.469 126.177 157.818 127.4 158.692 128.187C159.479 128.973 160.615 129.41 162.101 129.41C162.975 129.41 163.761 129.235 164.373 129.06C164.985 128.886 165.509 128.624 165.946 128.361C166.383 128.187 166.645 128.012 166.645 128.012C166.82 128.012 167.082 128.187 167.344 128.624C167.606 129.06 167.781 129.41 167.781 129.585C167.781 129.847 167.519 130.109 166.995 130.371C166.47 130.721 165.771 130.983 164.985 131.158C164.111 131.333 163.237 131.507 162.275 131.507C159.392 131.682 157.469 131.071 156.245 129.672ZM165.247 122.244C165.247 119.01 164.023 117.35 161.576 117.35C158.955 117.35 157.469 119.01 157.294 122.244H165.247Z" fill="#1E2435"/>
<path d="M172.154 130.896V119.972C172.154 118.574 172.067 117.613 171.979 117.001C171.892 116.389 171.805 116.127 171.805 116.039C171.805 115.777 171.979 115.602 172.416 115.515C172.853 115.34 173.203 115.34 173.465 115.34C173.727 115.34 173.902 115.515 174.077 115.777C174.252 116.039 174.252 116.389 174.426 116.739C174.514 117.088 174.601 117.263 174.601 117.438C175.65 115.865 176.961 115.078 178.184 115.078C178.796 115.078 179.233 115.166 179.583 115.34C179.845 115.515 180.02 115.777 180.02 116.214C180.02 116.564 179.932 117.001 179.845 117.263C179.67 117.7 179.583 117.787 179.408 117.787C179.233 117.787 179.146 117.7 178.796 117.613C178.534 117.438 178.097 117.438 177.747 117.438C177.223 117.438 176.699 117.613 176.174 117.962C175.737 118.312 175.213 118.749 174.863 119.36V130.721C174.863 131.158 174.426 131.421 173.64 131.421H173.465C172.504 131.595 172.154 131.333 172.154 130.896Z" fill="#1E2435"/>
<path d="M182.992 130.546C182.031 129.76 181.594 128.624 181.594 127.05C181.594 125.39 182.031 124.166 183.079 123.38C184.041 122.593 185.264 121.982 186.663 121.807C188.061 121.632 189.809 121.457 191.819 121.37V119.972C191.819 119.185 191.557 118.573 191.032 118.136C190.508 117.699 189.634 117.35 188.41 117.35C187.536 117.35 186.663 117.525 186.051 117.699C185.352 117.874 184.827 118.136 184.303 118.399C183.866 118.573 183.604 118.748 183.516 118.748C183.342 118.748 183.079 118.573 182.817 118.136C182.555 117.699 182.38 117.35 182.38 117.175C182.38 116.913 182.642 116.651 183.167 116.301C183.691 115.952 184.478 115.777 185.352 115.515C186.226 115.34 187.187 115.165 188.148 115.165C190.071 115.165 191.557 115.602 192.605 116.476C193.654 117.35 194.266 118.486 194.266 120.059V127.05C194.266 128.449 194.353 129.41 194.44 130.022C194.615 130.634 194.615 130.896 194.615 130.983C194.615 131.245 194.44 131.42 194.004 131.507C193.567 131.682 193.217 131.682 192.955 131.682C192.693 131.682 192.518 131.507 192.343 131.245C192.168 130.896 192.168 130.546 191.993 130.197C191.906 129.847 191.819 129.672 191.819 129.497C190.42 131.071 188.673 131.857 186.663 131.857C185.264 131.682 183.953 131.333 182.992 130.546ZM189.546 128.886C190.333 128.536 191.032 128.012 191.819 127.313V123.642C190.246 123.642 189.022 123.73 187.973 123.817C187.012 123.992 186.138 124.254 185.352 124.691C184.565 125.128 184.303 125.914 184.303 126.876C184.303 127.662 184.478 128.274 185.002 128.798C185.439 129.235 186.051 129.497 187.012 129.497C187.973 129.41 188.935 129.323 189.546 128.886Z" fill="#1E2435"/>
<path d="M199.596 137.276V119.972C199.596 118.574 199.508 117.613 199.421 117.001C199.333 116.389 199.246 116.127 199.246 116.039C199.246 115.777 199.421 115.602 199.858 115.515C200.295 115.428 200.644 115.34 200.907 115.34C201.169 115.34 201.344 115.515 201.518 115.777C201.693 116.039 201.693 116.389 201.868 116.739C201.955 117.088 202.043 117.263 202.043 117.438C203.528 115.865 205.189 115.078 206.937 115.078C208.16 115.078 209.296 115.428 210.17 116.127C211.044 116.826 211.743 117.875 212.18 119.098C212.617 120.322 212.879 121.72 212.879 123.38C212.879 125.128 212.617 126.614 212.093 127.837C211.568 129.061 210.782 130.022 209.908 130.634C208.947 131.246 207.898 131.595 206.674 131.595C205.801 131.595 204.927 131.421 204.315 131.158C203.703 130.896 202.917 130.459 202.305 130.022V137.014C202.305 137.451 201.868 137.713 201.081 137.713H200.994C200.033 137.975 199.596 137.713 199.596 137.276ZM209.034 127.925C209.733 126.876 210.083 125.565 210.083 123.643C210.083 121.633 209.733 120.06 209.034 119.011C208.335 117.962 207.461 117.35 206.238 117.35C205.538 117.35 204.839 117.525 204.053 117.875C203.266 118.224 202.654 118.749 202.043 119.448V127.925C203.091 128.886 204.402 129.323 205.888 129.323C207.374 129.411 208.422 128.974 209.034 127.925Z" fill="#1E2435"/>
<path d="M217.422 112.455V110.62C217.422 110.183 217.859 109.921 218.82 109.921C219.781 109.921 220.218 110.096 220.218 110.62V112.455C220.218 112.892 219.781 113.154 218.82 113.154C217.859 113.154 217.422 112.892 217.422 112.455ZM217.422 130.895V115.951C217.422 115.514 217.859 115.252 218.645 115.252H218.82C219.607 115.252 220.044 115.427 220.044 115.951V130.895C220.044 131.332 219.607 131.594 218.82 131.594H218.645C217.859 131.594 217.422 131.332 217.422 130.895Z" fill="#1E2435"/>
<path d="M225.812 130.546C224.851 129.76 224.414 128.624 224.414 127.05C224.414 125.39 224.851 124.166 225.9 123.38C226.861 122.593 228.085 121.982 229.483 121.807C230.881 121.632 232.629 121.457 234.639 121.37V119.972C234.639 119.185 234.377 118.573 233.852 118.136C233.328 117.699 232.454 117.35 231.231 117.35C230.357 117.35 229.483 117.525 228.871 117.699C228.259 117.874 227.648 118.136 227.123 118.399C226.686 118.573 226.424 118.748 226.337 118.748C226.162 118.748 225.9 118.573 225.638 118.136C225.375 117.699 225.201 117.35 225.201 117.175C225.201 116.913 225.463 116.651 225.987 116.301C226.512 115.952 227.298 115.777 228.172 115.515C229.046 115.34 230.007 115.165 230.969 115.165C232.891 115.165 234.377 115.602 235.426 116.476C236.474 117.35 237.086 118.486 237.086 120.059V127.05C237.086 128.449 237.173 129.41 237.261 130.022C237.436 130.634 237.436 130.896 237.436 130.983C237.436 131.245 237.261 131.42 236.824 131.507C236.387 131.595 236.037 131.682 235.775 131.682C235.513 131.682 235.338 131.507 235.163 131.245C234.989 130.896 234.989 130.546 234.814 130.197C234.726 129.847 234.639 129.672 234.639 129.497C233.241 131.071 231.493 131.857 229.483 131.857C227.997 131.682 226.774 131.333 225.812 130.546ZM232.367 128.886C233.153 128.536 233.852 128.012 234.639 127.313V123.642C233.066 123.642 231.842 123.73 230.794 123.817C229.832 123.992 228.958 124.254 228.172 124.691C227.385 125.128 227.123 125.914 227.123 126.876C227.123 127.662 227.298 128.274 227.822 128.798C228.259 129.235 228.871 129.497 229.832 129.497C230.794 129.41 231.668 129.323 232.367 128.886Z" fill="#1E2435"/>
<path d="M243.381 131.507C242.594 131.333 241.982 131.071 241.633 130.721C241.196 130.371 240.934 130.109 240.934 129.934C240.934 129.76 241.108 129.41 241.371 128.973C241.633 128.536 241.808 128.361 242.07 128.361C242.157 128.361 242.244 128.536 242.681 128.711C243.031 128.886 243.468 129.148 243.992 129.323C244.517 129.497 245.041 129.585 245.74 129.585C246.789 129.585 247.488 129.41 248.012 128.973C248.537 128.536 248.799 128.012 248.799 127.225C248.799 126.439 248.537 125.914 248.012 125.477C247.575 125.04 246.702 124.691 245.653 124.429C244.779 124.166 243.992 123.817 243.381 123.467C242.769 123.118 242.332 122.681 241.895 122.069C241.458 121.457 241.283 120.671 241.283 119.622C241.283 118.748 241.458 117.962 241.982 117.262C242.419 116.563 243.031 116.039 243.818 115.689C244.604 115.252 245.478 115.165 246.439 115.165C247.401 115.165 248.449 115.34 249.323 115.602C250.11 115.864 250.547 116.126 250.547 116.563C250.547 116.826 250.372 117.175 250.197 117.612C250.022 118.049 249.76 118.224 249.585 118.224C249.498 118.224 249.236 118.049 248.799 117.787C248.362 117.525 247.663 117.35 246.789 117.35C246.002 117.35 245.391 117.525 244.779 117.874C244.255 118.224 243.992 118.748 243.992 119.36C243.992 119.972 244.167 120.409 244.429 120.758C244.779 121.108 245.391 121.457 246.352 121.719C248.012 122.244 249.236 122.856 250.022 123.73C250.809 124.516 251.333 125.565 251.333 126.963C251.333 127.837 251.071 128.711 250.547 129.41C250.11 130.197 249.411 130.721 248.537 131.158C247.663 131.595 246.789 131.77 245.74 131.77C244.954 131.77 244.167 131.682 243.381 131.507Z" fill="#1E2435"/>
</svg>
