<svg width="300" height="186" viewBox="0 0 300 186" fill="none" xmlns="http://www.w3.org/2000/svg">
<rect width="300" height="185.635" fill="#EEF1F6"/>
<path d="M123.565 61.8629C127.263 64.6426 130.333 69.92 125.419 76.5871L121.093 82.4689L120.953 82.3682L120.684 80.2028L107.775 70.5041L105.651 70.8567L105.512 70.7559L109.808 64.9246C114.015 59.2041 118.6 58.1264 123.565 61.8629ZM125.239 75.862C127.143 73.2738 125.857 71.0379 120.405 66.9389C115.231 63.0513 112.47 62.1751 110.297 65.1361L110.207 65.257L124.911 76.3052L125.239 75.862Z" fill="#1E2435"/>
<path d="M143.282 54.7908L146.292 62.4651L131.389 68.4173L131.329 68.2561L132.227 66.2721L126.315 51.1551L124.322 50.3292L124.262 50.1681L139.005 44.2764L142.016 51.9607L141.856 52.0212L139.434 50.2688C135.486 47.3078 134.519 46.633 131.379 47.8919L131.11 48.0027L134.37 56.3317L134.639 56.2209C136.084 55.6468 136.962 54.7908 137.38 50.8126L137.54 50.7522L140.64 58.6784L140.481 58.7388C137.59 56.3317 136.264 56.1101 134.819 56.6842L134.549 56.7949L137.869 65.2851L138.298 65.1139C141.428 63.8651 141.687 62.6968 142.554 57.8122C142.714 56.9662 142.893 55.9893 143.132 54.8613L143.282 54.7908Z" fill="#1E2435"/>
<path d="M158.611 54.1577C164.373 54.6412 165.739 57.1388 165.28 59.6264C164.782 62.3759 161.233 64.8131 154.983 63.6549L146.719 62.1242L146.749 61.9529L148.543 60.7544L151.454 44.7713L150.198 42.9886L150.228 42.8174L159.03 44.449C164.662 45.4964 166.447 47.571 165.988 50.0889C165.51 52.7175 162.938 54.1376 158.671 53.9664L158.611 54.1577ZM159.259 59.0927C159.877 55.6886 158.741 54.3591 156.398 53.9159L155.461 53.7448L153.796 62.8996C154.016 62.9701 154.066 63.0104 154.694 63.0909C157.206 63.4737 158.671 62.3255 159.259 59.0927ZM157.126 44.6L155.551 53.2311L156.398 53.3923C158.95 53.8354 159.807 52.4859 160.316 49.686C160.725 47.4603 160.854 45.2949 158.023 44.7713L157.126 44.6Z" fill="#1E2435"/>
<path d="M176.965 75.6104L177.025 77.7657L176.905 77.8865L171.761 72.9013L173.974 70.5748C170.166 70.5547 168.601 70.4337 168.043 69.8899C165.721 67.6339 165.481 64.8644 168.352 61.8429L176.845 52.95L176.786 50.7947L176.905 50.6738L182.049 55.6692L173.117 65.0657C171.522 66.7477 170.944 68.1979 172.1 69.3259C172.788 69.9907 173.606 70.1417 174.473 70.0612L184.083 59.9998L183.993 57.8244L184.112 57.7036L189.276 62.7191L176.965 75.6104Z" fill="#1E2435"/>
<path d="M188.209 91.3296L180.275 93.2835L176.477 77.5521L176.646 77.5118L178.47 78.68L194.101 74.8329L195.188 72.9495L195.357 72.9092L199.115 88.4694L191.17 90.4233L191.13 90.252L193.184 88.0666C196.623 84.5214 197.42 83.6452 196.623 80.3418L196.553 80.0599L187.94 82.1849L188.01 82.4669C188.379 83.9877 189.097 84.9847 192.935 85.9516L192.974 86.1228L184.78 88.1371L184.74 87.9658C187.502 85.3977 187.9 84.1086 187.532 82.5777L187.462 82.2957L178.68 84.461L178.789 84.9142C179.587 88.2176 180.693 88.6306 185.358 90.1815C186.166 90.4635 187.103 90.7656 188.17 91.1685L188.209 91.3296Z" fill="#1E2435"/>
<path d="M195.864 109.55L193.79 115.835L175.309 109.621L176.844 104.958L194.368 100.828L194.418 100.687L192.614 100.083C187.4 98.3308 182.606 99.3581 178.189 101.634L178.03 101.584L180.133 95.1885L195.535 100.365L199.044 99.4588L199.183 99.5091L197.02 106.076L179.505 110.175L179.446 110.336L181.06 110.88C185.726 112.451 191.418 111.575 195.704 109.49L195.864 109.55Z" fill="#1E2435"/>
<path d="M179.158 132.383L161.832 121.627L161.723 121.496L167.734 116.47L167.843 116.601L167.664 118.716L172.22 121.546L175.858 118.505C174.074 116.41 172.01 115.04 170.076 114.728L169.967 114.597L175.639 109.854L175.748 109.985L180.434 126.511L183.604 128.425L183.713 128.556L179.158 132.383ZM172.688 121.838L179.626 126.159L179.756 126.048L179.078 124.165C178.34 122.171 177.323 120.388 176.197 118.918L172.688 121.838Z" fill="#1E2435"/>
<path d="M144.846 142.656L145.793 141.045L144.059 123.188L151.186 122.493L151.206 122.664L149.801 124.316L151.136 137.973L151.306 137.953L154.954 125.595L155.273 125.565L162.032 136.643L162.172 136.633L161.982 134.7C161.384 128.475 159.161 124.81 155.323 122.231L155.313 122.09L161.354 121.496L162.929 137.963L164.813 140.702L164.833 140.873L158.653 141.538L153.648 133.088L153.509 133.098L150.857 142.233L144.876 142.817L144.846 142.656Z" fill="#1E2435"/>
<path d="M124.539 134.92L127.988 114.667L128.068 114.516L134.916 118.282L134.837 118.433L132.833 119.048L131.926 124.375L136.073 126.652C137.329 124.194 137.827 121.757 137.389 119.833L137.468 119.682L143.938 123.247L143.858 123.398L130.401 133.953L129.822 137.639L129.743 137.79L124.539 134.92ZM131.826 124.929L130.44 133.037L130.59 133.117L132.065 131.778C133.62 130.348 134.886 128.726 135.823 127.125L131.826 124.929Z" fill="#1E2435"/>
<path d="M107.264 116.599L103.965 110.868L120.792 100.958L123.244 105.198L114.731 121.211L114.801 121.332L116.445 120.365C121.191 117.566 123.603 113.255 124.829 108.401L124.979 108.31L128.338 114.141L114.312 122.4L112.667 125.673L112.548 125.744L109.099 119.761L117.632 103.768L117.542 103.617L116.077 104.483C111.83 106.981 108.72 111.875 107.424 116.508L107.264 116.599Z" fill="#1E2435"/>
<path d="M110.787 101.385C102.183 101.005 100.757 93.0112 100.818 91.7046C101.042 86.4269 105.798 82.6513 111.52 82.8982C120.125 83.2788 121.551 91.2725 121.489 92.5482C121.266 97.9184 116.52 101.632 110.787 101.385ZM109.901 89.2457C104.678 91.0976 101.949 93.4433 102.407 95.3054C102.845 96.8691 105.971 97.3012 111.551 95.4391C117.131 93.5769 120.42 90.9845 119.921 88.9989C119.453 87.3734 115.695 87.178 109.901 89.2457Z" fill="#1E2435"/>
</svg>
